<svg width="294" height="307" viewBox="0 0 294 307" fill="none" xmlns="http://www.w3.org/2000/svg">
<g clip-path="url(#clip0_696_125)">
<path d="M106.675 54.0418C110.206 54.8928 114.219 55.8406 118.502 55.6278C122.438 55.4344 125.487 52.0882 125.294 48.1424C125.101 44.1966 121.763 41.1405 117.827 41.3339C115.589 41.45 112.849 40.7923 109.975 40.1154C103.01 38.4519 92.4944 35.9568 84.4295 46.2468C81.0531 50.5602 79.5868 56.1501 80.0691 62.8231C80.1656 64.2545 80.3971 65.5891 80.6093 66.885C80.8602 68.3937 81.1496 70.1152 80.9952 70.9469C80.2813 74.8347 82.8474 78.5677 86.7448 79.2834C87.1885 79.3608 87.613 79.3994 88.0375 79.3994C91.4139 79.3994 94.4237 76.9817 95.0604 73.5194C95.6779 70.1925 95.1376 67.0204 94.7132 64.4672C94.5395 63.4614 94.3852 62.5137 94.3273 61.7593C94.0958 58.7032 94.5395 56.4982 95.6779 55.0476C97.7423 52.3977 99.2858 52.2623 106.675 54.0224V54.0418Z" fill="white"/>
<path d="M293.73 99.4188C284.739 66.537 268.899 50.2895 258.287 39.5352C258.326 38.6648 258.538 37.4462 258.712 36.4211C258.924 35.1832 259.155 33.7519 259.271 32.3012C259.773 25.454 258.249 19.7481 254.776 15.2994C246.479 4.71916 235.733 7.27234 228.632 8.95511C225.796 9.63209 223.134 10.2704 220.953 10.1543C212.889 9.76749 204.901 8.18143 196.45 6.49865C192.688 5.7443 188.791 4.97061 184.893 4.31298C170.944 1.95322 158.441 0.579925 146.711 0.115712C127.957 -0.619294 108.953 2.55283 91.7618 9.28393C50.415 25.4734 18.2328 63.655 7.75624 108.954C3.60805 121.74 1.23491 135.086 0.308802 150.405C-2.27658 192.668 11.5957 231.99 39.3403 261.178C67.4901 290.791 106.734 307 150.087 307C150.859 307 151.65 307 152.422 307H153.772C154.39 307 155.026 307 155.644 306.961C174.455 306.613 192.437 304.002 209.107 299.185C231.179 292.822 249.161 283.054 262.512 270.133C277.388 255.762 292.013 230.462 284.276 206.536C280.764 195.666 273.047 187.058 261.992 181.604C251.534 176.459 240.653 176.672 227.745 179.96L230.06 169.96C232.337 169.476 234.633 168.877 236.929 168.161C251.573 163.616 261.374 156.072 261.779 155.743C263.863 154.138 264.23 151.14 262.628 149.051C261.027 146.962 258.036 146.575 255.953 148.2C254.544 149.302 221.166 174.505 187.845 154.119C187.845 154.119 187.845 154.08 187.845 154.061V145.221C188.521 145.028 189.196 144.815 189.794 144.564C195.621 141.952 200.791 137.62 205.673 133.364C207.428 131.836 208.74 128.026 208.065 125.976C207.39 123.964 204.071 121.778 201.718 121.546C195.524 120.927 189.234 121.334 183.002 121.334C177.021 121.314 170.963 120.831 165.059 121.527C162.474 121.836 159.136 124.041 158.094 126.304C157.322 127.987 158.962 131.952 160.737 133.48C165.657 137.697 170.828 142.049 176.655 144.641C177.176 144.873 177.716 145.047 178.295 145.221V154.08C178.295 154.37 178.333 154.641 178.372 154.912C145.495 173.848 112.985 149.302 111.577 148.219C109.493 146.614 106.502 146.981 104.901 149.07C103.28 151.159 103.666 154.157 105.75 155.763C106.155 156.072 115.956 163.616 130.6 168.18C132.26 168.703 133.9 169.148 135.559 169.534L144.164 208.49C112.02 213.77 67.8566 208.586 43.4499 179.921C21.3005 153.925 21.8022 123.248 25.005 104.409C36.0796 67.6201 63.2261 37.1368 97.4149 23.7519C112.618 17.7945 129.462 14.9899 146.113 15.6475C157.168 16.0731 169.014 17.3883 182.308 19.632C185.974 20.251 189.755 21.0053 193.402 21.7403C202.046 23.4618 210.979 25.2606 220.201 25.6862C224.561 25.8989 228.613 24.9318 232.183 24.0807C239.321 22.3786 240.691 22.4947 242.582 24.8931C243.624 26.2084 244.029 28.278 243.817 31.1793C243.759 31.895 243.604 32.8428 243.431 33.8292C242.987 36.4211 242.447 39.6512 243.084 43.0748C243.257 44.0226 243.778 46.9046 246.151 49.303L247 50.1541C257.612 60.889 270.79 74.2545 278.797 103.519C279.742 106.962 282.848 109.225 286.263 109.225C286.939 109.225 287.633 109.129 288.308 108.954C292.437 107.813 294.849 103.558 293.73 99.4188ZM153.193 205.163L145.688 171.217C147.791 171.411 149.894 171.527 151.959 171.527C161.413 171.527 170.5 169.438 178.989 165.337V185.975C178.989 188.606 181.131 190.753 183.755 190.753C186.379 190.753 188.521 188.606 188.521 185.975V165.337C197.01 169.438 206.097 171.527 215.551 171.527C216.998 171.527 218.465 171.469 219.95 171.372L217.23 183.093L212.117 205.163H153.174H153.193ZM131.333 216.652L139.668 216.343C141.347 216.285 142.755 217.581 142.813 219.263L143.122 227.619C143.18 229.302 141.887 230.714 140.209 230.772L131.874 231.081C130.195 231.139 128.787 229.843 128.729 228.161L128.42 219.805C128.362 218.122 129.655 216.71 131.333 216.652ZM14.2583 204.776L13.5444 202.687C13.2743 201.913 13.6987 201.062 14.4705 200.791L16.5542 200.076C17.326 199.805 18.1749 200.231 18.445 201.004L19.1589 203.093C19.429 203.867 19.0046 204.718 18.2328 204.989L16.1491 205.704C15.3773 205.975 14.5284 205.55 14.2583 204.776ZM111.962 279.166L109.744 287.232C109.3 288.857 107.621 289.804 106.02 289.36L97.9744 287.135C96.3537 286.69 95.4083 285.008 95.852 283.402L98.0708 275.336C98.5146 273.712 100.193 272.764 101.795 273.209L109.84 275.433C111.461 275.878 112.406 277.561 111.962 279.166ZM94.1349 228.277L95.2153 220.076C95.389 218.78 96.5659 217.871 97.8586 218.045L106.039 219.128C107.332 219.302 108.239 220.482 108.065 221.778L106.985 229.979C106.811 231.275 105.634 232.184 104.341 232.01L96.1608 230.927C94.8681 230.753 93.9613 229.573 94.1349 228.277ZM66.699 217.174L68.4933 213.132C69.0915 211.797 70.635 211.198 71.9855 211.778L76.018 213.577C77.3492 214.176 77.9473 215.724 77.3685 217.078L75.5742 221.12C74.9761 222.455 73.4326 223.054 72.082 222.474L68.0496 220.675C66.7183 220.076 66.1202 218.528 66.699 217.174ZM61.2967 266.323L65.2906 259.089C65.9273 257.948 67.355 257.542 68.4933 258.161L75.7093 262.164C76.8476 262.803 77.2528 264.234 76.6354 265.375L72.6415 272.609C72.0048 273.75 70.5771 274.157 69.4387 273.538L62.2228 269.534C61.0845 268.895 60.6793 267.464 61.2967 266.323ZM48.6207 203.828L50.1063 201.875C50.9166 200.811 52.4215 200.598 53.4634 201.41L55.4121 202.9C56.4733 203.712 56.6855 205.221 55.8751 206.265L54.3895 208.219C53.5792 209.283 52.0743 209.495 51.0324 208.683L49.0837 207.194C48.0225 206.381 47.8103 204.873 48.6207 203.828ZM46.8842 244.253L50.2027 247.193C51.3025 248.161 51.399 249.843 50.4343 250.927L47.5016 254.253C46.5369 255.356 44.8583 255.453 43.7779 254.485L40.4593 251.545C39.3596 250.578 39.2631 248.896 40.2278 247.812L43.1605 244.486C44.1252 243.383 45.8037 243.286 46.8842 244.253ZM35.8674 190.985L37.8547 188.819C38.4528 188.18 39.4561 188.142 40.0928 188.722L42.2537 190.714C42.8904 191.314 42.929 192.32 42.3501 192.958L40.3629 195.124C39.7648 195.762 38.7615 195.801 38.1248 195.221L35.9639 193.229C35.3272 192.629 35.2886 191.623 35.8674 190.985ZM27.4167 175.414L29.1724 174.099C29.8284 173.616 30.7545 173.751 31.2562 174.409L32.5682 176.188C33.0505 176.846 32.9154 177.774 32.2594 178.277L30.4844 179.592C29.8284 180.076 28.9023 179.941 28.4007 179.283L27.0887 177.503C26.6063 176.846 26.7414 175.917 27.3974 175.414H27.4167ZM27.5517 231.372L29.5583 229.96C30.6388 229.186 32.1437 229.457 32.9154 230.54L34.3239 232.551C35.0957 233.635 34.8255 235.143 33.7451 235.917L31.7385 237.329C30.6581 238.103 29.1531 237.832 28.3814 236.749L26.9729 234.737C26.2012 233.654 26.4713 232.145 27.5517 231.372ZM23.6351 214.331L25.1014 216.904C25.5259 217.658 25.2751 218.625 24.5033 219.07L21.9372 220.54C21.1848 220.965 20.2201 220.714 19.7763 219.94L18.31 217.368C17.8855 216.613 18.1363 215.646 18.9081 215.201L21.4742 213.731C22.2266 213.306 23.1913 213.557 23.6351 214.312V214.331Z" fill="white"/>
<path d="M229.848 106.189C226.954 106.692 224.233 107.524 222.169 108.491C217.037 110.909 216.786 114.197 217.095 115.918C217.712 119.458 220.973 121.295 226.413 121.295C228.189 121.295 230.176 121.102 232.395 120.715C241.443 119.129 245.958 115.667 245.148 110.986C244.318 106.305 238.897 104.603 229.848 106.208V106.189Z" fill="white"/>
<path d="M125.313 118.413C127.359 119.38 130.079 120.192 132.992 120.715C135.211 121.101 137.198 121.295 138.973 121.295C144.414 121.295 147.675 119.457 148.292 115.918C149.103 111.237 144.588 107.775 135.539 106.189C126.49 104.602 121.069 106.285 120.239 110.966C119.93 112.707 120.181 115.976 125.313 118.393V118.413Z" fill="white"/>
</g>
<defs>
<clipPath id="clip0_696_125">
<rect width="294" height="307" fill="white"/>
</clipPath>
</defs>
</svg>
