<svg width="240" height="70" viewBox="0 0 240 70" fill="none" xmlns="http://www.w3.org/2000/svg">
<g clip-path="url(#clip0_643_279)">
<rect width="240" height="70" fill="white"/>
<path d="M0 35C0 15.67 15.67 0 35 0H205C224.33 0 240 15.67 240 35V35C240 54.33 224.33 70 205 70H35C15.67 70 0 54.33 0 35V35Z" fill="white"/>
<path d="M84.3242 28.3066V30.2734C84.3242 32.7227 84.3242 35.0791 83.5449 38.7344L81.1885 38.5117C81.5225 37.1016 81.708 35.8677 81.8379 34.7266L72.041 35.209L71.7441 33.3164L81.9492 32.9453C81.9956 32.0269 81.9956 31.1455 82.0049 30.2734V30.1992H72.2637V28.3066H84.3242ZM85.9014 39.7549V41.6846H70.501V39.7549H85.9014ZM101.432 26.8408V37.1387H99.1865V32.8525H97.7207V36.582H95.5127V27.1377H97.7207V30.96H99.1865V26.8408H101.432ZM94.0283 27.9727V32.9639H89.8906V34.4111C91.7368 34.4019 93.1099 34.3184 94.7148 34.04L94.9189 35.9141C92.9521 36.2666 91.2822 36.3223 88.7773 36.3223H87.6084V31.2197H91.7461V29.8281H87.5898V27.9727H94.0283ZM95.6611 37.3242C99.2236 37.3242 101.506 38.5303 101.524 40.4971C101.506 42.501 99.2236 43.707 95.6611 43.707C92.0801 43.707 89.8164 42.501 89.8164 40.4971C89.8164 38.5303 92.0801 37.3242 95.6611 37.3242ZM95.6611 39.1426C93.4531 39.1426 92.1729 39.6064 92.1914 40.4971C92.1729 41.4434 93.4531 41.9072 95.6611 41.9072C97.8506 41.9072 99.1309 41.4434 99.1309 40.4971C99.1309 39.6064 97.8506 39.1426 95.6611 39.1426ZM117.481 26.8223V43.7441H115.088V26.8223H117.481ZM108.315 28.0098C110.857 28.0098 112.75 30.3477 112.75 34.0215C112.75 37.7324 110.857 40.0518 108.315 40.0518C105.718 40.0518 103.825 37.7324 103.844 34.0215C103.825 30.3477 105.718 28.0098 108.315 28.0098ZM108.315 30.1436C106.998 30.1436 106.126 31.5166 106.126 34.0215C106.126 36.5449 106.998 37.8994 108.315 37.8994C109.596 37.8994 110.468 36.5449 110.468 34.0215C110.468 31.5166 109.596 30.1436 108.315 30.1436ZM132.752 28.2139V36.3223H124.644V28.2139H132.752ZM126.981 30.1064V34.4668H130.414V30.1064H126.981ZM137.539 26.8223V31.6836H139.821V33.6318H137.539V39.1426H135.164V26.8223H137.539ZM138.151 41.5176V43.4102H126.592V37.9365H128.948V41.5176H138.151ZM156.279 33.2236V35.1533H153.886V43.6699H151.511V26.8223H153.886V33.2236H156.279ZM143.458 28.4365V37.584C145.62 37.5562 147.939 37.3521 150.379 36.8604L150.62 38.8271C147.8 39.4023 145.054 39.5508 142.567 39.5508H141.102V28.4365H143.458ZM171.216 26.8223V43.7441H168.859V34.8379H166.132V32.9082H168.859V26.8223H171.216ZM165.186 28.2324V34.5596H159.935V37.8623C162.263 37.8438 164.239 37.7603 166.41 37.3799L166.596 39.3096C164.091 39.7178 161.79 39.8105 158.97 39.8105H157.578V32.6855H162.885V30.1436H157.541V28.2324H165.186ZM191.106 26.8223V33.2979H193.5V35.2461H191.106V43.6699H188.731V26.8223H191.106ZM186.598 28.5479C186.579 33.5947 184.612 37.9736 178.935 40.7568L177.599 38.9385C181.597 36.9346 183.74 34.2441 184.186 30.4775H178.563V28.5479H186.598ZM208.399 26.8223V43.707H206.006V26.8223H208.399ZM203.334 28.585C203.334 33.7061 201.534 37.9551 195.504 40.8125L194.261 38.9199C198.621 36.8604 200.542 34.1885 200.922 30.4404H195.17V28.585H203.334Z" fill="#2A2829"/>
<path d="M44.3924 23H30.6709C27.8291 23 25.5254 25.3025 25.5254 28.1429V41.8571C25.5254 44.6975 27.8291 47 30.6709 47H44.3924C47.2342 47 49.5379 44.6975 49.5379 41.8571V28.1429C49.5379 25.3025 47.2342 23 44.3924 23Z" fill="url(#paint0_radial_643_279)"/>
<path d="M44.3924 23H30.6709C27.8291 23 25.5254 25.3025 25.5254 28.1429V41.8571C25.5254 44.6975 27.8291 47 30.6709 47H44.3924C47.2342 47 49.5379 44.6975 49.5379 41.8571V28.1429C49.5379 25.3025 47.2342 23 44.3924 23Z" fill="url(#paint1_radial_643_279)"/>
<path d="M44.3924 23H30.6709C27.8291 23 25.5254 25.3025 25.5254 28.1429V41.8571C25.5254 44.6975 27.8291 47 30.6709 47H44.3924C47.2342 47 49.5379 44.6975 49.5379 41.8571V28.1429C49.5379 25.3025 47.2342 23 44.3924 23Z" fill="url(#paint2_radial_643_279)"/>
<path d="M43.5337 30.2857C43.5337 30.9958 42.9577 31.5714 42.2473 31.5714C41.5369 31.5714 40.9609 30.9958 40.9609 30.2857C40.9609 29.5756 41.5369 29 42.2473 29C42.9577 29 43.5337 29.5756 43.5337 30.2857Z" fill="white"/>
<path fill-rule="evenodd" clip-rule="evenodd" d="M37.5311 39.2858C39.8993 39.2858 41.8191 37.367 41.8191 35.0001C41.8191 32.6332 39.8993 30.7144 37.5311 30.7144C35.163 30.7144 33.2432 32.6332 33.2432 35.0001C33.2432 37.367 35.163 39.2858 37.5311 39.2858ZM37.5311 37.5715C38.952 37.5715 40.1039 36.4203 40.1039 35.0001C40.1039 33.5799 38.952 32.4286 37.5311 32.4286C36.1102 32.4286 34.9583 33.5799 34.9583 35.0001C34.9583 36.4203 36.1102 37.5715 37.5311 37.5715Z" fill="white"/>
<path fill-rule="evenodd" clip-rule="evenodd" d="M28.9551 34.6573C28.9551 31.777 28.9551 30.3369 29.5159 29.2368C30.0092 28.2691 30.7964 27.4823 31.7646 26.9892C32.8653 26.4287 34.3062 26.4287 37.1879 26.4287H37.874C40.7558 26.4287 42.1967 26.4287 43.2973 26.9892C44.2655 27.4823 45.0527 28.2691 45.546 29.2368C46.1069 30.3369 46.1069 31.777 46.1069 34.6573V35.343C46.1069 38.2233 46.1069 39.6634 45.546 40.7635C45.0527 41.7312 44.2655 42.518 43.2973 43.011C42.1967 43.5716 40.7558 43.5716 37.874 43.5716H37.1879C34.3062 43.5716 32.8653 43.5716 31.7646 43.011C30.7964 42.518 30.0092 41.7312 29.5159 40.7635C28.9551 39.6634 28.9551 38.2233 28.9551 35.343V34.6573ZM37.1879 28.143H37.874C39.3432 28.143 40.3419 28.1443 41.1139 28.2074C41.8659 28.2688 42.2505 28.3801 42.5187 28.5167C43.1641 28.8454 43.6889 29.3699 44.0178 30.015C44.1545 30.2831 44.2659 30.6675 44.3273 31.4191C44.3903 32.1907 44.3917 33.1888 44.3917 34.6573V35.343C44.3917 36.8115 44.3903 37.8096 44.3273 38.5812C44.2659 39.3328 44.1545 39.7172 44.0178 39.9853C43.6889 40.6304 43.1641 41.1549 42.5187 41.4836C42.2505 41.6202 41.8659 41.7315 41.1139 41.7929C40.3419 41.8559 39.3432 41.8573 37.874 41.8573H37.1879C35.7187 41.8573 34.7201 41.8559 33.948 41.7929C33.196 41.7315 32.8115 41.6202 32.5432 41.4836C31.8978 41.1549 31.373 40.6304 31.0441 39.9853C30.9075 39.7172 30.7961 39.3328 30.7347 38.5812C30.6716 37.8096 30.6703 36.8115 30.6703 35.343V34.6573C30.6703 33.1888 30.6716 32.1907 30.7347 31.4191C30.7961 30.6675 30.9075 30.2831 31.0441 30.015C31.373 29.3699 31.8978 28.8454 32.5432 28.5167C32.8115 28.3801 33.196 28.2688 33.948 28.2074C34.7201 28.1443 35.7187 28.143 37.1879 28.143Z" fill="white"/>
</g>
<defs>
<radialGradient id="paint0_radial_643_279" cx="0" cy="0" r="1" gradientUnits="userSpaceOnUse" gradientTransform="translate(34.1013 41) rotate(-55.3618) scale(21.8776 21.8817)">
<stop stop-color="#B13589"/>
<stop offset="0.79309" stop-color="#C62F94"/>
<stop offset="1" stop-color="#8A3AC8"/>
</radialGradient>
<radialGradient id="paint1_radial_643_279" cx="0" cy="0" r="1" gradientUnits="userSpaceOnUse" gradientTransform="translate(33.2437 47.8571) rotate(-65.1249) scale(19.3682 19.3748)">
<stop stop-color="#E0E8B7"/>
<stop offset="0.444662" stop-color="#FB8A2E"/>
<stop offset="0.71474" stop-color="#E2425C"/>
<stop offset="1" stop-color="#E2425C" stop-opacity="0"/>
</radialGradient>
<radialGradient id="paint2_radial_643_279" cx="0" cy="0" r="1" gradientUnits="userSpaceOnUse" gradientTransform="translate(24.239 23.8571) rotate(-8.12592) scale(33.3521 7.1301)">
<stop offset="0.156701" stop-color="#406ADC"/>
<stop offset="0.467799" stop-color="#6A45BE"/>
<stop offset="1" stop-color="#6A45BE" stop-opacity="0"/>
</radialGradient>
<clipPath id="clip0_643_279">
<rect width="240" height="70" fill="white"/>
</clipPath>
</defs>
</svg>
