<svg width="544" height="148" viewBox="0 0 544 148" fill="none" xmlns="http://www.w3.org/2000/svg">
<g clip-path="url(#clip0_643_250)">
<rect width="544" height="148" fill="white"/>
<rect width="544" height="148" rx="20" fill="#F7F9FC"/>
<path d="M93.1231 64.378C93.1231 64.378 93.112 64.378 93.1057 64.378C92.2814 64.378 91.6094 64.995 91.5998 65.7639C91.5158 72.7492 85.3436 78.4329 77.8383 78.4329C70.333 78.4329 64.0751 72.6843 64.0751 65.6178C64.0751 58.5513 70.249 52.8042 77.8383 52.8042C78.6704 52.8042 79.3441 52.1769 79.3441 51.4021C79.3441 50.6272 78.6704 50 77.8383 50C68.5894 50 61.0635 57.006 61.0635 65.6193C61.0635 74.2325 68.5878 81.2385 77.8383 81.2385C82.286 81.2385 86.4769 79.6342 89.6375 76.7223C92.7966 73.8119 94.5623 69.9318 94.6115 65.7964C94.621 65.0215 93.9537 64.3869 93.1231 64.3795V64.378Z" fill="#C4DCFF"/>
<path d="M56.4131 87.4884C55.5702 88.6106 56.0179 90.0694 57.7504 90.8308L75.3598 98.5724C76.0073 98.8569 76.7495 98.9998 77.4918 98.9998C78.2341 98.9998 78.9866 98.8557 79.6356 98.5676L97.2625 90.7545C98.9862 89.9907 99.4266 88.5356 98.5866 87.417C98.4481 87.492 98.3052 87.5647 98.155 87.6301L80.5281 95.4431C79.6166 95.8474 78.5666 96.0605 77.4904 96.0605C76.4141 96.0605 75.3787 95.8499 74.4702 95.4504L56.8623 87.71" fill="#C4DCFF"/>
<path d="M57.1122 85.655C57.3189 85.8083 57.5533 85.9478 57.8212 86.0696L58.0119 86.1563L75.4001 94.1045C76.0465 94.3997 76.7875 94.548 77.5285 94.548C78.2696 94.548 79.0208 94.3985 79.6686 94.0994L97.0627 86.0835L97.265 85.9905C97.5271 85.8699 97.7586 85.7317 97.9609 85.5809C98.2172 85.3912 98.4253 85.1813 98.5869 84.9577C99.2508 84.0393 99.1139 82.9022 98.1749 82.0742C98.1691 82.0767 98.1633 82.0805 98.156 82.083L95.2779 83.4098L94.2733 83.8722L93.2688 84.3345L80.5581 90.192C79.6482 90.6116 78.6 90.8327 77.5256 90.8327C76.4512 90.8327 75.4176 90.6141 74.5121 90.1995L61.8057 84.3923L60.7998 83.9325L59.7938 83.4726L56.9346 82.1659" fill="#C4DCFF"/>
<path d="M56.8277 79.9924C57.0567 80.1979 57.3352 80.3829 57.6604 80.5425C57.691 80.5578 57.7202 80.5731 57.7523 80.5884L58.6652 81.0122L61.7378 82.4366L62.7454 82.9038L63.7531 83.3709L75.3596 88.7508C76.007 89.0508 76.7493 89.2014 77.4916 89.2014C78.2338 89.2014 78.9863 89.0495 79.6352 88.7457L91.2475 83.3186L92.2537 82.8489L93.26 82.3792L96.3369 80.9407L97.2615 80.508C97.2877 80.4953 97.314 80.4812 97.3402 80.4685C97.6654 80.3089 97.944 80.1226 98.1729 79.9183C99.5233 78.7109 99.22 76.8563 97.2615 75.9399L93.6304 74.2423C92.7729 75.765 91.6238 77.169 90.2049 78.3982C86.8844 81.2738 82.4833 82.8578 77.8109 82.8578C70.7995 82.8578 64.7331 79.2546 61.8982 74.0547L57.726 76.0203C55.7778 76.938 55.4803 78.7888 56.8263 79.9924" fill="#C4DCFF"/>
<ellipse cx="77.7583" cy="65.4915" rx="14.8355" ry="14.4925" fill="#F6F9FF"/>
<path d="M86.8485 68.3406H77.6788C77.0385 68.3406 76.5186 67.8566 76.5186 67.2603V58.5423C76.5186 57.946 77.0385 57.4619 77.6788 57.4619C78.3192 57.4619 78.8391 57.946 78.8391 58.5423V66.18H86.85C87.4904 66.18 88.0103 66.664 88.0103 67.2603C88.0103 67.8566 87.4904 68.3406 86.85 68.3406H86.8485Z" fill="#C4DCFF"/>
<path d="M93.1231 64.378C93.1231 64.378 93.112 64.378 93.1057 64.378C92.2814 64.378 91.6093 64.995 91.5998 65.7639C91.5776 67.6752 91.0958 69.489 90.2589 71.1155C88.0366 75.4339 83.2893 78.4329 77.8383 78.4329C72.3872 78.4329 67.4561 75.3335 65.294 70.8896C64.511 69.2809 64.0751 67.4966 64.0751 65.6193C64.0751 58.5527 70.249 52.8042 77.8383 52.8042C78.6704 52.8042 79.3441 52.1769 79.3441 51.4021C79.3441 50.6273 78.6704 50 77.8383 50C68.5894 50 61.0635 57.006 61.0635 65.6193C61.0635 67.9777 61.6293 70.2152 62.6374 72.2209C65.3146 77.5429 71.1207 81.2371 77.8367 81.2371C82.2844 81.2371 86.4753 79.6328 89.6359 76.7209C91.0054 75.459 92.1134 74.0141 92.9329 72.4452C94.0028 70.3967 94.5829 68.1371 94.6099 65.7949C94.6194 65.0201 93.9521 64.3854 93.1215 64.378H93.1231Z" fill="#C4DCFF"/>
<path d="M82.6726 53.5533C83.5094 53.5533 84.1879 52.9216 84.1879 52.1424C84.1879 51.3631 83.5094 50.7314 82.6726 50.7314C81.8357 50.7314 81.1572 51.3631 81.1572 52.1424C81.1572 52.9216 81.8357 53.5533 82.6726 53.5533Z" fill="#C4DCFF"/>
<path d="M87.2115 55.7886C88.044 55.7886 88.7189 55.1602 88.7189 54.385C88.7189 53.6098 88.044 52.9814 87.2115 52.9814C86.379 52.9814 85.7041 53.6098 85.7041 54.385C85.7041 55.1602 86.379 55.7886 87.2115 55.7886Z" fill="#C4DCFF"/>
<path d="M90.5031 59.1114C91.3575 59.1114 92.0501 58.4665 92.0501 57.6709C92.0501 56.8754 91.3575 56.2305 90.5031 56.2305C89.6487 56.2305 88.9561 56.8754 88.9561 57.6709C88.9561 58.4665 89.6487 59.1114 90.5031 59.1114Z" fill="#C4DCFF"/>
<path d="M92.4313 62.9225C93.2682 62.9225 93.9467 62.2908 93.9467 61.5115C93.9467 60.7323 93.2682 60.1006 92.4313 60.1006C91.5944 60.1006 90.916 60.7323 90.916 61.5115C90.916 62.2908 91.5944 62.9225 92.4313 62.9225Z" fill="#C4DCFF"/>
<path d="M186.195 67H181.792V45.7845H186.195V67ZM188.951 45.7845H206.323V49.4309H199.828V67H195.467V49.4309H188.951V45.7845ZM237.384 69.7037H233.602V43.0186H237.384V69.7037ZM215.07 62.1519C217.349 61.0677 219.227 59.8695 220.705 58.5573C222.183 57.2452 223.316 55.788 224.103 54.1858C224.89 52.5767 225.384 50.7673 225.584 48.7576H216.5V45.826H229.397C229.39 48.6782 229.003 51.2714 228.236 53.6057C227.47 55.9399 226.175 58.0808 224.352 60.0283C222.535 61.9758 220.091 63.6747 217.017 65.125L215.07 62.1519ZM255.003 43.7438C254.996 44.6347 255.338 45.491 256.029 46.3128C256.726 47.1278 257.755 47.8287 259.116 48.4157C260.476 49.0028 262.113 49.3999 264.026 49.607L262.783 52.404C260.504 52.1554 258.529 51.6202 256.858 50.7983C255.186 49.9765 253.916 48.9441 253.045 47.701C252.168 48.9441 250.898 49.9765 249.233 50.7983C247.576 51.6202 245.621 52.1554 243.37 52.404L242.106 49.607C244.026 49.3999 245.666 49.0028 247.027 48.4157C248.387 47.8287 249.413 47.1278 250.103 46.3128C250.794 45.491 251.143 44.6347 251.15 43.7438V43.174H255.003V43.7438ZM240.915 53.5228H265.238V56.4544H254.9V58.2155H262.265V65.0939H247.41V66.6996H262.959V69.5173H243.743V62.4627H258.577V61.0435H243.722V58.2155H251.15V56.4544H240.915V53.5228ZM278.983 43.4123C281.028 43.4123 282.771 43.5884 284.215 43.9406C285.665 44.2859 286.77 44.797 287.53 45.4738C288.296 46.1506 288.68 46.9758 288.68 47.9496C288.68 48.9372 288.3 49.7728 287.54 50.4565C286.78 51.1402 285.675 51.6581 284.225 52.0104C282.782 52.3557 281.035 52.5283 278.983 52.5283C276.932 52.5283 275.182 52.3557 273.731 52.0104C272.281 51.6581 271.176 51.1402 270.416 50.4565C269.657 49.7728 269.277 48.9372 269.277 47.9496C269.277 46.9827 269.657 46.1609 270.416 45.4841C271.176 44.8004 272.281 44.2859 273.731 43.9406C275.182 43.5884 276.932 43.4123 278.983 43.4123ZM266.843 53.7921H291.166V56.7548H266.843V53.7921ZM269.65 58.288H288.193V65.0939H273.338V66.6996H288.887V69.5173H269.671V62.4834H284.505V61.0331H269.65V58.288ZM273.193 47.9496C273.186 48.3847 273.393 48.7369 273.814 49.0062C274.236 49.2756 274.871 49.4724 275.72 49.5967C276.57 49.7141 277.657 49.7762 278.983 49.7831C280.33 49.7762 281.428 49.7141 282.278 49.5967C283.134 49.4724 283.773 49.2756 284.194 49.0062C284.615 48.7369 284.826 48.3847 284.826 47.9496C284.826 47.3626 284.349 46.9171 283.396 46.6133C282.443 46.3025 281.003 46.1471 279.077 46.1471C277.102 46.1471 275.624 46.299 274.643 46.6029C273.662 46.9068 273.179 47.3557 273.193 47.9496ZM320.993 49.3273H324.412V52.4454H320.993V58.7231H317.253V43.0186H320.993V49.3273ZM299.384 55.8743C302.16 55.8743 304.322 55.857 305.869 55.8225V54.6416C304.391 54.4689 303.234 54.0856 302.398 53.4917C301.57 52.8909 301.159 52.1174 301.166 51.1713C301.166 50.4599 301.432 49.8488 301.963 49.3377C302.495 48.8198 303.251 48.4261 304.232 48.1568C305.22 47.8805 306.376 47.7424 307.702 47.7424C309.021 47.7424 310.171 47.8805 311.152 48.1568C312.133 48.4261 312.889 48.8198 313.421 49.3377C313.959 49.8488 314.229 50.4599 314.229 51.1713C314.222 52.1036 313.811 52.8702 312.996 53.471C312.181 54.0649 311.048 54.4517 309.598 54.6312V55.6878C311.932 55.5773 314.07 55.3943 316.01 55.1388L316.28 57.4593C314.526 57.7562 312.695 57.9772 310.789 58.1222C308.89 58.2604 307.098 58.3501 305.413 58.3916C303.728 58.4261 301.846 58.4434 299.767 58.4434L299.384 55.8743ZM300.088 44.7072H305.869V42.8115H309.598V44.7072H315.337V47.2141H300.088V44.7072ZM302.937 59.6865H320.993V65.6533H306.708V67.0207H321.884V69.5173H302.968V63.3847H317.264V62.1623H302.937V59.6865ZM304.74 51.1713C304.733 51.5718 304.985 51.8757 305.496 52.0829C306.007 52.2901 306.742 52.3936 307.702 52.3936C308.648 52.3936 309.374 52.2901 309.878 52.0829C310.389 51.8757 310.648 51.5718 310.655 51.1713C310.648 50.7983 310.392 50.5221 309.888 50.3425C309.384 50.1561 308.655 50.0628 307.702 50.0628C306.735 50.0628 305.997 50.1561 305.485 50.3425C304.981 50.5221 304.733 50.7983 304.74 51.1713ZM349.935 58.6609H325.612V55.6775H331.082V52.4662C330.101 52.0311 329.348 51.482 328.823 50.8191C328.299 50.1561 328.04 49.4033 328.046 48.5608C328.046 47.5041 328.44 46.5891 329.227 45.8156C330.022 45.0421 331.147 44.4482 332.605 44.0338C334.069 43.6195 335.785 43.4123 337.753 43.4123C339.714 43.4123 341.424 43.6195 342.881 44.0338C344.338 44.4482 345.464 45.0421 346.258 45.8156C347.052 46.5891 347.449 47.5041 347.449 48.5608C347.442 49.4171 347.169 50.1802 346.631 50.8501C346.099 51.5131 345.329 52.0622 344.321 52.4972V55.6775H349.935V58.6609ZM328.388 64.8453C328.388 63.8232 328.758 62.953 329.497 62.2348C330.243 61.5166 331.313 60.9744 332.708 60.6084C334.11 60.2355 335.781 60.049 337.722 60.049C339.642 60.049 341.296 60.2355 342.684 60.6084C344.079 60.9744 345.146 61.5166 345.885 62.2348C346.631 62.953 347.007 63.8232 347.014 64.8453C347.007 65.8743 346.631 66.7479 345.885 67.4662C345.146 68.1913 344.082 68.7403 342.694 69.1133C341.306 69.4862 339.649 69.6692 337.722 69.6623C335.774 69.6692 334.103 69.4862 332.708 69.1133C331.313 68.7403 330.243 68.1913 329.497 67.4662C328.758 66.7479 328.388 65.8743 328.388 64.8453ZM331.931 48.5608C331.924 49.2928 332.418 49.8453 333.413 50.2182C334.407 50.5912 335.854 50.7776 337.753 50.7776C339.638 50.7776 341.082 50.5912 342.083 50.2182C343.091 49.8453 343.596 49.2928 343.596 48.5608C343.596 47.8218 343.091 47.259 342.083 46.8722C341.075 46.4855 339.631 46.2921 337.753 46.2921C335.861 46.2921 334.414 46.4855 333.413 46.8722C332.418 47.259 331.924 47.8218 331.931 48.5608ZM332.201 64.8453C332.187 65.5152 332.636 66.0228 333.547 66.3681C334.459 66.7065 335.823 66.8757 337.639 66.8757C339.49 66.8757 340.888 66.7065 341.834 66.3681C342.781 66.0297 343.257 65.5221 343.264 64.8453C343.257 64.1823 342.791 63.692 341.866 63.3743C340.94 63.0497 339.559 62.8805 337.722 62.8667C335.864 62.8805 334.476 63.0497 333.558 63.3743C332.646 63.692 332.194 64.1823 332.201 64.8453ZM340.602 55.6775V53.4296C339.745 53.5401 338.796 53.5953 337.753 53.5953C336.689 53.5953 335.726 53.5401 334.863 53.4296V55.6775H340.602ZM372.693 51.2334H376.277V54.2997H372.693V62.9703H368.943V43.0601H372.693V51.2334ZM351.529 45.857H357.59V43.0186H361.319V45.857H367.358V48.799H351.529V45.857ZM352.835 54.9109C352.835 53.8957 353.114 52.9979 353.674 52.2175C354.233 51.4302 355.014 50.8225 356.015 50.3943C357.023 49.9593 358.17 49.7417 359.454 49.7417C360.725 49.7417 361.858 49.9593 362.852 50.3943C363.846 50.8225 364.62 51.4302 365.172 52.2175C365.732 52.9979 366.012 53.8957 366.012 54.9109C366.012 55.9192 365.732 56.8101 365.172 57.5836C364.62 58.3501 363.846 58.9441 362.852 59.3653C361.864 59.7866 360.732 59.9972 359.454 59.9972C358.163 59.9972 357.016 59.7866 356.015 59.3653C355.014 58.9441 354.233 58.3501 353.674 57.5836C353.114 56.8101 352.835 55.9192 352.835 54.9109ZM355.393 61.4268H359.123V66.2231H373.646V69.2376H355.393V61.4268ZM356.471 54.9109C356.471 55.6291 356.74 56.1851 357.279 56.5787C357.817 56.9655 358.543 57.1588 359.454 57.1588C360.366 57.1588 361.094 56.9655 361.64 56.5787C362.186 56.1851 362.462 55.6291 362.469 54.9109C362.462 54.1789 362.186 53.6126 361.64 53.212C361.094 52.8046 360.366 52.5974 359.454 52.5905C358.543 52.5974 357.817 52.8046 357.279 53.212C356.74 53.6126 356.471 54.1789 356.471 54.9109ZM195.663 84.2604H180.849V81.3184H186.588V78.7907H190.307V81.3184H195.663V84.2604ZM182.165 90.3308C182.158 89.3501 182.424 88.4731 182.963 87.6996C183.508 86.9192 184.258 86.3115 185.211 85.8764C186.164 85.4344 187.231 85.2134 188.412 85.2134C189.606 85.2134 190.68 85.4344 191.633 85.8764C192.593 86.3115 193.346 86.9192 193.892 87.6996C194.444 88.4731 194.724 89.3501 194.731 90.3308C194.724 91.2977 194.444 92.1678 193.892 92.9413C193.346 93.7148 192.593 94.3191 191.633 94.7541C190.673 95.1892 189.599 95.4068 188.412 95.4068C187.231 95.4068 186.164 95.1892 185.211 94.7541C184.258 94.3191 183.508 93.7148 182.963 92.9413C182.424 92.1609 182.158 91.2907 182.165 90.3308ZM184.941 97.2196H203.267V105.704H199.537V100.172H184.941V97.2196ZM185.646 90.3308C185.646 90.7866 185.76 91.1837 185.988 91.5221C186.222 91.8605 186.547 92.1195 186.961 92.299C187.383 92.4717 187.866 92.558 188.412 92.558C188.95 92.5649 189.434 92.4786 189.862 92.299C190.29 92.1126 190.628 91.8501 190.877 91.5117C191.133 91.1733 191.26 90.7797 191.26 90.3308C191.26 89.8612 191.136 89.4537 190.887 89.1084C190.639 88.7562 190.297 88.4903 189.862 88.3108C189.434 88.1243 188.95 88.0276 188.412 88.0207C187.866 88.0276 187.383 88.1243 186.961 88.3108C186.547 88.4903 186.222 88.7562 185.988 89.1084C185.76 89.4537 185.646 89.8612 185.646 90.3308ZM195.901 90.1547H199.537V87.9793H195.963V85.0269H199.537V79.0186H203.267V95.9662H199.537V93.1485H195.901V90.1547ZM229.039 98.5249H225.289V79.0601H229.039V98.5249ZM206.622 91.9365C208.058 91.453 209.256 90.7555 210.216 89.8439C211.183 88.9254 211.895 87.886 212.35 86.7258C212.813 85.5587 213.048 84.3467 213.055 83.0898V80.5207H216.929V83.0898C216.922 84.3122 217.14 85.4758 217.582 86.5808C218.031 87.6858 218.725 88.6664 219.664 89.5228C220.603 90.3791 221.777 91.0318 223.186 91.4807L221.28 94.4227C219.809 93.9323 218.549 93.2141 217.499 92.268C216.449 91.3149 215.62 90.1858 215.013 88.8805C214.398 90.2963 213.549 91.5221 212.464 92.558C211.387 93.5939 210.089 94.3709 208.569 94.8888L206.622 91.9365ZM211.169 96.6291H214.951V102.223H229.743V105.238H211.169V96.6291ZM248.026 83.4938H242.712C242.719 84.5711 242.947 85.6174 243.396 86.6326C243.844 87.6409 244.525 88.5525 245.436 89.3674C246.355 90.1754 247.491 90.8039 248.844 91.2528L247 94.1326C245.564 93.6768 244.331 92.9965 243.302 92.0919C242.273 91.1872 241.458 90.1133 240.858 88.8702C240.25 90.2445 239.404 91.4358 238.32 92.4441C237.242 93.4454 235.94 94.1913 234.414 94.6816L232.498 91.7293C233.907 91.2804 235.091 90.6243 236.051 89.761C237.011 88.8978 237.726 87.924 238.195 86.8398C238.665 85.7555 238.903 84.6402 238.91 83.4938H233.565V80.5207H248.026V83.4938ZM236.797 96.0905H255.122V105.704H251.393V99.0843H236.797V96.0905ZM247.259 85.4413H251.393V79.0186H255.122V94.9199H251.393V88.4972H247.259V85.4413ZM280.894 98.2244H277.144V79.0601H280.894V98.2244ZM258.985 87.4717C258.985 86.1941 259.306 85.0442 259.948 84.0221C260.591 83 261.468 82.1989 262.579 81.6188C263.691 81.0387 264.924 80.7486 266.278 80.7486C267.631 80.7486 268.861 81.0387 269.966 81.6188C271.077 82.1989 271.954 83 272.597 84.0221C273.239 85.0442 273.56 86.1941 273.56 87.4717C273.56 88.77 273.239 89.9337 272.597 90.9627C271.954 91.9917 271.077 92.7963 269.966 93.3764C268.861 93.9496 267.631 94.2362 266.278 94.2362C264.924 94.2362 263.691 93.9496 262.579 93.3764C261.468 92.7963 260.591 91.9917 259.948 90.9627C259.306 89.9337 258.985 88.77 258.985 87.4717ZM262.642 87.4717C262.635 88.1968 262.787 88.8253 263.097 89.357C263.415 89.8819 263.85 90.2859 264.403 90.5691C264.955 90.8453 265.58 90.9834 266.278 90.9834C266.954 90.9834 267.566 90.8453 268.111 90.5691C268.657 90.2859 269.085 89.8819 269.396 89.357C269.713 88.8253 269.872 88.1968 269.872 87.4717C269.872 86.7673 269.713 86.1526 269.396 85.6278C269.085 85.1029 268.657 84.7023 268.111 84.4261C267.566 84.143 266.954 84.0014 266.278 84.0014C265.58 84.0014 264.955 84.143 264.403 84.4261C263.85 84.7023 263.415 85.1029 263.097 85.6278C262.787 86.1526 262.635 86.7673 262.642 87.4717ZM263.025 96.2873H266.806V102.223H281.599V105.238H263.025V96.2873ZM314.523 105.704H310.929V92.2472H308.484V104.512H305.014V79.6091H308.484V89.2224H310.929V79.0186H314.523V105.704ZM291.34 97.9137C293.046 96.933 294.458 95.8833 295.577 94.7645C296.702 93.6388 297.59 92.413 298.239 91.087L292.003 91.7604L291.568 88.5801L299.275 88.1761C299.496 87.2714 299.651 86.2562 299.741 85.1305H292.956V82.1471H303.367C303.36 84.8819 303.077 87.3336 302.517 89.5021C301.958 91.6706 300.953 93.6872 299.503 95.5518C298.059 97.4095 296.053 99.0704 293.484 100.535L291.34 97.9137ZM331.377 82.5407C331.37 83.8667 331.746 85.1685 332.506 86.4461C333.265 87.7169 334.364 88.8218 335.8 89.761C337.236 90.6934 338.925 91.3253 340.866 91.6568L339.218 94.7645C337.692 94.4606 336.29 93.9807 335.013 93.3246C333.742 92.6685 332.634 91.8709 331.687 90.9316C330.741 89.9924 329.978 88.9496 329.398 87.8032C328.811 88.9427 328.041 89.982 327.088 90.9213C326.135 91.8605 325.02 92.6616 323.742 93.3246C322.471 93.9807 321.08 94.4606 319.567 94.7645L317.962 91.6568C319.868 91.3184 321.532 90.6796 322.955 89.7403C324.384 88.7942 325.479 87.6858 326.239 86.4151C326.998 85.1443 327.381 83.8529 327.388 82.5407V80.6243H331.377V82.5407ZM317.35 99.3536H341.736V102.43H317.35V99.3536ZM357.657 83.8564H348.499V85.9593H356.88V88.8494H348.499V90.9938C351.158 90.9938 353.271 90.9558 354.839 90.8798C356.407 90.8039 357.971 90.6347 359.532 90.3722L359.905 93.3039C358.219 93.5801 356.507 93.7631 354.766 93.8529C353.026 93.9427 350.75 93.9876 347.94 93.9876H347.038H344.728V80.8936H357.657V83.8564ZM347.339 100.638C347.339 99.5815 347.705 98.6733 348.437 97.9137C349.176 97.154 350.233 96.5739 351.607 96.1733C352.988 95.7728 354.628 95.5725 356.527 95.5725C358.399 95.5725 360.025 95.7728 361.407 96.1733C362.788 96.5739 363.851 97.154 364.597 97.9137C365.35 98.6733 365.726 99.5815 365.726 100.638C365.726 101.695 365.35 102.603 364.597 103.363C363.851 104.122 362.788 104.699 361.407 105.093C360.025 105.493 358.399 105.693 356.527 105.693C354.628 105.693 352.988 105.497 351.607 105.103C350.233 104.709 349.176 104.133 348.437 103.373C347.705 102.613 347.339 101.702 347.339 100.638ZM351.079 100.638C351.072 101.363 351.527 101.912 352.446 102.285C353.371 102.658 354.732 102.848 356.527 102.855C358.302 102.848 359.656 102.658 360.588 102.285C361.521 101.912 361.987 101.363 361.987 100.638C361.987 99.9199 361.517 99.3743 360.578 99.0014C359.646 98.6285 358.295 98.442 356.527 98.442C354.739 98.442 353.382 98.6285 352.456 99.0014C351.531 99.3743 351.072 99.9199 351.079 100.638ZM361.842 79.0601H365.592V95.1996H361.842V79.0601ZM393.414 85.0684C393.407 86.7396 393.656 88.3522 394.16 89.9061C394.664 91.4599 395.42 92.8412 396.428 94.0497C397.444 95.2583 398.683 96.1699 400.147 96.7845L397.941 99.7783C396.456 99.1015 395.178 98.1347 394.108 96.8778C393.037 95.6209 392.191 94.143 391.57 92.4441C390.948 94.3018 390.082 95.9178 388.97 97.2921C387.865 98.6664 386.522 99.7127 384.94 100.431L382.682 97.3232C384.187 96.6878 385.458 95.7417 386.494 94.4848C387.53 93.2279 388.307 91.788 388.825 90.1651C389.35 88.5352 389.615 86.8363 389.622 85.0684V81.0801H393.414V85.0684ZM401.566 79.0186H405.348V105.766H401.566V79.0186ZM430.115 86.4876H433.699V89.5746H430.115V98.1416H426.313V79.0186H430.115V86.4876ZM408.786 92.5787C410.747 92.0331 412.435 91.3356 413.851 90.4862C415.267 89.6298 416.382 88.663 417.197 87.5856C418.019 86.5014 418.53 85.3308 418.73 84.0739H409.946V81.018H422.833C422.833 83.4075 422.349 85.5587 421.382 87.4717C420.415 89.3778 419 91.011 417.135 92.3715C415.277 93.7251 413.012 94.7818 410.339 95.5414L408.786 92.5787ZM412.753 96.1837H416.545V102.223H431.016V105.238H412.753V96.1837ZM462.957 86.3115H466.562V89.3881H462.957V98.3177H459.207V79.0394H462.957V86.3115ZM442.839 81.1733H454.856V84.1568H446.558V90.9006C449.058 90.8867 451.065 90.8246 452.577 90.7141C454.096 90.6036 455.578 90.393 457.021 90.0822L457.415 93.076C455.785 93.4075 454.086 93.6319 452.318 93.7493C450.55 93.8598 448.133 93.9151 445.067 93.9151H442.839V81.1733ZM445.657 96.2562H449.386V102.223H463.91V105.238H445.657V96.2562ZM492.054 95.1167H481.706V97.4268H489.092V105.662H485.352V100.4H470.425V97.4268H477.997V95.1167H467.731V92.154H492.054V95.1167ZM468.757 88.4144C470.608 88.2901 472.175 88.0345 473.46 87.6478C474.744 87.2541 475.732 86.7776 476.423 86.2182C477.113 85.6519 477.538 85.0338 477.697 84.3639H470.062V81.4738H477.997V79.0497H481.706V81.4738H489.693V84.3639H481.996C482.148 85.0338 482.566 85.6519 483.249 86.2182C483.94 86.7776 484.931 87.2541 486.222 87.6478C487.514 88.0345 489.092 88.2901 490.956 88.4144L489.807 91.2113C487.382 91.0387 485.328 90.6174 483.643 89.9475C481.958 89.2707 480.694 88.3833 479.851 87.2852C479.002 88.3833 477.731 89.2707 476.039 89.9475C474.354 90.6174 472.303 91.0387 469.886 91.2113L468.757 88.4144Z" fill="#C4DCFF"/>
</g>
<defs>
<clipPath id="clip0_643_250">
<rect width="544" height="148" fill="white"/>
</clipPath>
</defs>
</svg>
