<svg width="521" height="639" viewBox="0 0 521 639" fill="none" xmlns="http://www.w3.org/2000/svg">
<rect x="1" y="1" width="520" height="638" rx="40" fill="white"/>
<path d="M486.968 215.277L342.438 189.307C332.046 187.439 322.131 194.475 320.291 205.022L280.195 434.87C278.355 445.417 285.288 455.48 295.679 457.347L440.209 483.317C450.601 485.185 460.516 478.149 462.356 467.602L502.452 237.754C504.292 227.207 497.359 217.144 486.968 215.277Z" fill="#BCCAE1"/>
<path d="M172.856 202.861L34.9592 227.64C25.0406 229.422 18.4236 239.027 20.1796 249.094L58.4673 468.575C60.2234 478.642 69.6875 485.358 79.6061 483.575L217.503 458.797C227.421 457.015 234.038 447.41 232.282 437.343L193.995 217.861C192.239 207.795 182.774 201.079 172.856 202.861Z" fill="#BCCAE1"/>
<path d="M324.076 157.879H183.702C173.603 157.879 165.417 166.187 165.417 176.436V399.857C165.417 410.106 173.603 418.415 183.702 418.415H324.076C334.174 418.415 342.361 410.106 342.361 399.857V176.436C342.361 166.187 334.174 157.879 324.076 157.879Z" fill="#BCCAE1"/>
<path d="M479.236 212.9L339.353 187.765C329.289 185.956 319.685 192.771 317.903 202.985L279.064 425.63C277.282 435.844 283.997 445.591 294.061 447.399L433.944 472.534C444.009 474.343 453.612 467.528 455.394 457.314L494.233 234.669C496.015 224.455 489.301 214.708 479.236 212.9Z" fill="white" stroke="#2881DD" stroke-width="3" stroke-miterlimit="10"/>
<path d="M302.143 408.533L316.454 411.83C319.953 412.636 323.433 410.411 324.227 406.86L327.476 392.335C328.27 388.784 326.078 385.253 322.579 384.447L308.268 381.149C304.769 380.343 301.289 382.568 300.495 386.119L297.246 400.644C296.452 404.195 298.644 407.727 302.143 408.533Z" fill="#D5E6FF" stroke="#2881DD" stroke-width="2" stroke-linecap="round" stroke-linejoin="round"/>
<path d="M444.388 413.465L375.562 397.603" stroke="#2881DD" stroke-width="3" stroke-linecap="round" stroke-linejoin="round"/>
<path d="M441.938 424.453L373.111 408.591" stroke="#2881DD" stroke-width="3" stroke-linecap="round" stroke-linejoin="round"/>
<path d="M438.939 437.864L393.782 427.458" stroke="#2881DD" stroke-width="3" stroke-linecap="round" stroke-linejoin="round"/>
<path d="M415.619 241.678C417.007 238.353 416.137 234.193 413.546 231.723C413.5 234.503 412.149 237.226 409.984 238.916C410.261 236.578 408.864 234.136 406.717 233.235C407.763 235.733 407.124 238.86 405.19 240.729" stroke="#2881DD" stroke-width="2.58" stroke-linecap="round" stroke-linejoin="round"/>
<path d="M463.26 323.611C469.848 294.158 444.629 263.241 406.932 254.555C369.236 245.87 333.336 262.706 326.748 292.159C320.16 321.612 345.379 352.529 383.076 361.214C420.772 369.899 456.672 353.063 463.26 323.611Z" fill="white" stroke="#2881DD" stroke-width="2.42" stroke-miterlimit="10"/>
<path d="M444.639 279.328C444.51 277.309 445.111 275.045 446.287 273.562C446.287 273.618 446.305 273.674 446.314 273.721C446.795 276.98 446.583 280.182 445.713 283C445.074 281.929 444.713 280.605 444.63 279.328H444.639Z" fill="#CCCCCC"/>
<path d="M430.685 343.677C430.231 344.156 430.24 344.926 430.722 345.386C431.962 346.598 432.924 348.11 433.507 349.753C434.155 351.566 434.358 353.585 434.552 355.529C434.58 355.848 434.747 356.111 434.96 356.308C420.413 362.046 401.795 364.441 383.696 360.271C364.097 355.754 346.21 343.564 335.504 330.623C336.79 328.848 340.529 328.012 342.092 326.5C343.841 324.8 345.664 323.711 347.506 323.251C348.144 323.091 348.533 322.433 348.375 321.785C348.264 321.316 347.894 320.987 347.45 320.893C348.884 320.405 350.291 320.057 351.494 320.593C351.475 321.091 351.762 321.569 352.253 321.767C360.312 324.866 369.057 325.373 377.514 325.861C386.037 326.359 394.837 326.866 402.73 330.078C405.191 331.083 407.634 332.379 409.994 333.637C413.862 335.694 417.85 337.807 422.171 338.803C423.041 339 423.93 339.16 424.836 339.263C425.16 339.3 425.456 339.197 425.697 339.009C427.834 340.071 429.926 341.282 431.082 343.414C430.934 343.48 430.796 343.564 430.675 343.696L430.685 343.677Z" fill="#D5E6FF"/>
<path d="M448.747 295.377C455.039 302.102 457.269 312.47 454.308 321.251C454.419 319.316 453.624 317.335 452.189 316.048C452.911 321.814 450.644 327.881 446.332 331.703C442.02 335.526 435.792 336.991 430.259 335.497" stroke="#2881DD" stroke-width="2.58" stroke-linecap="round" stroke-linejoin="round"/>
<path d="M451.968 289.396L448.517 291.903" stroke="#2881DD" stroke-width="2.58" stroke-linecap="round" stroke-linejoin="round"/>
<path d="M448.766 285.319L448.035 287.846" stroke="#2881DD" stroke-width="2.58" stroke-linecap="round" stroke-linejoin="round"/>
<path d="M352.114 266.367L355.362 268.142" stroke="#2881DD" stroke-width="2.58" stroke-linecap="round" stroke-linejoin="round"/>
<path d="M357.888 264.208L357.563 265.654" stroke="#2881DD" stroke-width="2.58" stroke-linecap="round" stroke-linejoin="round"/>
<path d="M424.846 338.014C416.999 337.141 410.373 331.9 403.045 328.914C387.147 322.434 368.566 326.754 352.549 320.593" stroke="#2881DD" stroke-width="2.58" stroke-linecap="round" stroke-linejoin="round"/>
<path d="M449.839 285.601C449.756 285.151 449.441 284.756 448.979 284.615C448.359 284.418 447.711 284.775 447.479 285.376C447.415 285.348 447.35 285.31 447.285 285.282C448.608 281.713 449.016 277.572 448.396 273.364C448.331 272.914 448.248 272.463 448.155 272.012C448.201 272.003 448.238 271.975 448.285 271.965C448.701 271.881 449.136 271.89 449.58 271.984C450.404 272.172 451.227 272.688 451.856 273.44C452.865 274.642 453.318 276.248 453.605 277.515C454.086 279.657 454.086 281.178 453.605 282.474C453.004 284.08 451.495 285.292 449.839 285.601Z" fill="#2881DD"/>
<path d="M353.382 271.777C344.582 272.998 337.096 280.793 336.124 289.752C337.808 287.545 340.325 286.015 343.036 285.536C339.835 289.771 338.447 295.369 339.307 300.637C340.159 305.906 343.24 310.761 347.608 313.729" stroke="#2881DD" stroke-width="2.58" stroke-linecap="round" stroke-linejoin="round"/>
<path d="M431.406 344.485C432.776 345.828 433.84 347.491 434.488 349.313C435.182 351.247 435.394 353.323 435.598 355.379" stroke="#2881DD" stroke-width="2.58" stroke-linecap="round" stroke-linejoin="round"/>
<path d="M347.09 322.03C344.832 322.594 342.815 323.946 341.131 325.58C339.446 327.214 338.058 329.13 336.68 331.037" stroke="#2881DD" stroke-width="2.58" stroke-linecap="round" stroke-linejoin="round"/>
<path d="M394.652 288.569C393.107 286.465 392.94 283.619 394.976 281.976C396.781 280.53 399.732 280.361 402.397 280.624C404.84 280.868 407.32 281.422 409.328 282.605C411.336 283.798 412.789 285.704 412.622 287.601C412.456 289.536 410.661 291.123 408.505 291.987C406.395 292.842 402.805 293.828 400.528 292.973C398.252 292.119 395.892 290.25 394.643 288.55L394.652 288.569Z" fill="#2881DD" stroke="#2881DD" stroke-width="1.29" stroke-miterlimit="10"/>
<path d="M360.146 249.886L360.414 249.764L360.451 249.595C361.145 249.163 364.495 249.012 365.522 249.247C365.614 249.266 365.688 249.294 365.735 249.322C365.883 249.444 365.929 249.707 365.92 250.036C365.855 250.111 365.799 250.186 365.744 250.261L365.772 254.572L362.45 260.047L360.516 260.686C360.516 260.686 360.581 260.77 360.618 260.808C360.173 261.005 359.711 261.118 359.239 261.109L358.045 261.503C358.045 261.503 356.046 258.46 356.037 257.934C356.037 257.85 356.139 257.615 356.305 257.286C356.287 257.004 356.278 256.713 356.296 256.432C356.454 253.502 357.971 250.938 360.155 249.905L360.146 249.886Z" fill="#2881DD"/>
<path d="M392.885 270.049C391.534 266.311 390.183 262.582 388.832 258.845" stroke="#757575" stroke-width="2" stroke-miterlimit="10"/>
<path d="M392.533 270.753C392.292 270.274 391.672 270.133 391.145 270.199C390.617 270.264 390.108 270.462 389.581 270.433C388.674 270.386 387.924 269.644 387.573 268.799C387.221 267.954 387.193 267.015 387.166 266.095C387.11 264.066 387.055 262.028 386.999 260" stroke="#757575" stroke-width="2" stroke-miterlimit="10"/>
<path d="M395.772 240.194C388.739 238.963 381.3 240.259 375.072 243.809C368.845 247.359 363.885 253.126 361.257 259.859" stroke="#2881DD" stroke-width="2.58" stroke-linecap="round" stroke-linejoin="round"/>
<path d="M359.748 249.304C357.175 250.525 355.695 253.464 355.537 256.347C355.426 258.385 356.139 260.761 358.017 261.485C359.553 262.076 361.339 261.287 362.431 260.029C363.523 258.77 364.06 257.146 364.569 255.559C365.05 254.065 367.262 249.886 365.929 248.787C365.281 248.252 359.924 248.459 359.739 249.304H359.748Z" stroke="#2881DD" stroke-width="1.29" stroke-miterlimit="10"/>
<path d="M449.127 285.79C451.274 285.799 453.346 284.353 454.105 282.315C454.707 280.699 454.512 278.887 454.133 277.197C453.8 275.703 453.3 274.191 452.329 273.027C451.357 271.862 449.793 271.083 448.313 271.402C445.194 272.069 443.704 276.117 443.908 279.347C444.112 282.578 445.935 285.78 449.127 285.799V285.79Z" stroke="#2881DD" stroke-width="1.29" stroke-miterlimit="10"/>
<path d="M344.119 286.306C341.131 290.26 339.826 295.556 340.622 300.468C341.417 305.389 344.323 309.981 348.404 312.752C348.95 313.128 349.098 313.879 348.728 314.433C348.709 314.461 348.691 314.471 348.672 314.499C350.31 316.048 350.541 318.133 351.8 319.824C352.124 319.457 352.642 319.298 353.114 319.486C360.831 322.453 369.391 322.951 377.663 323.43C386.38 323.937 395.383 324.454 403.637 327.816C406.21 328.868 408.708 330.192 411.123 331.469C415.787 333.948 420.192 336.287 425.124 336.831C425.651 336.888 426.031 337.263 426.142 337.742C427.733 337.639 429.316 337.301 430.805 336.85C430.787 336.85 430.778 336.85 430.759 336.85C430.537 336.803 430.315 336.747 430.093 336.681C429.454 336.512 429.075 335.845 429.251 335.197C429.417 334.549 430.102 334.174 430.713 334.343C435.849 335.742 441.706 334.343 445.685 330.812C449.673 327.28 451.811 321.552 451.144 316.227C451.08 315.729 451.329 315.241 451.774 315.006C452.218 314.771 452.755 314.837 453.125 315.175C453.578 315.588 453.985 316.058 454.318 316.565C455.299 309.315 452.986 301.567 448.017 296.251C447.563 295.763 447.582 295.002 448.063 294.542C448.359 294.26 448.757 294.176 449.127 294.26C449.21 293.819 449.275 293.377 449.322 292.936C449.035 293.133 448.692 293.199 448.378 293.124C448.1 293.058 447.85 292.899 447.674 292.645C447.295 292.1 447.415 291.349 447.952 290.955L449.247 290.015C449.173 289.593 449.072 289.18 448.933 288.776C448.655 289.02 448.276 289.151 447.896 289.057C447.869 289.057 447.85 289.048 447.822 289.039C447.193 288.851 446.823 288.175 447.008 287.536L447.378 286.249C447.295 286.165 447.193 286.09 447.101 286.015C446.999 286.249 446.897 286.484 446.786 286.71C446.536 287.198 446.009 287.442 445.491 287.339L446.897 282.906C446.897 282.906 448.239 275.769 448.193 275.374C448.156 274.97 446.397 268.434 446.397 268.434C446.397 268.434 445.935 268.781 445.231 269.298C444.5 266.978 443.464 264.584 442.076 262.048C439.504 257.324 436.654 253.746 433.387 251.107C429.575 248.026 425.133 246.317 420.904 246.298C420.247 246.298 419.711 245.754 419.72 245.078C419.72 244.683 419.923 244.345 420.22 244.12C419.035 243.5 417.684 243.049 416.389 242.692C416.065 242.918 415.648 243.002 415.26 242.824C414.991 242.711 414.797 242.495 414.677 242.251C414.519 241.941 414.482 241.575 414.621 241.237C415.473 239.189 415.334 236.747 414.362 234.747C413.724 236.776 412.493 238.588 410.809 239.903C410.429 240.203 409.902 240.232 409.495 239.997C409.078 239.753 408.847 239.283 408.903 238.795C408.995 238.015 408.838 237.208 408.495 236.484C408.338 238.41 407.515 240.279 406.117 241.631C405.821 241.922 405.405 242.025 405.025 241.931C404.803 241.885 404.6 241.762 404.424 241.584C403.989 241.124 403.998 240.41 404.424 239.941C402.175 240.157 399.547 240.279 397.049 240.166C397.049 240.25 397.067 240.335 397.049 240.419C396.938 241.077 396.318 241.518 395.67 241.406C388.86 240.213 381.79 241.443 375.757 244.88C371.935 247.059 368.641 250.064 366.096 253.633C365.976 253.943 365.846 254.253 365.726 254.535C365.523 255.023 365.347 255.455 365.245 255.765C364.736 257.324 364.172 259.08 362.987 260.442C362.09 261.475 360.665 262.311 359.184 262.292C359.073 262.668 358.953 263.034 358.814 263.381C359.101 263.663 359.249 264.076 359.156 264.499L358.832 265.936C358.684 266.584 358.046 266.997 357.407 266.847C357.148 266.79 356.945 266.631 356.778 266.443C356.556 266.687 356.334 266.922 356.103 267.147C356.621 267.485 356.806 268.162 356.51 268.725C356.251 269.213 355.705 269.448 355.196 269.336C355.094 269.307 354.992 269.27 354.89 269.223L354.298 268.904C353.724 269.476 353.179 270.059 352.707 270.716C352.91 270.679 353.114 270.632 353.317 270.603C353.974 270.519 354.576 270.979 354.659 271.636C354.752 272.303 354.289 272.914 353.641 272.998C346.655 273.965 340.446 279.506 338.197 286.287C339.622 285.329 341.242 284.662 342.926 284.362C343.407 284.277 343.897 284.503 344.147 284.925C344.406 285.348 344.369 285.893 344.073 286.287L344.119 286.306ZM428.177 299.548L428.363 298.355C432.184 298.956 435.83 300.543 438.893 302.929L438.162 303.886C435.256 301.614 431.805 300.12 428.177 299.548ZM426.142 304.619L426.466 303.454C428.557 304.055 430.454 305.333 431.805 307.051L430.87 307.803C429.677 306.272 427.992 305.145 426.142 304.619ZM380.004 293.396L380.698 292.41C389.507 298.787 398.539 297.744 400.491 297.425L401.102 293.772C400.889 293.725 400.676 293.659 400.482 293.584C398.206 292.739 395.735 290.879 394.328 288.954C392.7 286.738 392.33 283.479 394.763 281.526C396.42 280.192 399.057 279.694 402.61 280.051C405.59 280.342 407.94 281.018 409.791 282.117C412.178 283.535 413.557 285.667 413.381 287.696C413.205 289.696 411.531 291.527 408.893 292.598C406.932 293.387 404.405 294.035 402.305 293.932L401.666 297.754C407.302 304.149 417.758 301.961 417.869 301.933L418.119 303.116C417.823 303.182 413.353 304.121 408.56 303.022C405.84 302.393 403.027 301.097 400.815 298.608C399.64 298.824 395.633 299.388 390.525 298.214C387.314 297.472 383.669 296.045 380.013 293.406L380.004 293.396ZM368.067 283.657C370.991 282.859 374.184 283.254 376.821 284.747L376.238 285.808C373.86 284.465 371.001 284.108 368.373 284.831L368.058 283.657H368.067ZM366.457 276.924C371.352 276.736 376.349 278.079 380.522 280.69L379.893 281.723C375.923 279.234 371.158 277.966 366.494 278.135L366.448 276.924H366.457Z" fill="#D5E6FF"/>
<path d="M445.61 286.118C447.544 282.277 447.988 277.778 447.359 273.515C446.729 269.251 445.082 265.194 443.019 261.419C440.696 257.155 437.791 253.154 434.034 250.111C430.277 247.078 425.613 245.059 420.811 245.04" stroke="#2881DD" stroke-width="2.58" stroke-linecap="round" stroke-linejoin="round"/>
<path d="M380.078 281.178C375.988 278.623 371.148 277.327 366.346 277.506" stroke="#2881DD" stroke-width="1.29" stroke-linecap="round" stroke-linejoin="round"/>
<path d="M376.396 285.244C373.897 283.826 370.843 283.45 368.086 284.211" stroke="#2881DD" stroke-width="1.29" stroke-linecap="round" stroke-linejoin="round"/>
<path d="M438.383 303.37C435.403 301.041 431.841 299.5 428.13 298.909" stroke="#2881DD" stroke-width="1.29" stroke-linecap="round" stroke-linejoin="round"/>
<path d="M431.193 307.398C429.916 305.773 428.13 304.571 426.159 304.008" stroke="#2881DD" stroke-width="1.29" stroke-linecap="round" stroke-linejoin="round"/>
<path d="M401.814 292.241L400.87 297.914C400.87 297.914 390.46 300.299 380.207 292.87" stroke="#2881DD" stroke-width="1.29" stroke-linecap="round" stroke-linejoin="round"/>
<path d="M417.841 302.487C417.841 302.487 406.765 304.92 400.88 297.914" stroke="#2881DD" stroke-width="1.29" stroke-linecap="round" stroke-linejoin="round"/>
<path d="M390.384 280.535C390.847 279.456 388.863 277.538 385.954 276.252C383.044 274.966 380.31 274.799 379.846 275.878C379.383 276.958 381.367 278.875 384.276 280.161C387.186 281.447 389.92 281.615 390.384 280.535Z" fill="#2881DD" stroke="#2881DD" stroke-width="0.32" stroke-miterlimit="10"/>
<path d="M430.229 289.539C430.27 288.363 427.733 287.315 424.561 287.2C421.389 287.085 418.785 287.945 418.743 289.122C418.702 290.299 421.239 291.346 424.411 291.461C427.582 291.576 430.187 290.716 430.229 289.539Z" fill="#2881DD" stroke="#2881DD" stroke-width="0.32" stroke-miterlimit="10"/>
<path d="M179.555 188.305L39.6717 213.44C29.6071 215.248 22.8928 224.995 24.6746 235.209L63.514 457.854C65.2959 468.068 74.8993 474.883 84.9639 473.074L224.847 447.939C234.911 446.131 241.626 436.384 239.844 426.17L201.004 203.525C199.223 193.311 189.619 186.496 179.555 188.305Z" fill="white" stroke="#2881DD" stroke-width="3" stroke-miterlimit="10"/>
<path d="M211.596 389.197L197.036 391.069C193.477 391.526 190.957 394.826 191.408 398.438L193.253 413.215C193.704 416.827 196.954 419.384 200.513 418.926L215.073 417.054C218.632 416.597 221.152 413.298 220.701 409.685L218.857 394.909C218.406 391.297 215.155 388.739 211.596 389.197Z" fill="#D5E6FF" stroke="#2881DD" stroke-width="2" stroke-linecap="round" stroke-linejoin="round"/>
<path d="M75.752 416.799L144.773 401.885" stroke="#2881DD" stroke-width="3" stroke-linecap="round" stroke-linejoin="round"/>
<path d="M78.0654 427.824L147.087 412.901" stroke="#2881DD" stroke-width="3" stroke-linecap="round" stroke-linejoin="round"/>
<path d="M80.8867 441.273L126.164 431.487" stroke="#2881DD" stroke-width="3" stroke-linecap="round" stroke-linejoin="round"/>
<path d="M106.787 245.425C105.445 242.082 106.361 237.931 108.989 235.499C108.989 238.278 110.313 241.021 112.459 242.739C112.209 240.401 113.644 237.978 115.8 237.104C114.726 239.593 115.319 242.721 117.225 244.618" stroke="#2881DD" stroke-width="2.58" stroke-linecap="round" stroke-linejoin="round"/>
<path d="M137.741 365.405C175.549 357.234 201.175 326.664 194.978 297.124C188.78 267.584 153.107 250.26 115.298 258.431C77.4896 266.601 51.8638 297.171 58.0611 326.711C64.2584 356.251 99.9321 373.575 137.741 365.405Z" fill="white" stroke="#2881DD" stroke-width="2.42" stroke-miterlimit="10"/>
<path d="M77.2687 282.68C77.426 280.661 76.8523 278.388 75.6956 276.886C75.6956 276.942 75.6771 276.998 75.6678 277.045C75.1404 280.295 75.3162 283.497 76.1398 286.333C76.7968 285.272 77.1669 283.957 77.2687 282.68Z" fill="#CCCCCC"/>
<path d="M90.3718 347.209C90.8253 347.697 90.7975 348.467 90.3163 348.918C89.0578 350.111 88.077 351.604 87.4755 353.238C86.8093 355.041 86.5779 357.06 86.3559 359.004C86.3188 359.323 86.1615 359.586 85.9395 359.774C100.403 365.71 118.993 368.358 137.139 364.432C156.793 360.187 174.846 348.232 185.719 335.441C184.461 333.647 180.731 332.765 179.186 331.224C177.465 329.506 175.651 328.388 173.81 327.9C173.171 327.731 172.792 327.073 172.959 326.425C173.079 325.956 173.449 325.637 173.893 325.552C172.468 325.045 171.062 324.679 169.849 325.195C169.849 325.693 169.572 326.172 169.081 326.35C160.985 329.346 152.231 329.731 143.773 330.107C135.251 330.483 126.432 330.877 118.502 333.986C116.032 334.953 113.57 336.221 111.192 337.442C107.296 339.442 103.28 341.499 98.9498 342.438C98.0707 342.626 97.1823 342.766 96.2755 342.86C95.9516 342.889 95.6555 342.785 95.4242 342.597C93.2682 343.63 91.1584 344.814 89.9832 346.927C90.1312 346.993 90.27 347.086 90.3903 347.209H90.3718Z" fill="#D5E6FF"/>
<path d="M72.9472 298.674C66.5623 305.314 64.2027 315.644 67.0435 324.463C66.951 322.519 67.7838 320.556 69.2273 319.288C68.4315 325.045 70.6153 331.14 74.8811 335.018C79.147 338.897 85.3467 340.456 90.8988 339.029" stroke="#2881DD" stroke-width="2.58" stroke-linecap="round" stroke-linejoin="round"/>
<path d="M69.8105 292.645L73.2343 295.199" stroke="#2881DD" stroke-width="2.58" stroke-linecap="round" stroke-linejoin="round"/>
<path d="M73.0684 288.606L73.7624 291.142" stroke="#2881DD" stroke-width="2.58" stroke-linecap="round" stroke-linejoin="round"/>
<path d="M169.961 270.969L166.686 272.697" stroke="#2881DD" stroke-width="2.58" stroke-linecap="round" stroke-linejoin="round"/>
<path d="M164.215 268.743L164.521 270.189" stroke="#2881DD" stroke-width="2.58" stroke-linecap="round" stroke-linejoin="round"/>
<path d="M96.2842 341.63C104.14 340.86 110.831 335.714 118.196 332.831C134.177 326.566 152.702 331.14 168.803 325.195" stroke="#2881DD" stroke-width="2.58" stroke-linecap="round" stroke-linejoin="round"/>
<path d="M71.9856 288.879C72.0689 288.428 72.3927 288.034 72.8554 287.902C73.4754 287.714 74.1231 288.081 74.3452 288.691C74.41 288.663 74.4748 288.625 74.5395 288.597C73.2626 285.01 72.9109 280.859 73.5864 276.661C73.6605 276.21 73.7437 275.759 73.8363 275.308C73.79 275.299 73.753 275.271 73.716 275.261C73.2996 275.167 72.8647 275.167 72.4205 275.261C71.5877 275.44 70.7641 275.938 70.1257 276.689C69.0985 277.882 68.6266 279.478 68.3212 280.737C67.8123 282.868 67.7938 284.399 68.2565 285.695C68.8302 287.31 70.3292 288.541 71.9856 288.869V288.879Z" fill="#2881DD"/>
<path d="M168.618 276.369C177.4 277.703 184.784 285.61 185.635 294.579C183.979 292.353 181.48 290.785 178.778 290.268C181.925 294.541 183.229 300.167 182.313 305.417C181.388 310.666 178.251 315.484 173.846 318.396" stroke="#2881DD" stroke-width="2.58" stroke-linecap="round" stroke-linejoin="round"/>
<path d="M89.6406 348.016C88.2526 349.34 87.17 350.993 86.4945 352.796C85.782 354.721 85.5414 356.797 85.3008 358.844" stroke="#2881DD" stroke-width="2.58" stroke-linecap="round" stroke-linejoin="round"/>
<path d="M174.244 326.708C176.502 327.299 178.491 328.68 180.148 330.342C181.804 332.004 183.174 333.939 184.525 335.864" stroke="#2881DD" stroke-width="2.58" stroke-linecap="round" stroke-linejoin="round"/>
<path d="M127.126 292.598C128.699 290.513 128.912 287.667 126.886 285.996C125.1 284.521 122.148 284.324 119.483 284.549C117.04 284.756 114.551 285.273 112.524 286.437C110.498 287.602 109.017 289.489 109.165 291.396C109.314 293.33 111.081 294.936 113.228 295.838C115.319 296.721 118.9 297.754 121.195 296.937C123.49 296.12 125.868 294.279 127.136 292.598H127.126Z" fill="#2881DD" stroke="#2881DD" stroke-width="1.29" stroke-miterlimit="10"/>
<path d="M162.15 254.384L161.891 254.253L161.854 254.084C161.169 253.642 157.81 253.445 156.783 253.671C156.691 253.689 156.617 253.717 156.57 253.736C156.413 253.858 156.367 254.121 156.376 254.441C156.441 254.516 156.496 254.591 156.552 254.666L156.469 258.967L159.726 264.489L161.651 265.147C161.651 265.147 161.586 265.231 161.549 265.269C161.984 265.475 162.456 265.588 162.928 265.588L164.121 266.001C164.121 266.001 166.157 262.987 166.175 262.461C166.175 262.376 166.074 262.142 165.916 261.813C165.935 261.531 165.953 261.24 165.935 260.958C165.815 258.028 164.334 255.445 162.16 254.375L162.15 254.384Z" fill="#2881DD"/>
<path d="M129.145 274.097C130.542 270.378 131.948 266.668 133.346 262.949" stroke="#757575" stroke-width="2" stroke-miterlimit="10"/>
<path d="M129.486 274.81C129.727 274.331 130.356 274.2 130.884 274.275C131.411 274.35 131.92 274.557 132.447 274.528C133.354 274.491 134.113 273.758 134.474 272.923C134.835 272.087 134.881 271.138 134.918 270.227C135.001 268.199 135.085 266.17 135.168 264.142" stroke="#757575" stroke-width="2" stroke-miterlimit="10"/>
<path d="M126.654 244.213C133.705 243.077 141.127 244.476 147.299 248.11C153.471 251.745 158.366 257.577 160.901 264.348" stroke="#2881DD" stroke-width="2.58" stroke-linecap="round" stroke-linejoin="round"/>
<path d="M162.549 253.811C165.112 255.069 166.546 258.028 166.657 260.911C166.741 262.949 166 265.315 164.103 266.01C162.558 266.574 160.781 265.766 159.708 264.498C158.635 263.23 158.116 261.587 157.626 260C157.163 258.497 155.007 254.29 156.349 253.219C157.006 252.693 162.354 252.966 162.53 253.811H162.549Z" stroke="#2881DD" stroke-width="1.29" stroke-miterlimit="10"/>
<path d="M72.698 289.075C70.5512 289.057 68.4969 287.582 67.7659 285.535C67.183 283.91 67.405 282.098 67.8122 280.417C68.1638 278.923 68.682 277.421 69.6721 276.266C70.6623 275.11 72.2261 274.359 73.7066 274.697C76.8158 275.411 78.25 279.477 78.0095 282.699C77.7689 285.92 75.8997 289.104 72.7073 289.075H72.698Z" stroke="#2881DD" stroke-width="1.29" stroke-miterlimit="10"/>
<path d="M177.631 289.658C177.89 289.235 178.381 289.019 178.862 289.104C180.546 289.423 182.156 290.109 183.563 291.095C181.416 284.286 175.272 278.661 168.304 277.6C167.656 277.496 167.203 276.886 167.305 276.219C167.397 275.552 168.008 275.101 168.665 275.205C168.868 275.233 169.072 275.289 169.276 275.327C168.813 274.669 168.276 274.078 167.712 273.495L167.119 273.815C167.018 273.862 166.916 273.899 166.814 273.927C166.305 274.04 165.759 273.796 165.509 273.298C165.223 272.735 165.417 272.059 165.944 271.73C165.722 271.495 165.5 271.26 165.278 271.016C165.111 271.204 164.908 271.354 164.649 271.411C164.001 271.551 163.372 271.129 163.233 270.481L162.928 269.035C162.835 268.612 162.992 268.208 163.279 267.926C163.14 267.588 163.02 267.222 162.918 266.837C161.438 266.837 160.022 265.982 159.143 264.931C157.977 263.55 157.431 261.784 156.941 260.216C156.848 259.906 156.672 259.474 156.478 258.986C156.367 258.695 156.237 258.385 156.117 258.075C153.619 254.469 150.362 251.426 146.577 249.191C140.599 245.678 133.539 244.345 126.719 245.443C126.071 245.547 125.461 245.096 125.35 244.439C125.34 244.354 125.35 244.269 125.35 244.185C122.851 244.26 120.223 244.11 117.984 243.856C118.391 244.326 118.391 245.04 117.956 245.5C117.79 245.678 117.577 245.791 117.355 245.838C116.975 245.922 116.568 245.81 116.272 245.519C114.893 244.147 114.088 242.269 113.968 240.335C113.616 241.048 113.44 241.856 113.524 242.635C113.579 243.124 113.339 243.593 112.913 243.828C112.497 244.063 111.978 244.025 111.599 243.725C109.933 242.391 108.721 240.56 108.11 238.522C107.111 240.513 106.935 242.945 107.768 245.002C107.907 245.35 107.861 245.716 107.703 246.016C107.574 246.26 107.379 246.467 107.111 246.58C106.713 246.749 106.306 246.664 105.982 246.43C104.687 246.768 103.326 247.2 102.133 247.801C102.42 248.026 102.623 248.364 102.614 248.759C102.614 249.425 102.068 249.97 101.411 249.961C97.1729 249.914 92.722 251.567 88.8633 254.6C85.5599 257.201 82.6728 260.742 80.0356 265.419C78.6198 267.936 77.5464 270.321 76.7876 272.622C76.0936 272.096 75.631 271.739 75.631 271.739C75.631 271.739 73.7895 278.257 73.7433 278.661C73.697 279.065 74.9462 286.211 74.9462 286.211L76.2972 290.663C75.7883 290.757 75.2516 290.513 75.011 290.015C74.8999 289.79 74.8074 289.545 74.7056 289.311C74.6131 289.386 74.5113 289.461 74.428 289.545L74.7797 290.841C74.9555 291.489 74.5853 292.156 73.9468 292.335C73.9191 292.335 73.9006 292.344 73.8728 292.353C73.4842 292.438 73.114 292.306 72.8457 292.053C72.7069 292.447 72.5958 292.861 72.5218 293.283L73.808 294.241C74.3355 294.635 74.4558 295.396 74.0671 295.931C73.8913 296.176 73.6322 296.335 73.3546 296.401C73.04 296.467 72.6976 296.401 72.42 296.204C72.457 296.645 72.5218 297.087 72.5958 297.528C72.966 297.453 73.3639 297.528 73.66 297.829C74.1319 298.298 74.1412 299.059 73.6785 299.538C68.6354 304.788 66.2202 312.498 67.1086 319.767C67.4602 319.26 67.8674 318.8 68.3208 318.396C68.7002 318.067 69.2369 318.001 69.6718 318.245C70.1067 318.49 70.3565 318.978 70.2825 319.476C69.5422 324.791 71.615 330.548 75.5477 334.136C79.4896 337.723 85.3285 339.198 90.4734 337.873C91.0842 337.714 91.7597 338.099 91.9262 338.747C92.0928 339.395 91.7041 340.052 91.0657 340.221C90.8436 340.278 90.6215 340.334 90.3994 340.381C90.3809 340.381 90.3717 340.381 90.3531 340.381C91.8429 340.85 93.416 341.207 95.0076 341.339C95.1279 340.86 95.5166 340.484 96.044 340.437C100.976 339.958 105.418 337.676 110.109 335.263C112.543 334.014 115.06 332.718 117.641 331.703C125.933 328.454 134.945 328.05 143.671 327.665C151.953 327.299 160.513 326.923 168.267 324.059C168.748 323.88 169.257 324.04 169.572 324.416C170.849 322.744 171.117 320.659 172.773 319.138C172.755 319.109 172.727 319.1 172.718 319.072C172.357 318.508 172.514 317.757 173.069 317.4C177.187 314.686 180.158 310.131 181.018 305.22C181.879 300.308 180.639 295.002 177.705 291.01C177.409 290.607 177.391 290.071 177.65 289.649L177.631 289.658ZM83.4223 307.323L82.7098 306.356C85.8005 304.008 89.4741 302.477 93.2957 301.923L93.4623 303.125C89.8257 303.651 86.3557 305.097 83.4223 307.333V307.323ZM90.6678 311.343L89.7424 310.573C91.1119 308.863 93.0274 307.614 95.1279 307.051L95.4333 308.225C93.5733 308.732 91.88 309.84 90.6678 311.343ZM131.142 302.289C126.016 303.398 122.009 302.778 120.843 302.543C118.604 305.004 115.772 306.262 113.043 306.854C108.24 307.887 103.78 306.882 103.484 306.816L103.752 305.633C103.863 305.661 114.292 307.99 120.01 301.67L119.427 297.838C117.318 297.922 114.801 297.237 112.857 296.42C110.239 295.321 108.582 293.462 108.434 291.461C108.286 289.433 109.684 287.32 112.099 285.93C113.959 284.859 116.318 284.22 119.307 283.967C122.86 283.666 125.498 284.202 127.135 285.554C129.541 287.545 129.125 290.794 127.469 292.992C126.034 294.898 123.536 296.72 121.25 297.537C121.047 297.613 120.843 297.669 120.621 297.716L121.176 301.378C123.129 301.726 132.142 302.89 141.034 296.636L141.719 297.631C138.036 300.223 134.372 301.604 131.151 302.299L131.142 302.289ZM153.452 289.207C150.843 288.447 147.965 288.766 145.578 290.081L145.013 289.01C147.678 287.545 150.87 287.198 153.785 288.043L153.461 289.207H153.452ZM155.414 282.549C150.75 282.314 145.975 283.516 141.969 285.948L141.358 284.906C145.568 282.352 150.584 281.084 155.479 281.337L155.414 282.549Z" fill="#D5E6FF"/>
<path d="M76.205 289.46C74.3173 285.591 73.9379 281.083 74.6227 276.829C75.3074 272.575 77.01 268.536 79.1198 264.799C81.4979 260.563 84.459 256.6 88.2529 253.613C92.0468 250.627 96.7383 248.674 101.541 248.721" stroke="#2881DD" stroke-width="2.58" stroke-linecap="round" stroke-linejoin="round"/>
<path d="M141.802 285.404C145.92 282.897 150.787 281.666 155.58 281.92" stroke="#2881DD" stroke-width="1.29" stroke-linecap="round" stroke-linejoin="round"/>
<path d="M145.43 289.517C147.947 288.137 151 287.799 153.758 288.597" stroke="#2881DD" stroke-width="1.29" stroke-linecap="round" stroke-linejoin="round"/>
<path d="M83.2012 306.807C86.2085 304.525 89.7989 303.022 93.5187 302.487" stroke="#2881DD" stroke-width="1.29" stroke-linecap="round" stroke-linejoin="round"/>
<path d="M90.3447 310.929C91.6402 309.323 93.4446 308.14 95.4156 307.604" stroke="#2881DD" stroke-width="1.29" stroke-linecap="round" stroke-linejoin="round"/>
<path d="M119.918 296.176L120.788 301.858C120.788 301.858 131.161 304.384 141.515 297.097" stroke="#2881DD" stroke-width="1.29" stroke-linecap="round" stroke-linejoin="round"/>
<path d="M103.761 306.196C103.761 306.196 114.8 308.779 120.787 301.857" stroke="#2881DD" stroke-width="1.29" stroke-linecap="round" stroke-linejoin="round"/>
<path d="M137.6 284.345C140.526 283.099 142.535 281.209 142.086 280.123C141.637 279.038 138.901 279.168 135.975 280.414C133.048 281.66 131.04 283.55 131.488 284.636C131.937 285.721 134.673 285.591 137.6 284.345Z" fill="#2881DD" stroke="#2881DD" stroke-width="0.32" stroke-miterlimit="10"/>
<path d="M97.3544 295.081C100.527 295.009 103.078 293.996 103.052 292.819C103.027 291.642 100.433 290.746 97.2606 290.818C94.0877 290.89 91.5366 291.902 91.5625 293.08C91.5885 294.257 94.1816 295.153 97.3544 295.081Z" fill="#2881DD" stroke="#2881DD" stroke-width="0.32" stroke-miterlimit="10"/>
<path d="M321.698 143.575H179.64C169.419 143.575 161.133 151.985 161.133 162.358V388.465C161.133 398.838 169.419 407.248 179.64 407.248H321.698C331.919 407.248 340.205 398.838 340.205 388.465V162.358C340.205 151.985 331.919 143.575 321.698 143.575Z" fill="white" stroke="#2881DD" stroke-width="3" stroke-miterlimit="10"/>
<path d="M319.366 340.315H304.69C301.103 340.315 298.194 343.267 298.194 346.908V361.802C298.194 365.444 301.103 368.395 304.69 368.395H319.366C322.954 368.395 325.862 365.444 325.862 361.802V346.908C325.862 343.267 322.954 340.315 319.366 340.315Z" fill="#D5E6FF" stroke="#2881DD" stroke-width="2" stroke-linecap="round" stroke-linejoin="round"/>
<path d="M179.566 341.236H250.142" stroke="#2881DD" stroke-width="3" stroke-linecap="round" stroke-linejoin="round"/>
<path d="M179.566 354.05H250.142" stroke="#2881DD" stroke-width="3" stroke-linecap="round" stroke-linejoin="round"/>
<path d="M179.566 366.352H225.861" stroke="#2881DD" stroke-width="3" stroke-linecap="round" stroke-linejoin="round"/>
<path d="M245.088 180.183C244.459 176.623 246.217 172.763 249.28 170.932C248.715 173.646 249.437 176.614 251.186 178.746C251.417 176.407 253.323 174.341 255.609 173.937C254.045 176.135 253.99 179.328 255.461 181.591" stroke="#2881DD" stroke-width="2.58" stroke-linecap="round" stroke-linejoin="round"/>
<path d="M250.753 304.056C289.409 304.056 320.745 279.572 320.745 249.37C320.745 219.167 289.409 194.684 250.753 194.684C212.097 194.684 180.76 219.167 180.76 249.37C180.76 279.572 212.097 304.056 250.753 304.056Z" fill="white" stroke="#2881DD" stroke-width="2.42" stroke-miterlimit="10"/>
<path d="M208.575 210.377C209.139 208.433 209.047 206.094 208.223 204.385C208.205 204.432 208.177 204.489 208.159 204.536C206.983 207.607 206.493 210.771 206.715 213.72C207.566 212.819 208.214 211.617 208.566 210.386L208.575 210.377Z" fill="#CCCCCC"/>
<path d="M208.15 276.266C208.492 276.839 208.307 277.581 207.743 277.928C206.272 278.83 205.004 280.088 204.069 281.554C203.042 283.178 202.404 285.094 201.793 286.954C201.691 287.254 201.478 287.48 201.229 287.62C214.156 296.486 231.802 303.003 250.355 303.003C270.453 303.003 290.561 295.133 303.821 284.916C302.951 282.887 299.491 281.244 298.297 279.412C296.964 277.365 295.428 275.891 293.726 275.027C293.133 274.726 292.902 274.003 293.189 273.402C293.402 272.97 293.837 272.735 294.281 272.744C292.985 271.946 291.69 271.289 290.404 271.542C290.311 272.031 289.932 272.435 289.414 272.51C280.882 273.721 272.239 272.256 263.883 270.829C255.463 269.401 246.765 267.917 238.372 269.279C235.753 269.702 233.088 270.425 230.506 271.11C226.287 272.247 221.938 273.411 217.505 273.411C216.608 273.411 215.71 273.364 214.803 273.261C214.479 273.223 214.211 273.054 214.017 272.829C211.694 273.383 209.39 274.097 207.808 275.919C207.937 276.013 208.058 276.135 208.141 276.285L208.15 276.266Z" fill="#D5E6FF"/>
<path d="M201.07 225.111C193.464 230.258 189.031 239.865 190.003 249.088C190.317 247.172 191.53 245.425 193.204 244.486C191.243 249.942 192.131 256.366 195.509 261.062C198.877 265.757 204.632 268.593 210.351 268.368" stroke="#2881DD" stroke-width="2.58" stroke-linecap="round" stroke-linejoin="round"/>
<path d="M199.229 218.546L202.052 221.768" stroke="#2881DD" stroke-width="2.58" stroke-linecap="round" stroke-linejoin="round"/>
<path d="M203.254 215.288L203.412 217.918" stroke="#2881DD" stroke-width="2.58" stroke-linecap="round" stroke-linejoin="round"/>
<path d="M301.636 218.519L298.083 219.523" stroke="#2881DD" stroke-width="2.58" stroke-linecap="round" stroke-linejoin="round"/>
<path d="M296.473 215.128V216.602" stroke="#2881DD" stroke-width="2.58" stroke-linecap="round" stroke-linejoin="round"/>
<path d="M215.08 272.049C222.927 272.96 230.524 269.345 238.325 268.077C255.24 265.325 272.424 273.721 289.385 271.308" stroke="#2881DD" stroke-width="2.58" stroke-linecap="round" stroke-linejoin="round"/>
<path d="M202.134 215.326C202.309 214.903 202.698 214.584 203.189 214.556C203.836 214.509 204.391 214.997 204.484 215.636C204.558 215.626 204.623 215.607 204.697 215.589C204.179 211.813 204.697 207.681 206.214 203.718C206.381 203.295 206.557 202.873 206.742 202.45C206.705 202.431 206.668 202.394 206.631 202.375C206.242 202.196 205.817 202.103 205.363 202.103C204.512 202.103 203.605 202.412 202.818 203.014C201.569 203.962 200.783 205.427 200.227 206.592C199.293 208.564 198.96 210.057 199.145 211.428C199.376 213.128 200.588 214.649 202.134 215.326Z" fill="#2881DD"/>
<path d="M299.213 223.514C307.522 226.679 313.13 235.967 312.121 244.917C310.955 242.391 308.845 240.325 306.301 239.254C308.503 244.1 308.623 249.876 306.643 254.816C304.663 259.755 300.601 263.803 295.696 265.719" stroke="#2881DD" stroke-width="2.58" stroke-linecap="round" stroke-linejoin="round"/>
<path d="M207.261 276.895C205.632 277.891 204.226 279.28 203.199 280.905C202.107 282.643 201.441 284.615 200.793 286.568" stroke="#2881DD" stroke-width="2.58" stroke-linecap="round" stroke-linejoin="round"/>
<path d="M294.392 273.937C296.474 274.998 298.139 276.763 299.425 278.745C300.712 280.727 301.646 282.896 302.572 285.065" stroke="#2881DD" stroke-width="2.58" stroke-linecap="round" stroke-linejoin="round"/>
<path d="M255.304 230.615C257.275 228.906 258.062 226.173 256.424 224.107C254.981 222.285 252.14 221.468 249.484 221.121C247.05 220.811 244.506 220.792 242.285 221.496C240.064 222.201 238.232 223.741 237.982 225.628C237.723 227.554 239.129 229.498 241.036 230.831C242.905 232.137 246.19 233.902 248.596 233.592C251.002 233.282 253.713 231.977 255.295 230.606L255.304 230.615Z" fill="#2881DD" stroke="#2881DD" stroke-width="1.29" stroke-miterlimit="10"/>
<path d="M297.399 200.646L297.168 200.468V200.289C296.594 199.717 293.346 198.815 292.291 198.815C292.199 198.815 292.125 198.815 292.069 198.834C291.893 198.918 291.792 199.162 291.736 199.482C291.782 199.566 291.819 199.651 291.866 199.735L290.903 203.924L292.948 210.019L294.697 211.071C294.697 211.071 294.623 211.136 294.577 211.165C294.966 211.456 295.4 211.672 295.863 211.766L296.946 212.423C296.946 212.423 299.555 209.906 299.685 209.39C299.703 209.305 299.657 209.052 299.565 208.695C299.648 208.422 299.713 208.141 299.759 207.868C300.24 204.976 299.324 202.139 297.418 200.637L297.399 200.646Z" fill="#2881DD"/>
<path d="M261.07 212.949C263.199 209.606 265.336 206.272 267.464 202.929" stroke="#757575" stroke-width="2" stroke-miterlimit="10"/>
<path d="M261.264 213.719C261.597 213.306 262.235 213.306 262.735 213.484C263.235 213.663 263.688 213.982 264.216 214.067C265.104 214.217 266.001 213.672 266.529 212.921C267.056 212.17 267.288 211.268 267.519 210.376C268.019 208.404 268.518 206.441 269.018 204.469" stroke="#757575" stroke-width="2" stroke-miterlimit="10"/>
<path d="M264.771 183.188C271.897 183.564 278.874 186.503 284.167 191.358C289.46 196.214 293.05 202.957 294.142 210.113" stroke="#2881DD" stroke-width="2.58" stroke-linecap="round" stroke-linejoin="round"/>
<path d="M297.908 200.168C300.157 201.933 300.953 205.136 300.472 207.981C300.138 209.991 298.926 212.151 296.927 212.433C295.299 212.658 293.726 211.494 292.939 210.029C292.153 208.564 291.986 206.845 291.829 205.183C291.681 203.614 290.432 199.05 291.977 198.28C292.726 197.904 297.899 199.304 297.899 200.168H297.908Z" stroke="#2881DD" stroke-width="1.29" stroke-miterlimit="10"/>
<path d="M202.791 215.673C200.7 215.203 198.988 213.325 198.692 211.165C198.461 209.446 199.044 207.728 199.784 206.169C200.441 204.788 201.246 203.426 202.458 202.506C203.67 201.586 205.354 201.182 206.724 201.82C209.62 203.173 210.185 207.455 209.287 210.554C208.39 213.654 205.91 216.377 202.791 215.673Z" stroke="#2881DD" stroke-width="1.29" stroke-miterlimit="10"/>
<path d="M305.301 238.419C305.643 238.062 306.161 237.949 306.615 238.137C308.197 238.804 309.622 239.818 310.806 241.077C310.103 233.958 305.254 227.159 298.647 224.651C298.027 224.416 297.722 223.721 297.953 223.092C298.185 222.463 298.869 222.153 299.489 222.379C299.684 222.454 299.869 222.548 300.063 222.623C299.749 221.881 299.341 221.186 298.906 220.5L298.259 220.679C298.148 220.707 298.046 220.726 297.935 220.726C297.417 220.726 296.936 220.378 296.787 219.833C296.621 219.223 296.954 218.603 297.528 218.387C297.352 218.115 297.185 217.833 297.028 217.542C296.834 217.692 296.593 217.796 296.325 217.796C295.668 217.796 295.131 217.251 295.131 216.584V215.11C295.131 214.678 295.372 214.311 295.705 214.095C295.64 213.729 295.603 213.344 295.575 212.95C294.122 212.64 292.92 211.503 292.272 210.292C291.42 208.695 291.245 206.845 291.087 205.22C291.06 204.892 290.976 204.441 290.884 203.915C290.828 203.605 290.773 203.276 290.726 202.948C289.015 198.9 286.47 195.228 283.213 192.242C278.086 187.536 271.461 184.747 264.558 184.381C263.901 184.343 263.392 183.78 263.429 183.104C263.429 183.019 263.466 182.944 263.494 182.86C261.032 182.409 258.497 181.704 256.35 180.981C256.655 181.526 256.507 182.23 255.98 182.578C255.776 182.719 255.545 182.784 255.323 182.784C254.934 182.784 254.555 182.597 254.324 182.24C253.25 180.606 252.862 178.596 253.13 176.689C252.63 177.319 252.306 178.07 252.223 178.849C252.177 179.338 251.844 179.742 251.381 179.883C250.928 180.023 250.419 179.883 250.113 179.497C248.762 177.845 247.948 175.788 247.772 173.675C246.393 175.412 245.718 177.751 246.107 179.939C246.171 180.305 246.051 180.653 245.838 180.925C245.662 181.132 245.431 181.301 245.144 181.348C244.728 181.432 244.339 181.254 244.071 180.963C242.738 181.019 241.313 181.16 240.027 181.488C240.268 181.77 240.388 182.146 240.305 182.531C240.166 183.188 239.527 183.592 238.88 183.451C234.743 182.512 230.052 183.188 225.656 185.339C221.89 187.18 218.337 190.035 214.793 194.054C212.887 196.214 211.351 198.318 210.138 200.412C209.565 199.745 209.195 199.304 209.195 199.304C209.195 199.304 206.058 205.286 205.928 205.671C205.799 206.056 205.549 213.316 205.549 213.316L205.956 217.955C205.438 217.936 204.966 217.589 204.836 217.044C204.772 216.8 204.734 216.546 204.679 216.293C204.577 216.349 204.457 216.406 204.364 216.462L204.448 217.805C204.485 218.472 203.985 219.045 203.328 219.092C203.3 219.092 203.282 219.092 203.254 219.092C202.865 219.092 202.523 218.885 202.31 218.584C202.088 218.941 201.894 219.326 201.736 219.721L202.791 220.932C203.226 221.43 203.189 222.2 202.689 222.641C202.458 222.848 202.181 222.951 201.894 222.951C201.57 222.951 201.255 222.82 201.015 222.557C200.959 222.998 200.931 223.44 200.922 223.891C201.301 223.891 201.672 224.06 201.903 224.407C202.273 224.961 202.125 225.712 201.57 226.088C195.564 230.155 191.622 237.189 190.993 244.476C191.437 244.054 191.928 243.688 192.464 243.387C192.899 243.143 193.436 243.199 193.815 243.528C194.195 243.857 194.334 244.392 194.158 244.861C192.344 249.905 193.186 255.971 196.305 260.31C199.423 264.649 204.827 267.335 210.138 267.119C210.768 267.091 211.351 267.617 211.378 268.284C211.406 268.95 210.888 269.514 210.231 269.542C210 269.542 209.768 269.551 209.546 269.551C209.528 269.551 209.519 269.551 209.5 269.551C210.86 270.322 212.322 271.007 213.858 271.467C214.071 271.026 214.534 270.744 215.052 270.8C219.975 271.373 224.787 270.087 229.867 268.716C232.504 268.011 235.224 267.279 237.964 266.828C246.736 265.4 255.638 266.912 264.252 268.377C272.423 269.767 280.881 271.214 289.052 270.049C289.551 269.974 290.023 270.246 290.255 270.678C291.855 269.317 292.531 267.326 294.465 266.189C294.456 266.161 294.428 266.142 294.419 266.114C294.178 265.494 294.493 264.79 295.103 264.546C299.684 262.752 303.524 258.93 305.375 254.319C307.225 249.707 307.105 244.242 305.051 239.715C304.847 239.264 304.93 238.729 305.273 238.372L305.301 238.419ZM209.537 235.78L209.037 234.681C212.544 233.038 216.449 232.315 220.299 232.587L220.215 233.798C216.551 233.545 212.859 234.23 209.528 235.789L209.537 235.78ZM215.802 241.246L215.052 240.297C216.745 238.917 218.874 238.1 221.039 237.987L221.104 239.198C219.188 239.302 217.301 240.025 215.802 241.246ZM257.248 240.945C252.001 240.945 248.216 239.49 247.124 239.02C244.422 240.945 241.397 241.584 238.611 241.584C233.707 241.584 229.543 239.659 229.275 239.527L229.774 238.428C229.876 238.475 239.601 242.955 246.486 237.987L246.699 234.118C244.617 233.751 242.294 232.549 240.564 231.338C238.223 229.704 236.992 227.544 237.251 225.553C237.519 223.534 239.324 221.759 241.97 220.923C244.015 220.275 246.449 220.143 249.419 220.528C252.963 220.989 255.425 222.059 256.748 223.731C258.691 226.182 257.618 229.281 255.554 231.075C253.759 232.634 250.946 233.892 248.54 234.202C248.327 234.23 248.115 234.24 247.892 234.24L247.689 237.94C249.53 238.691 258.108 241.734 268.093 237.499L268.555 238.616C264.419 240.372 260.551 240.945 257.257 240.945H257.248ZM281.751 232.869C279.354 231.573 276.476 231.282 273.867 232.061L273.534 230.896C276.439 230.032 279.641 230.361 282.315 231.798L281.76 232.869H281.751ZM285.036 226.774C280.52 225.553 275.606 225.722 271.193 227.262L270.804 226.116C275.44 224.51 280.603 224.323 285.341 225.609L285.036 226.783V226.774Z" fill="#D5E6FF"/>
<path d="M206.151 216.782C205.105 212.602 205.651 208.113 207.196 204.094C208.742 200.074 211.231 196.496 214.062 193.275C217.264 189.64 220.965 186.391 225.296 184.269C229.627 182.146 234.614 181.235 239.296 182.296" stroke="#2881DD" stroke-width="2.58" stroke-linecap="round" stroke-linejoin="round"/>
<path d="M271.138 226.679C275.681 225.101 280.687 224.923 285.332 226.181" stroke="#2881DD" stroke-width="1.29" stroke-linecap="round" stroke-linejoin="round"/>
<path d="M273.839 231.478C276.587 230.661 279.641 230.971 282.167 232.333" stroke="#2881DD" stroke-width="1.29" stroke-linecap="round" stroke-linejoin="round"/>
<path d="M209.427 235.226C212.841 233.63 216.654 232.916 220.401 233.179" stroke="#2881DD" stroke-width="1.29" stroke-linecap="round" stroke-linejoin="round"/>
<path d="M215.571 240.775C217.172 239.479 219.171 238.7 221.216 238.597" stroke="#2881DD" stroke-width="1.29" stroke-linecap="round" stroke-linejoin="round"/>
<path d="M247.524 232.596L247.209 238.334C247.209 238.334 256.842 242.992 268.455 238.062" stroke="#2881DD" stroke-width="1.29" stroke-linecap="round" stroke-linejoin="round"/>
<path d="M229.663 238.982C229.663 238.982 239.934 243.847 247.208 238.334" stroke="#2881DD" stroke-width="1.29" stroke-linecap="round" stroke-linejoin="round"/>
<path d="M267.253 224.764C270.371 224.164 272.723 222.74 272.507 221.583C272.291 220.426 269.588 219.975 266.47 220.575C263.352 221.176 260.999 222.6 261.216 223.757C261.432 224.913 264.135 225.365 267.253 224.764Z" fill="#2881DD" stroke="#2881DD" stroke-width="0.32" stroke-miterlimit="10"/>
<path d="M231.71 225.731C231.926 224.574 229.574 223.15 226.456 222.55C223.338 221.949 220.635 222.401 220.419 223.557C220.203 224.714 222.555 226.138 225.673 226.739C228.791 227.339 231.494 226.888 231.71 225.731Z" fill="#2881DD" stroke="#2881DD" stroke-width="0.32" stroke-miterlimit="10"/>
<path d="M326.954 174.107C339.771 174.107 350.161 163.562 350.161 150.554C350.161 137.545 339.771 127 326.954 127C314.136 127 303.746 137.545 303.746 150.554C303.746 163.562 314.136 174.107 326.954 174.107Z" fill="#2881DD"/>
<path d="M315.415 147.658L326.639 158.43L338.937 142.972" stroke="white" stroke-width="3.27" stroke-linecap="round" stroke-linejoin="round"/>
<path d="M421.403 512.121H418.581" stroke="#2881DD" stroke-width="1.61" stroke-miterlimit="10"/>
</svg>
