<svg width="544" height="148" viewBox="0 0 544 148" fill="none" xmlns="http://www.w3.org/2000/svg">
<g clip-path="url(#clip0_643_252)">
<rect width="544" height="148" rx="20" fill="#F7F9FC"/>
<path d="M206.195 82.4844V85.5898H181.791V82.4844H206.195ZM204.145 64.3789V67.3672H200.395V75.4531H204.027V78.3828H183.812V75.4531H187.387V67.3672H183.695V64.3789H204.145ZM191.137 75.4531H196.703V67.3672H191.137V75.4531ZM230.072 62.0352V88.7539H226.352V62.0352H230.072ZM221.811 64.2617V74.5449H213.021V79.4375C217.079 79.4229 220.536 79.1885 224.447 78.5586L224.77 81.5762C220.375 82.3379 216.42 82.5137 211.557 82.5137H209.154V71.5859H218.002V67.2793H209.125V64.2617H221.811ZM258.051 82.4844V85.5898H233.646V82.4844H258.051ZM256 64.3789V67.3672H252.25V75.4531H255.883V78.3828H235.668V75.4531H239.242V67.3672H235.551V64.3789H256ZM242.992 75.4531H248.559V67.3672H242.992V75.4531ZM283.979 82.6602V85.7363H259.574V82.6602H269.857V78.6465H262.387V69.6816H277.475V66.752H262.357V63.7637H281.166V72.6113H266.137V75.5996H281.781V78.6465H273.578V82.6602H283.979ZM299.066 63.793V66.8105H290.658V74.2812C294.965 74.252 297.484 74.0615 300.238 73.4902L300.561 76.4492C297.396 77.1816 294.584 77.2695 289.047 77.2695H286.938V63.793H299.066ZM307.973 79.2617V88.6953H304.252V82.25H289.662V79.2617H307.973ZM307.973 62.0352V78.1191H304.252V71.7031H297.777V68.6855H304.252V62.0352H307.973ZM321.42 66.6348C321.42 70.3262 323.236 73.9883 327.455 75.541L325.375 78.4414C322.577 77.3428 320.658 75.248 319.574 72.6113C318.402 75.4238 316.337 77.6211 313.305 78.7637L311.312 75.834C315.678 74.2812 317.641 70.5312 317.641 66.6348V63.5586H321.42V66.6348ZM333.9 62.0645V81.8398H330.18V73.6953H325.609V70.6777H330.18V68.5391H325.609V65.5215H330.18V62.0645H333.9ZM334.457 85.2383V88.2266H316.146V79.9355H319.926V85.2383H334.457ZM359.154 64.3496V67.2793H344.33V64.3496H350.072V61.8008H353.793V64.3496H359.154ZM351.889 68.041C355.551 68.041 358.188 70.0332 358.217 72.9043C358.188 75.7754 355.551 77.7383 351.889 77.7383C348.197 77.7383 345.619 75.7754 345.648 72.9043C345.619 70.0332 348.197 68.041 351.889 68.041ZM351.889 70.8242C350.189 70.8242 349.105 71.5566 349.135 72.9043C349.105 74.252 350.189 75.0137 351.889 75.0137C353.559 75.0137 354.73 74.252 354.73 72.9043C354.73 71.5566 353.559 70.8242 351.889 70.8242ZM366.742 62.0352V77.9141H363.021V75.9805H359.389V72.9922H363.021V70.7363H359.447V67.7188H363.021V62.0352H366.742ZM352.504 78.9102V80.873H363.051V78.9102H366.742V88.4023H348.754V78.9102H352.504ZM352.504 85.5312H363.051V83.6562H352.504V85.5312ZM377.641 63.1777C381.054 63.1484 383.764 65.0967 384.496 67.9531H388.949V62.0352H392.67V76.3613H388.949V70.9414H384.525C383.822 73.8711 381.083 75.8633 377.641 75.8633C373.539 75.8633 370.521 73.1973 370.551 69.4766C370.521 65.8145 373.539 63.1484 377.641 63.1777ZM377.641 66.2832C375.561 66.2539 374.066 67.4844 374.096 69.4766C374.066 71.4688 375.561 72.7285 377.641 72.7285C379.662 72.7285 381.127 71.4688 381.127 69.4766C381.127 67.4844 379.662 66.2539 377.641 66.2832ZM378.578 77.5332V80.1113H388.949V77.5332H392.67V88.4023H374.887V77.5332H378.578ZM378.578 85.3848H388.949V82.9824H378.578V85.3848ZM424.75 70.0039V72.5527H406.029V62.4453H424.516V65.0234H409.779V66.2539H423.9V68.7148H409.779V70.0039H424.75ZM427.299 73.8125V76.5371H417.045V78.0312H424.398V84.4473H409.545V85.8535H425.102V88.5195H405.883V81.9277H420.707V80.6387H405.854V78.0312H413.295V76.5371H403.1V73.8125H427.299Z" fill="#C4DCFF"/>
<path d="M98.0004 76.3223C98.0004 87.188 88.6884 95.9999 77.1973 95.9999" stroke="#D5E6FF" stroke-width="1.87" stroke-linecap="round" stroke-linejoin="round"/>
<path d="M51 72.6777C51 61.8098 60.3137 53 71.8031 53" stroke="#D5E6FF" stroke-width="1.87" stroke-linecap="round" stroke-linejoin="round"/>
<path d="M85.3505 59.5586H63.5392C60.8689 59.5586 58.7041 61.6131 58.7041 64.1476V84.8484C58.7041 87.3828 60.8689 89.4374 63.5392 89.4374H85.3505C88.0208 89.4374 90.1856 87.3828 90.1856 84.8484V64.1476C90.1856 61.6131 88.0208 59.5586 85.3505 59.5586Z" fill="#C4DCFF"/>
<path d="M81.2349 73.0179H75.7803V67.841C75.7803 67.2916 75.3105 66.8457 74.7316 66.8457C74.1527 66.8457 73.6829 67.2916 73.6829 67.841V73.0179H68.2284C67.6495 73.0179 67.1797 73.4638 67.1797 74.0132C67.1797 74.5626 67.6495 75.0085 68.2284 75.0085H73.6829V80.1853C73.6829 80.7347 74.1527 81.1806 74.7316 81.1806C75.3105 81.1806 75.7803 80.7347 75.7803 80.1853V75.0085H81.2349C81.8137 75.0085 82.2835 74.5626 82.2835 74.0132C82.2835 73.4638 81.8137 73.0179 81.2349 73.0179Z" fill="#F7F9FC"/>
<path d="M91.3861 54.459H81.5001C79.1237 54.459 77.1973 56.2812 77.1973 58.529V67.8802C77.1973 70.128 79.1237 71.9502 81.5001 71.9502H91.3861C93.7625 71.9502 95.6889 70.128 95.6889 67.8802V58.529C95.6889 56.2812 93.7625 54.459 91.3861 54.459Z" fill="#F6F9FF"/>
<path d="M68.2709 76.3223H58.3848C56.0085 76.3223 54.082 78.1445 54.082 80.3923V89.7435C54.082 91.9913 56.0085 93.8135 58.3848 93.8135H68.2709C70.6472 93.8135 72.5737 91.9913 72.5737 89.7435V80.3923C72.5737 78.1445 70.6472 76.3223 68.2709 76.3223Z" fill="#F6F9FF"/>
</g>
<defs>
<clipPath id="clip0_643_252">
<rect width="544" height="148" fill="white"/>
</clipPath>
</defs>
</svg>
