<svg width="521" height="639" viewBox="0 0 521 639" fill="none" xmlns="http://www.w3.org/2000/svg">
<rect x="1" y="1" width="520" height="638" rx="40" fill="white"/>
<path d="M183.744 333.131H338.086C349.346 333.131 358.479 342.236 358.479 353.438V493.249H163.342V353.438C163.342 342.236 172.475 333.131 183.735 333.131H183.744Z" fill="white" stroke="#2881DD" stroke-width="3"/>
<path d="M198.479 360.235C200.261 360.235 201.705 359.203 201.705 357.931C201.705 356.658 200.261 355.627 198.479 355.627C196.698 355.627 195.254 356.658 195.254 357.931C195.254 359.203 196.698 360.235 198.479 360.235Z" fill="white"/>
<path d="M210.386 359.094C211.011 357.586 210.295 355.857 208.787 355.233C207.279 354.608 205.55 355.324 204.926 356.832C204.301 358.34 205.017 360.069 206.525 360.693C208.033 361.318 209.762 360.602 210.386 359.094Z" fill="white"/>
<path d="M219.324 359.096C219.949 357.588 219.233 355.859 217.725 355.235C216.217 354.61 214.488 355.326 213.863 356.834C213.239 358.342 213.955 360.071 215.463 360.695C216.971 361.32 218.699 360.604 219.324 359.096Z" fill="white"/>
<path d="M323.299 350.098H197.601C188.031 350.098 180.273 357.548 180.273 366.738V455.104C180.273 464.294 188.031 471.745 197.601 471.745H323.299C332.868 471.745 340.626 464.294 340.626 455.104V366.738C340.626 357.548 332.868 350.098 323.299 350.098Z" fill="#D5E6FF"/>
<path d="M330.839 351.255C328.961 350.509 326.904 350.098 324.746 350.098H195.232C186.458 350.098 179.352 356.868 179.352 365.222V371.294H340.034C340.361 371.294 340.626 371.038 340.626 370.727V365.222C340.626 358.925 336.582 353.529 330.839 351.255ZM192.77 364.143C191.126 364.143 189.801 362.877 189.801 361.309C189.801 359.741 191.133 358.475 192.77 358.475C194.406 358.475 195.738 359.741 195.738 361.309C195.738 362.877 194.406 364.143 192.77 364.143ZM201.754 364.143C200.11 364.143 198.785 362.877 198.785 361.309C198.785 359.741 200.118 358.475 201.754 358.475C203.39 358.475 204.723 359.741 204.723 361.309C204.723 362.877 203.39 364.143 201.754 364.143ZM210.746 364.143C209.102 364.143 207.777 362.877 207.777 361.309C207.777 359.741 209.11 358.475 210.746 358.475C212.383 358.475 213.715 359.741 213.715 361.309C213.715 362.877 212.383 364.143 210.746 364.143Z" fill="#2881DD"/>
<path d="M375.357 487.412H149.228C146.524 487.412 144.332 489.608 144.332 492.317V499.096C144.332 501.804 146.524 504 149.228 504H375.357C378.061 504 380.254 501.804 380.254 499.096V492.317C380.254 489.608 378.061 487.412 375.357 487.412Z" fill="#2881DD"/>
<path d="M373.803 477.275C399.76 477.275 420.803 456.233 420.803 430.275C420.803 404.318 399.76 383.275 373.803 383.275C347.845 383.275 326.803 404.318 326.803 430.275C326.803 456.233 347.845 477.275 373.803 477.275Z" fill="white" stroke="#2881DD" stroke-width="5.16" stroke-linecap="round" stroke-linejoin="round"/>
<path d="M480.167 218.31L444.289 301.811C441.949 307.253 435.654 309.767 430.212 307.427L358.94 276.821C353.499 274.481 350.985 268.186 353.325 262.744L395.055 165.564C397.395 160.122 403.69 157.608 409.132 159.949L468.79 185.568" fill="#BCCAE1"/>
<path d="M384.281 227.051L440.883 251.017" stroke="#BCCAE1" stroke-width="2.8" stroke-linecap="round" stroke-linejoin="round"/>
<path d="M379.189 238.891L435.792 262.866" stroke="#BCCAE1" stroke-width="2.8" stroke-linecap="round" stroke-linejoin="round"/>
<path d="M373.896 251.217L411.031 266.946" stroke="#BCCAE1" stroke-width="2.8" stroke-linecap="round" stroke-linejoin="round"/>
<path d="M125.6 180.302L169.018 260.147C171.848 265.345 169.927 271.86 164.721 274.689L96.5845 311.76C91.387 314.59 84.872 312.669 82.0427 307.463L31.5158 214.565C28.6859 209.368 30.6067 202.853 35.8129 200.024L92.8473 168.995" fill="#BCCAE1"/>
<path d="M311.707 160.694L312.347 252.526C312.391 258.507 307.617 263.389 301.684 263.433L223.937 264C218.004 264.043 213.161 259.231 213.118 253.25L212.348 146.386C212.305 140.406 217.079 135.523 223.011 135.48L288.089 135" fill="#BCCAE1"/>
<path d="M259.187 150.645L233.623 150.833C229.71 150.862 226.562 154.056 226.591 157.968L226.766 181.824C226.795 185.736 229.989 188.885 233.901 188.856L259.466 188.669C263.378 188.64 266.526 185.445 266.497 181.533L266.322 157.677C266.294 153.765 263.099 150.617 259.187 150.645Z" fill="#BCCAE1"/>
<path d="M288.33 135.371L311.893 160.798L284.404 162.153L288.33 135.371Z" fill="#BCCAE1"/>
<path d="M229.234 204.577L290.701 203.826" stroke="#BCCAE1" stroke-width="2.8" stroke-linecap="round" stroke-linejoin="round"/>
<path d="M229.33 217.474L290.788 216.715" stroke="#BCCAE1" stroke-width="2.8" stroke-linecap="round" stroke-linejoin="round"/>
<path d="M229.426 230.884L269.745 230.393" stroke="#BCCAE1" stroke-width="2.8" stroke-linecap="round" stroke-linejoin="round"/>
<path d="M267.363 380.51H251.696C250.424 380.51 249.393 381.614 249.393 382.975V395.554C249.393 396.916 250.424 398.02 251.696 398.02H267.363C268.636 398.02 269.667 396.916 269.667 395.554V382.975C269.667 381.614 268.636 380.51 267.363 380.51Z" fill="#2881DD"/>
<path d="M232.652 451.471H213.602C212.5 451.471 211.607 452.465 211.607 453.691V461.231C211.607 462.457 212.5 463.451 213.602 463.451H232.652C233.754 463.451 234.647 462.457 234.647 461.231V453.691C234.647 452.465 233.754 451.471 232.652 451.471Z" fill="#2881DD"/>
<path d="M258.309 405.734L251.109 412.934C249.898 414.145 249.898 416.109 251.109 417.32L258.309 424.52C259.52 425.731 261.484 425.731 262.695 424.52L269.895 417.32C271.106 416.109 271.106 414.145 269.895 412.934L262.695 405.734C261.484 404.523 259.52 404.523 258.309 405.734Z" fill="#2881DD"/>
<path d="M231.242 429.623H214.703C213.36 429.623 212.271 430.712 212.271 432.055V444.461C212.271 445.804 213.36 446.893 214.703 446.893H231.242C232.585 446.893 233.674 445.804 233.674 444.461V432.055C233.674 430.712 232.585 429.623 231.242 429.623Z" fill="#2881DD"/>
<path d="M297.958 446.709C302.625 446.709 306.408 442.926 306.408 438.259C306.408 433.592 302.625 429.809 297.958 429.809C293.291 429.809 289.508 433.592 289.508 438.259C289.508 442.926 293.291 446.709 297.958 446.709Z" fill="#2881DD"/>
<path d="M260.451 388.805V415.53" stroke="#2881DD" stroke-width="3" stroke-miterlimit="10"/>
<path d="M298.235 441.64V415.529H222.666V457" stroke="#2881DD" stroke-width="3" stroke-miterlimit="10"/>
<path d="M129.501 169.109L172.919 248.954C175.749 254.151 173.828 260.666 168.622 263.495L100.485 300.567C95.2874 303.397 88.7724 301.476 85.9431 296.27L35.4162 203.372C32.5863 198.174 34.5071 191.659 39.7132 188.83L96.7477 157.802" fill="white"/>
<path d="M129.501 169.109L172.919 248.954C175.749 254.151 173.828 260.666 168.622 263.495L100.485 300.567C95.2874 303.397 88.7724 301.476 85.9431 296.27L35.4162 203.372C32.5863 198.174 34.5071 191.659 39.7132 188.83L96.7477 157.802" stroke="#2881DD" stroke-width="2.8" stroke-miterlimit="10"/>
<path d="M78.2465 185.035L55.789 197.252C52.3524 199.121 51.0819 203.423 52.9513 206.859L64.3513 227.816C66.2207 231.253 70.5222 232.523 73.9588 230.654L96.4163 218.437C99.853 216.568 101.123 212.267 99.254 208.83L87.854 187.873C85.9846 184.437 81.6831 183.166 78.2465 185.035Z" fill="#D5E6FF"/>
<path d="M96.7422 157.799L129.504 169.107L105.905 183.266L96.7422 157.799Z" fill="white" stroke="#2881DD" stroke-width="2.77" stroke-linecap="round" stroke-linejoin="round"/>
<path d="M77.2533 246.7L131.108 217.051" stroke="#D5E6FF" stroke-width="2.8" stroke-linecap="round" stroke-linejoin="round"/>
<path d="M83.4259 258.024L137.271 228.382" stroke="#D5E6FF" stroke-width="2.8" stroke-linecap="round" stroke-linejoin="round"/>
<path d="M89.8353 269.806L125.157 250.358" stroke="#D5E6FF" stroke-width="2.8" stroke-linecap="round" stroke-linejoin="round"/>
<path d="M476.634 207.757L440.756 291.259C438.416 296.7 432.121 299.214 426.679 296.874L355.407 266.268C349.965 263.928 347.452 257.633 349.792 252.191L391.521 155.011C393.861 149.57 400.157 147.056 405.599 149.396L465.257 175.015" fill="white"/>
<path d="M476.634 207.757L440.756 291.259C438.416 296.7 432.121 299.214 426.679 296.874L355.407 266.268C349.965 263.928 347.452 257.633 349.792 252.191L391.521 155.011C393.861 149.57 400.157 147.056 405.599 149.396L465.257 175.015" stroke="#2881DD" stroke-width="2.8" stroke-miterlimit="10"/>
<path d="M432.428 177.293L408.937 167.207C405.342 165.663 401.177 167.326 399.633 170.921L390.221 192.843C388.678 196.438 390.341 200.603 393.936 202.147L417.427 212.233C421.022 213.776 425.188 212.113 426.731 208.518L436.143 186.596C437.686 183.001 436.023 178.836 432.428 177.293Z" fill="#D5E6FF"/>
<path d="M466.256 175.014L477.633 207.756L451.91 197.972L466.256 175.014Z" fill="white" stroke="#2881DD" stroke-width="2.77" stroke-linecap="round" stroke-linejoin="round"/>
<path d="M383.355 214.701L439.957 238.668" stroke="#D5E6FF" stroke-width="2.8" stroke-linecap="round" stroke-linejoin="round"/>
<path d="M378.266 226.541L434.868 250.516" stroke="#D5E6FF" stroke-width="2.8" stroke-linecap="round" stroke-linejoin="round"/>
<path d="M372.971 238.867L410.105 254.596" stroke="#D5E6FF" stroke-width="2.8" stroke-linecap="round" stroke-linejoin="round"/>
<path d="M312.357 153.427L312.996 244.307C313.039 250.226 308.276 255.058 302.357 255.101L224.79 255.662C218.872 255.705 214.04 250.942 213.997 245.023L213.229 139.268C213.186 133.349 217.948 128.518 223.867 128.475L288.794 128" fill="white"/>
<path d="M312.357 153.427L312.996 244.307C313.039 250.226 308.276 255.058 302.357 255.101L224.79 255.662C218.872 255.705 214.04 250.942 213.997 245.023L213.229 139.268C213.186 133.349 217.948 128.518 223.867 128.475L288.794 128" stroke="#2881DD" stroke-width="2.8" stroke-miterlimit="10"/>
<path d="M259.652 143.274L234.087 143.462C230.175 143.49 227.027 146.685 227.056 150.597L227.231 174.453C227.259 178.365 230.454 181.514 234.366 181.485L259.931 181.297C263.843 181.269 266.991 178.074 266.962 174.162L266.787 150.306C266.759 146.394 263.564 143.246 259.652 143.274Z" fill="#D5E6FF"/>
<path d="M288.795 128L312.358 153.427L284.869 154.782L288.795 128Z" fill="white" stroke="#2881DD" stroke-width="2.77" stroke-linecap="round" stroke-linejoin="round"/>
<path d="M229.699 197.206L291.166 196.455" stroke="#D5E6FF" stroke-width="2.8" stroke-linecap="round" stroke-linejoin="round"/>
<path d="M229.795 210.103L291.253 209.344" stroke="#D5E6FF" stroke-width="2.8" stroke-linecap="round" stroke-linejoin="round"/>
<path d="M229.891 223.513L270.21 223.021" stroke="#D5E6FF" stroke-width="2.8" stroke-linecap="round" stroke-linejoin="round"/>
<path d="M265.293 269V304.02" stroke="#2881DD" stroke-width="2" stroke-linecap="round"/>
<path d="M263.743 310.412C264.543 311.394 266.043 311.394 266.843 310.412L272.21 303.828C273.275 302.522 272.346 300.564 270.66 300.564H259.926C258.241 300.564 257.311 302.522 258.376 303.828L263.743 310.412Z" fill="#2881DD"/>
<path d="M136.406 295.354L154.883 325.102" stroke="#2881DD" stroke-width="2" stroke-linecap="round"/>
<path d="M156.939 331.35C158.137 331.762 159.411 330.97 159.573 329.714L160.658 321.289C160.874 319.617 159.051 318.445 157.619 319.335L148.501 324.998C147.069 325.887 147.312 328.04 148.906 328.588L156.939 331.35Z" fill="#2881DD"/>
<path d="M389.127 295.633L372.883 326.657" stroke="#2881DD" stroke-width="2" stroke-linecap="round"/>
<path d="M368.544 331.603C368.798 332.844 370.127 333.539 371.291 333.041L379.1 329.697C380.649 329.033 380.733 326.868 379.24 326.086L369.731 321.108C368.238 320.326 366.506 321.628 366.844 323.28L368.544 331.603Z" fill="#2881DD"/>
<path d="M373.092 393.412C373.092 393.412 373.085 393.412 373.078 393.412C372.459 393.412 371.961 393.928 371.961 394.542V433.746C371.961 434.374 372.473 434.876 373.099 434.876H410.379C410.976 434.876 411.482 434.417 411.517 433.824C411.56 433.089 411.588 432.348 411.588 431.606C411.588 410.514 394.354 393.412 373.092 393.412Z" fill="#D5E6FF"/>
<path d="M371.961 409.078V434.882H398.686" stroke="#2881DD" stroke-width="4.16" stroke-linecap="round" stroke-linejoin="round"/>
</svg>
