<svg width="329" height="84" viewBox="0 0 329 84" fill="none" xmlns="http://www.w3.org/2000/svg">
<g clip-path="url(#clip0_643_257)">
<rect width="329" height="84" fill="white"/>
<rect width="329" height="84" rx="42" fill="white"/>
<path d="M80.4844 23.3203V25.1484H90.2109V23.3203H92.4375V30.2812H78.2812V23.3203H80.4844ZM80.4844 28.5938H90.2109V26.7891H80.4844V28.5938ZM94.9219 31.8047V33.6094H86.4375V35.4141H92.5078V40.3125H80.2734V42.0703H93.0938V43.7812H78.0938V38.7188H90.3047V37.0781H78.0703V35.4141H84.2109V33.6094H75.7734V31.8047H94.9219ZM114.023 22.9922V38.5781H111.797V32.7891H108.516V30.9141H111.797V28.7109H108.516V26.8828H111.797V22.9922H114.023ZM108.281 24.6328V26.4375H106.266V33.4688C107.156 33.3984 108.012 33.3281 108.844 33.2344L108.938 34.875C104.906 35.5078 100.195 35.5781 96.8203 35.6016L96.5391 33.7266L99.0938 33.7031V26.4375H97.125V24.6328H108.281ZM114.562 41.7422V43.5469H100.336V37.3125H102.586V41.7422H114.562ZM101.25 33.6797C102.199 33.6562 103.16 33.6328 104.133 33.5859V26.4375H101.25V33.6797ZM133.758 23.0156V29.7656H136.805V31.6172H133.758V38.7188H131.531V23.0156H133.758ZM129.797 25.4531V27.2578H117.281V25.4531H122.438V22.9922H124.664V25.4531H129.797ZM123.539 28.2656C126.562 28.2656 128.625 29.8359 128.625 32.2266C128.625 34.6172 126.562 36.1641 123.539 36.1641C120.492 36.1641 118.43 34.6172 118.43 32.2266C118.43 29.8359 120.492 28.2656 123.539 28.2656ZM123.539 29.9766C121.758 29.9766 120.562 30.8438 120.586 32.2266C120.562 33.5859 121.758 34.4297 123.539 34.4297C125.32 34.4297 126.516 33.5859 126.539 32.2266C126.516 30.8438 125.32 29.9766 123.539 29.9766ZM134.648 41.7422V43.5469H120.445V37.4766H122.672V41.7422H134.648ZM161.367 22.9922V35.2266H159.141V29.9531H155.203V28.1016H159.141V22.9922H161.367ZM161.367 36.2109V43.7344H147.516V36.2109H161.367ZM149.719 37.9688V41.9297H159.188V37.9688H149.719ZM151.383 26.5781C151.383 29.2031 153.281 31.8047 156.445 32.9062L155.297 34.6641C152.941 33.832 151.195 32.1445 150.281 30.0703C149.367 32.3789 147.527 34.2305 145.031 35.1094L143.883 33.3516C147.117 32.25 149.109 29.4609 149.109 26.5781V26.0859H144.562V24.2578H155.883V26.0859H151.383V26.5781ZM186.961 22.9922V27.375H190.008V29.2266H186.961V33.6094H184.734V22.9922H186.961ZM186.961 34.5703V39.8906H175.617V41.9531H187.688V43.7344H173.438V38.2266H184.758V36.3047H173.391V34.5703H186.961ZM176.297 23.7188C179.484 23.7188 181.805 25.6406 181.805 28.4062C181.805 31.1719 179.484 33.0938 176.297 33.0938C173.109 33.0938 170.766 31.1719 170.789 28.4062C170.766 25.6406 173.109 23.7188 176.297 23.7188ZM176.297 25.5469C174.352 25.5469 172.945 26.6953 172.945 28.4062C172.945 30.1172 174.352 31.3125 176.297 31.3125C178.219 31.3125 179.648 30.1172 179.648 28.4062C179.648 26.6953 178.219 25.5469 176.297 25.5469ZM208.688 22.9922V44.0391H206.484V35.25H202.383V33.3984H206.484V29.5078H202.5V27.6797H206.484V22.9922H208.688ZM201.234 24.8438V32.5078H194.203V37.3359C197.18 37.3242 199.664 37.1836 202.664 36.75L202.852 38.5781C199.57 39.0938 196.898 39.1875 193.57 39.1875H191.977V30.75H199.055V26.6484H191.93V24.8438H201.234ZM231.094 34.8281V36.6328H222.562V43.9688H220.383V36.6328H211.945V34.8281H231.094ZM229.289 24.2344V26.0156H222.797C222.832 28.6172 226.066 30.9375 230.039 31.4766L229.219 33.2344C225.773 32.6953 222.797 30.9961 221.531 28.5938C220.23 30.9961 217.266 32.6953 213.867 33.2344L213.023 31.4766C216.949 30.9375 220.184 28.6172 220.266 26.0156H213.727V24.2344H229.289ZM250.148 22.9922V43.9922H247.898V22.9922H250.148ZM243.891 25.2422C243.891 31.3828 241.266 36.7266 234.07 40.1719L232.898 38.3672C238.488 35.707 241.207 31.9219 241.641 27.0234H233.906V25.2422H243.891Z" fill="#2A2829"/>
<path d="M63 57H265L242.512 66" stroke="#5A95F5" stroke-width="3" stroke-linecap="round"/>
</g>
<defs>
<clipPath id="clip0_643_257">
<rect width="329" height="84" fill="white"/>
</clipPath>
</defs>
</svg>
