<svg width="544" height="149" viewBox="0 0 544 149" fill="none" xmlns="http://www.w3.org/2000/svg">
<rect y="1" width="544" height="148" rx="20" fill="#F7F9FC"/>
<path d="M253.848 62.0352V88.6953H250.303V62.0352H253.848ZM248.398 62.4746V87.4648H244.883V74.1934H241.367V71.1758H244.883V62.4746H248.398ZM239.229 69.1836C239.229 73.6074 240.605 78.0898 244.502 80.3164L242.305 83.0703C239.932 81.6641 238.364 79.2764 237.471 76.4199C236.548 79.5254 234.937 82.1621 232.49 83.6562L230.234 80.9023C234.16 78.5 235.625 73.6953 235.625 69.1836V67.748H231.26V64.7598H243.271V67.748H239.229V69.1836ZM271.865 63.5879V66.5762H266.562C266.592 69.6963 268.438 72.8896 272.773 74.2812L270.869 77.1816C267.91 76.2295 265.874 74.3252 264.717 71.9375C263.53 74.5449 261.406 76.6104 258.301 77.6211L256.309 74.75C260.718 73.3291 262.725 69.916 262.783 66.5762H257.334V63.5879H271.865ZM277.871 62.0352V68.5098H281.475V71.6152H277.871V78.1191H274.121V62.0352H277.871ZM277.871 79.2617V88.6953H274.121V82.2207H259.912V79.2617H277.871ZM297.031 63.5586V66.5469H287.861V68.627H296.24V71.498H287.861V73.6953C292.549 73.6807 295.522 73.6074 298.906 73.0508L299.287 75.9512C295.479 76.5957 292.109 76.6543 286.396 76.6543H284.111V63.5586H297.031ZM304.971 62.0645V77.8848H301.221V62.0645H304.971ZM304.971 78.9688V88.4023H287.1V78.9688H304.971ZM290.791 81.8691V85.4141H301.309V81.8691H290.791ZM339.893 82.5137V85.502H315.488V82.5137H325.684V76.4785H329.404V82.5137H339.893ZM329.521 65.4629C329.521 69.2715 332.949 73.2852 339.043 74.2227L337.461 77.3281C332.773 76.4785 329.287 73.9736 327.529 70.6484C325.771 73.959 322.314 76.4932 317.656 77.3281L316.074 74.2227C322.109 73.2852 325.508 69.2422 325.537 65.4629V63.5586H329.521V65.4629ZM364.414 62.0352V88.6953H360.811V75.1309H358.379V87.5234H354.893V62.7383H358.379V72.1426H360.811V62.0352H364.414ZM353.018 65.3164C352.988 72.7578 350.762 78.8516 343.262 83.2168L341.094 80.6387C346.528 77.4453 348.857 73.5342 349.385 68.3047H342.441V65.3164H353.018ZM397.578 62.0352V88.6953H393.975V62.0352H397.578ZM392.188 62.5625V87.4355H388.643V75.0723H386.064V71.7324H388.643V62.5625H392.188ZM386.68 65.0527V68.0703H384.98V79.1445C385.728 79.0859 386.445 79.0127 387.119 78.9102L387.383 81.6055C383.164 82.5137 377.715 82.6016 374.375 82.6016L373.965 79.5254H376.191V68.0703H374.463V65.0527H386.68ZM379.502 79.4668L381.582 79.3789V68.0703H379.502V79.4668ZM422.51 62.0352V88.7539H418.73V62.0352H422.51ZM408.037 63.9102C412.051 63.9102 415.039 67.6016 415.039 73.4023C415.039 79.2617 412.051 82.9238 408.037 82.9238C403.936 82.9238 400.947 79.2617 400.977 73.4023C400.947 67.6016 403.936 63.9102 408.037 63.9102ZM408.037 67.2793C405.957 67.2793 404.58 69.4473 404.58 73.4023C404.58 77.3867 405.957 79.5254 408.037 79.5254C410.059 79.5254 411.436 77.3867 411.436 73.4023C411.436 69.4473 410.059 67.2793 408.037 67.2793ZM436.455 69.3008C436.455 73.6074 438.652 78.207 443.135 80.082L441.113 83.0117C437.964 81.6787 435.796 79.0273 434.609 75.7754C433.394 79.3057 431.182 82.2354 428.047 83.6855L425.908 80.7266C430.332 78.7637 432.617 73.8125 432.617 69.3008V67.6602H426.963V64.6133H442.021V67.6602H436.455V69.3008ZM448.438 62.0352V88.6953H444.658V62.0352H448.438Z" fill="#C4DCFF"/>
<path d="M87.0482 54.6099H59.4368C59.3758 54.6099 59.3191 54.6185 59.2581 54.6185C59.2101 54.6185 59.1665 54.6185 59.1186 54.6272C59.0706 54.6359 59.0226 54.6272 58.979 54.6359C56.193 54.853 54 56.9936 54 59.6032V93.011C54 95.7638 56.4416 98 59.4368 98H87.0482C89.6903 98 91.8965 96.2632 92.3848 93.9662C92.3935 93.9228 92.3979 93.8794 92.4066 93.836C92.4153 93.7925 92.4197 93.7491 92.4284 93.7057C92.4633 93.4756 92.4894 93.2454 92.4894 93.0066V59.5989C92.4894 56.846 90.0479 54.6099 87.0526 54.6099H87.0482ZM78.3633 92.4943C78.3633 93.4278 77.6133 94.192 76.7021 94.192H59.7159C58.8003 94.192 58.0547 93.4278 58.0547 92.4943V86.9147C58.0547 83.5323 60.1562 80.6318 63.0904 79.4985C64.4856 80.5189 66.1947 81.1181 68.039 81.1181C69.8832 81.1181 71.6839 80.4841 73.1008 79.416C76.1528 80.4841 78.3589 83.4498 78.3589 86.9147V92.4943H78.3633ZM61.4642 72.7249C61.4642 69.1253 64.4813 66.2118 68.2046 66.2118C71.928 66.2118 74.9451 69.1297 74.9451 72.7249C74.9451 76.3201 71.928 79.238 68.2046 79.238C64.4813 79.238 61.4642 76.3201 61.4642 72.7249ZM88.4478 83.9708H83.0894C82.4441 83.9708 81.921 83.5062 81.921 82.9331C81.921 82.3599 82.4441 81.8953 83.0894 81.8953H88.4478C89.093 81.8953 89.6162 82.3599 89.6162 82.9331C89.6162 83.5062 89.093 83.9708 88.4478 83.9708ZM88.4478 78.743H79.959C79.3137 78.743 78.7905 78.2784 78.7905 77.7052C78.7905 77.1321 79.3137 76.6675 79.959 76.6675H88.4478C89.093 76.6675 89.6162 77.1321 89.6162 77.7052C89.6162 78.2784 89.093 78.743 88.4478 78.743ZM88.4478 73.5152H81.7945C81.1492 73.5152 80.6261 73.0506 80.6261 72.4774C80.6261 71.9043 81.1492 71.4397 81.7945 71.4397H88.4478C89.093 71.4397 89.6162 71.9043 89.6162 72.4774C89.6162 73.0506 89.093 73.5152 88.4478 73.5152ZM88.4478 68.2873H78.1889C77.5436 68.2873 77.0204 67.8227 77.0204 67.2496C77.0204 66.6764 77.5436 66.2118 78.1889 66.2118H88.4478C89.093 66.2118 89.6162 66.6764 89.6162 67.2496C89.6162 67.8227 89.093 68.2873 88.4478 68.2873ZM88.4478 63.0595H59.3365C58.6913 63.0595 58.1681 62.5949 58.1681 62.0217C58.1681 61.4486 58.6913 60.984 59.3365 60.984H88.4478C89.093 60.984 89.6162 61.4486 89.6162 62.0217C89.6162 62.5949 89.093 63.0595 88.4478 63.0595Z" fill="#C4DCFF"/>
<path d="M93.4027 48H64.9578C62.0413 48 59.564 49.7033 58.6943 52.0573H86.9855C91.3339 52.0573 94.8698 55.228 94.8698 59.1194V92.722C94.8698 92.9098 94.861 93.0932 94.8434 93.2766C97.7907 92.6827 100 90.3287 100 87.5117V53.9134C100 50.6554 97.0396 48 93.3983 48H93.4027Z" fill="#D5E6FF"/>
</svg>
