<svg width="544" height="149" viewBox="0 0 544 149" fill="none" xmlns="http://www.w3.org/2000/svg">
<rect y="1" width="544" height="148" rx="20" fill="#2881DD"/>
<path d="M253.836 62.0186V88.7037H250.304V62.0186H253.836ZM230.238 80.9137C234.164 78.4896 235.625 73.7037 235.625 69.1664V67.7472H231.253V64.7535H243.27V67.7472H239.23V69.1664C239.22 73.6105 240.608 78.0856 244.503 80.3128L242.317 83.058C239.924 81.6595 238.37 79.2769 237.469 76.4075C236.537 79.5256 234.931 82.1568 232.497 83.6692L230.238 80.9137ZM241.374 74.1802V71.1761H244.886V62.4641H248.387V87.4606H244.886V74.1802H241.374ZM271.881 63.5932V66.5767H266.556C266.567 69.7051 268.452 72.8957 272.761 74.2942L270.866 77.174C267.913 76.221 265.883 74.3149 264.712 71.9427C263.521 74.5428 261.397 76.6146 258.3 77.6298L256.321 74.75C260.724 73.3204 262.723 69.9123 262.785 66.5767H257.337V63.5932H271.881ZM259.926 82.2396V79.2562H277.879V88.7037H274.129V82.2396H259.926ZM274.129 78.1167V62.0186H277.879V68.5035H281.463V71.6112H277.879V78.1167H274.129ZM297.032 63.5518V66.5456H287.874V68.6278H296.255V71.5076H287.874V73.6934C292.556 73.683 295.54 73.6105 298.907 73.0407L299.28 75.9517C295.488 76.6043 292.101 76.6664 286.413 76.6457H284.103V63.5518H297.032ZM287.097 88.4033V78.9765H304.967V88.4033H287.097ZM290.785 85.4095H301.3V81.8771H290.785V85.4095ZM301.217 77.8888V62.0601H304.967V77.8888H301.217ZM339.88 82.5193V85.5131H315.495V82.5193H325.699V76.4903H329.407V82.5193H339.88ZM316.065 74.2217C322.114 73.2894 325.512 69.2286 325.533 65.4579V63.5622H329.521V65.4579C329.511 69.27 332.94 73.2894 339.052 74.2217L337.456 77.3398C332.764 76.48 329.283 73.9731 327.532 70.6478C325.771 73.9627 322.311 76.5007 317.66 77.3398L316.065 74.2217ZM364.41 62.0186V88.7037H360.815V75.1333H358.37V87.5124H354.9V62.7231H358.37V72.1291H360.815V62.0186H364.41ZM341.091 80.6236C346.519 77.4537 348.86 73.5483 349.358 68.317H342.438V65.3232H353.004C352.994 72.761 350.777 78.8522 343.246 83.2134L341.091 80.6236ZM397.562 62.0186V88.7037H393.988V62.0186H397.562ZM373.974 79.5359C374.637 79.5359 375.383 79.5359 376.181 79.5256V68.058H374.472V65.0642H386.675V68.058H384.986V79.163C385.732 79.0905 386.447 79.0076 387.12 78.9144L387.369 81.5974C383.163 82.4986 377.724 82.5919 374.378 82.5919L373.974 79.5359ZM379.517 79.4634C380.19 79.4427 380.884 79.422 381.568 79.3909V68.058H379.517V79.4634ZM386.063 75.0815V71.7355H388.653V62.547H392.175V87.4296H388.653V75.0815H386.063ZM422.506 62.0186V88.7659H418.725V62.0186H422.506ZM400.969 73.393C400.959 67.5918 403.942 63.904 408.024 63.904C412.053 63.904 415.037 67.5918 415.047 73.393C415.037 79.2562 412.053 82.9233 408.024 82.9233C403.942 82.9233 400.959 79.2562 400.969 73.393ZM404.584 73.393C404.564 77.3812 405.952 79.5359 408.024 79.5359C410.054 79.5359 411.432 77.3812 411.432 73.393C411.432 69.4461 410.054 67.2811 408.024 67.2811C405.952 67.2811 404.564 69.4461 404.584 73.393ZM436.438 69.2907C436.438 73.6105 438.665 78.2203 443.13 80.0746L441.12 83.0062C437.971 81.6802 435.806 79.0283 434.604 75.7963C433.402 79.308 431.196 82.2293 428.047 83.6692L425.923 80.7376C430.336 78.759 432.625 73.8177 432.636 69.2907V67.654H426.969V64.5981H442.021V67.654H436.438V69.2907ZM444.652 88.7037V62.0186H448.433V88.7037H444.652Z" fill="white"/>
<path d="M87.0482 54.6099H59.4368C59.3758 54.6099 59.3191 54.6185 59.2581 54.6185C59.2101 54.6185 59.1665 54.6185 59.1186 54.6272C59.0706 54.6359 59.0226 54.6272 58.979 54.6359C56.193 54.853 54 56.9936 54 59.6032V93.011C54 95.7638 56.4416 98 59.4368 98H87.0482C89.6903 98 91.8965 96.2632 92.3848 93.9662C92.3935 93.9228 92.3979 93.8794 92.4066 93.836C92.4153 93.7925 92.4197 93.7491 92.4284 93.7057C92.4633 93.4756 92.4894 93.2454 92.4894 93.0066V59.5989C92.4894 56.846 90.0479 54.6099 87.0526 54.6099H87.0482ZM78.3633 92.4943C78.3633 93.4278 77.6133 94.192 76.7021 94.192H59.7159C58.8003 94.192 58.0547 93.4278 58.0547 92.4943V86.9147C58.0547 83.5323 60.1562 80.6318 63.0904 79.4985C64.4856 80.5189 66.1947 81.1181 68.039 81.1181C69.8832 81.1181 71.6839 80.4841 73.1008 79.416C76.1528 80.4841 78.3589 83.4498 78.3589 86.9147V92.4943H78.3633ZM61.4642 72.7249C61.4642 69.1253 64.4813 66.2118 68.2046 66.2118C71.928 66.2118 74.9451 69.1297 74.9451 72.7249C74.9451 76.3201 71.928 79.238 68.2046 79.238C64.4813 79.238 61.4642 76.3201 61.4642 72.7249ZM88.4478 83.9708H83.0894C82.4441 83.9708 81.921 83.5062 81.921 82.9331C81.921 82.3599 82.4441 81.8953 83.0894 81.8953H88.4478C89.093 81.8953 89.6162 82.3599 89.6162 82.9331C89.6162 83.5062 89.093 83.9708 88.4478 83.9708ZM88.4478 78.743H79.959C79.3137 78.743 78.7905 78.2784 78.7905 77.7052C78.7905 77.1321 79.3137 76.6675 79.959 76.6675H88.4478C89.093 76.6675 89.6162 77.1321 89.6162 77.7052C89.6162 78.2784 89.093 78.743 88.4478 78.743ZM88.4478 73.5152H81.7945C81.1492 73.5152 80.6261 73.0506 80.6261 72.4774C80.6261 71.9043 81.1492 71.4397 81.7945 71.4397H88.4478C89.093 71.4397 89.6162 71.9043 89.6162 72.4774C89.6162 73.0506 89.093 73.5152 88.4478 73.5152ZM88.4478 68.2873H78.1889C77.5436 68.2873 77.0204 67.8227 77.0204 67.2496C77.0204 66.6764 77.5436 66.2118 78.1889 66.2118H88.4478C89.093 66.2118 89.6162 66.6764 89.6162 67.2496C89.6162 67.8227 89.093 68.2873 88.4478 68.2873ZM88.4478 63.0595H59.3365C58.6913 63.0595 58.1681 62.5949 58.1681 62.0217C58.1681 61.4486 58.6913 60.984 59.3365 60.984H88.4478C89.093 60.984 89.6162 61.4486 89.6162 62.0217C89.6162 62.5949 89.093 63.0595 88.4478 63.0595Z" fill="#D5E6FF"/>
<path d="M93.4027 48H64.9578C62.0413 48 59.564 49.7033 58.6943 52.0573H86.9855C91.3339 52.0573 94.8698 55.228 94.8698 59.1194V92.722C94.8698 92.9098 94.861 93.0932 94.8434 93.2766C97.7907 92.6827 100 90.3287 100 87.5117V53.9134C100 50.6554 97.0396 48 93.3983 48H93.4027Z" fill="#E4E8FF"/>
</svg>
