<svg width="544" height="148" viewBox="0 0 544 148" fill="none" xmlns="http://www.w3.org/2000/svg">
<g clip-path="url(#clip0_643_252)">
<rect width="544" height="148" rx="20" fill="#F7F9FC"/>
<path d="M241.195 82.4844V85.5898H216.791V82.4844H241.195ZM239.145 64.3789V67.3672H235.395V75.4531H239.027V78.3828H218.812V75.4531H222.387V67.3672H218.695V64.3789H239.145ZM226.137 75.4531H231.703V67.3672H226.137V75.4531ZM265.072 62.0352V88.7539H261.352V62.0352H265.072ZM256.811 64.2617V74.5449H248.021V79.4375C252.079 79.4229 255.536 79.1885 259.447 78.5586L259.77 81.5762C255.375 82.3379 251.42 82.5137 246.557 82.5137H244.154V71.5859H253.002V67.2793H244.125V64.2617H256.811ZM293.051 82.4844V85.5898H268.646V82.4844H293.051ZM291 64.3789V67.3672H287.25V75.4531H290.883V78.3828H270.668V75.4531H274.242V67.3672H270.551V64.3789H291ZM277.992 75.4531H283.559V67.3672H277.992V75.4531ZM318.979 82.6602V85.7363H294.574V82.6602H304.857V78.6465H297.387V69.6816H312.475V66.752H297.357V63.7637H316.166V72.6113H301.137V75.5996H316.781V78.6465H308.578V82.6602H318.979ZM334.066 63.793V66.8105H325.658V74.2812C329.965 74.252 332.484 74.0615 335.238 73.4902L335.561 76.4492C332.396 77.1816 329.584 77.2695 324.047 77.2695H321.938V63.793H334.066ZM342.973 79.2617V88.6953H339.252V82.25H324.662V79.2617H342.973ZM342.973 62.0352V78.1191H339.252V71.7031H332.777V68.6855H339.252V62.0352H342.973ZM356.42 66.6348C356.42 70.3262 358.236 73.9883 362.455 75.541L360.375 78.4414C357.577 77.3428 355.658 75.248 354.574 72.6113C353.402 75.4238 351.337 77.6211 348.305 78.7637L346.312 75.834C350.678 74.2812 352.641 70.5312 352.641 66.6348V63.5586H356.42V66.6348ZM368.9 62.0645V81.8398H365.18V73.6953H360.609V70.6777H365.18V68.5391H360.609V65.5215H365.18V62.0645H368.9ZM369.457 85.2383V88.2266H351.146V79.9355H354.926V85.2383H369.457ZM394.154 64.3496V67.2793H379.33V64.3496H385.072V61.8008H388.793V64.3496H394.154ZM386.889 68.041C390.551 68.041 393.188 70.0332 393.217 72.9043C393.188 75.7754 390.551 77.7383 386.889 77.7383C383.197 77.7383 380.619 75.7754 380.648 72.9043C380.619 70.0332 383.197 68.041 386.889 68.041ZM386.889 70.8242C385.189 70.8242 384.105 71.5566 384.135 72.9043C384.105 74.252 385.189 75.0137 386.889 75.0137C388.559 75.0137 389.73 74.252 389.73 72.9043C389.73 71.5566 388.559 70.8242 386.889 70.8242ZM401.742 62.0352V77.9141H398.021V75.9805H394.389V72.9922H398.021V70.7363H394.447V67.7188H398.021V62.0352H401.742ZM387.504 78.9102V80.873H398.051V78.9102H401.742V88.4023H383.754V78.9102H387.504ZM387.504 85.5312H398.051V83.6562H387.504V85.5312ZM412.641 63.1777C416.054 63.1484 418.764 65.0967 419.496 67.9531H423.949V62.0352H427.67V76.3613H423.949V70.9414H419.525C418.822 73.8711 416.083 75.8633 412.641 75.8633C408.539 75.8633 405.521 73.1973 405.551 69.4766C405.521 65.8145 408.539 63.1484 412.641 63.1777ZM412.641 66.2832C410.561 66.2539 409.066 67.4844 409.096 69.4766C409.066 71.4688 410.561 72.7285 412.641 72.7285C414.662 72.7285 416.127 71.4688 416.127 69.4766C416.127 67.4844 414.662 66.2539 412.641 66.2832ZM413.578 77.5332V80.1113H423.949V77.5332H427.67V88.4023H409.887V77.5332H413.578ZM413.578 85.3848H423.949V82.9824H413.578V85.3848ZM459.75 70.0039V72.5527H441.029V62.4453H459.516V65.0234H444.779V66.2539H458.9V68.7148H444.779V70.0039H459.75ZM462.299 73.8125V76.5371H452.045V78.0312H459.398V84.4473H444.545V85.8535H460.102V88.5195H440.883V81.9277H455.707V80.6387H440.854V78.0312H448.295V76.5371H438.1V73.8125H462.299Z" fill="#C4DCFF"/>
<path d="M101 76.3223C101 87.188 91.6884 95.9999 80.1973 95.9999" stroke="#D5E6FF" stroke-width="1.87" stroke-linecap="round" stroke-linejoin="round"/>
<path d="M54 72.6777C54 61.8098 63.3137 53 74.8031 53" stroke="#D5E6FF" stroke-width="1.87" stroke-linecap="round" stroke-linejoin="round"/>
<path d="M88.3505 59.5586H66.5392C63.8689 59.5586 61.7041 61.6131 61.7041 64.1476V84.8484C61.7041 87.3828 63.8689 89.4374 66.5392 89.4374H88.3505C91.0208 89.4374 93.1856 87.3828 93.1856 84.8484V64.1476C93.1856 61.6131 91.0208 59.5586 88.3505 59.5586Z" fill="#C4DCFF"/>
<path d="M84.2349 73.0179H78.7803V67.841C78.7803 67.2916 78.3105 66.8457 77.7316 66.8457C77.1527 66.8457 76.6829 67.2916 76.6829 67.841V73.0179H71.2284C70.6495 73.0179 70.1797 73.4638 70.1797 74.0132C70.1797 74.5626 70.6495 75.0085 71.2284 75.0085H76.6829V80.1853C76.6829 80.7347 77.1527 81.1806 77.7316 81.1806C78.3105 81.1806 78.7803 80.7347 78.7803 80.1853V75.0085H84.2349C84.8137 75.0085 85.2835 74.5626 85.2835 74.0132C85.2835 73.4638 84.8137 73.0179 84.2349 73.0179Z" fill="#F7F9FC"/>
<path d="M94.3861 54.459H84.5001C82.1237 54.459 80.1973 56.2812 80.1973 58.529V67.8802C80.1973 70.128 82.1237 71.9502 84.5001 71.9502H94.3861C96.7625 71.9502 98.6889 70.128 98.6889 67.8802V58.529C98.6889 56.2812 96.7625 54.459 94.3861 54.459Z" fill="#F6F9FF"/>
<path d="M71.2709 76.3223H61.3848C59.0085 76.3223 57.082 78.1445 57.082 80.3923V89.7435C57.082 91.9913 59.0085 93.8135 61.3848 93.8135H71.2709C73.6472 93.8135 75.5737 91.9913 75.5737 89.7435V80.3923C75.5737 78.1445 73.6472 76.3223 71.2709 76.3223Z" fill="#F6F9FF"/>
</g>
<defs>
<clipPath id="clip0_643_252">
<rect width="544" height="148" fill="white"/>
</clipPath>
</defs>
</svg>
