<svg width="544" height="148" viewBox="0 0 544 148" fill="none" xmlns="http://www.w3.org/2000/svg">
<g clip-path="url(#clip0_643_156)">
<rect width="544" height="148" rx="20" fill="#2881DD"/>
<path d="M241.183 82.4986V85.596H216.798V82.4986H241.183ZM218.704 67.3743V64.3702H239.153V67.3743H235.392V75.4441H239.028V78.3964H218.818V75.4441H222.392V67.3743H218.704ZM226.121 75.4441H231.704V67.3743H226.121V75.4441ZM265.06 62.0186V88.7659H261.341V62.0186H265.06ZM244.134 67.2811V64.2666H256.803V74.5428H248.009V79.4427C252.09 79.4116 255.54 79.1941 259.435 78.5414L259.756 81.5767C255.384 82.3536 251.427 82.5193 246.548 82.5193H244.155V71.6008H252.991V67.2811H244.134ZM293.038 82.4986V85.596H268.653V82.4986H293.038ZM270.559 67.3743V64.3702H291.008V67.3743H287.248V75.4441H290.884V78.3964H270.673V75.4441H274.247V67.3743H270.559ZM277.976 75.4441H283.56V67.3743H277.976V75.4441ZM318.966 82.6644V85.7203H294.581V82.6644H304.867V78.6347H297.388V69.6637H312.461V66.7631H297.347V63.759H316.159V72.5953H301.117V75.5994H316.78V78.6347H308.566V82.6644H318.966ZM334.069 63.8004V66.8253H325.657V74.2631C329.977 74.232 332.473 74.0559 335.229 73.4862L335.571 76.4489C332.401 77.1948 329.573 77.2776 324.041 77.2673H321.938V63.8004H334.069ZM324.652 82.2396V79.2666H342.978V88.7037H339.248V82.2396H324.652ZM332.784 71.6941V68.6796H339.248V62.0186H342.978V78.1271H339.248V71.6941H332.784ZM356.412 66.6388C356.412 70.3267 358.246 73.9834 362.452 75.5269L360.38 78.4275C357.583 77.3294 355.656 75.2369 354.558 72.616C353.418 75.413 351.357 77.6298 348.322 78.7693L346.302 75.8377C350.694 74.2838 352.631 70.5442 352.641 66.6388V63.5518H356.412V66.6388ZM351.15 88.2376V79.9399H354.931V85.2231H369.475V88.2376H351.15ZM360.618 73.6934V70.6892H365.176V68.5345H360.618V65.52H365.176V62.0601H368.905V81.8253H365.176V73.6934H360.618ZM394.143 64.3391V67.2811H379.33V64.3391H385.069V61.8115H388.788V64.3391H394.143ZM380.646 72.8957C380.625 70.0262 383.204 68.0477 386.892 68.0477C390.549 68.0477 393.19 70.0262 393.211 72.8957C393.19 75.7859 390.549 77.7334 386.892 77.7334C383.204 77.7334 380.625 75.7859 380.646 72.8957ZM383.764 88.4033V78.9144H387.503V80.8826H398.038V78.9144H401.747V88.4033H383.764ZM384.126 72.8957C384.116 74.2424 385.204 75.0297 386.892 75.0297C388.56 75.0297 389.73 74.2424 389.741 72.8957C389.73 71.5698 388.56 70.8343 386.892 70.8343C385.204 70.8343 384.116 71.5698 384.126 72.8957ZM387.503 85.5131H398.038V83.6588H387.503V85.5131ZM394.382 75.9724V72.9786H398.018V70.7203H394.444V67.7265H398.018V62.0186H401.747V77.9095H398.018V75.9724H394.382ZM412.633 63.1685C416.041 63.1478 418.766 65.1057 419.501 67.9648H423.945V62.0186H427.675V76.366H423.945V70.9378H419.512C418.818 73.8695 416.073 75.8584 412.633 75.8584C408.531 75.8584 405.517 73.1961 405.537 69.4772C405.517 65.8204 408.531 63.1478 412.633 63.1685ZM409.08 69.4772C409.08 71.4662 410.551 72.73 412.633 72.73C414.664 72.73 416.114 71.4662 416.135 69.4772C416.114 67.4883 414.664 66.2659 412.633 66.2762C410.551 66.2659 409.08 67.4883 409.08 69.4772ZM409.888 88.4033V77.5366H413.566V80.1057H423.945V77.5366H427.675V88.4033H409.888ZM413.566 85.3785H423.945V82.9751H413.566V85.3785ZM459.75 69.9952V72.5539H441.041V62.4434H459.522V65.0124H444.771V66.2659H458.901V68.721H444.771V69.9952H459.75ZM438.099 76.5318V73.8177H462.309V76.5318H452.032V78.0338H459.398V84.4461H444.543V85.8446H460.092V88.5173H440.876V81.9392H455.71V80.6443H440.855V78.0338H448.282V76.5318H438.099Z" fill="white"/>
<path d="M101 76.3223C101 87.188 91.6884 95.9999 80.1973 95.9999" stroke="#F7F9FC" stroke-width="1.87" stroke-linecap="round" stroke-linejoin="round"/>
<path d="M54 72.6777C54 61.8098 63.3137 53 74.8031 53" stroke="#F7F9FC" stroke-width="1.87" stroke-linecap="round" stroke-linejoin="round"/>
<path d="M88.3505 59.5586H66.5392C63.8689 59.5586 61.7041 61.6131 61.7041 64.1476V84.8484C61.7041 87.3828 63.8689 89.4374 66.5392 89.4374H88.3505C91.0208 89.4374 93.1856 87.3828 93.1856 84.8484V64.1476C93.1856 61.6131 91.0208 59.5586 88.3505 59.5586Z" fill="#D5E6FF"/>
<path d="M84.2349 73.0179H78.7803V67.841C78.7803 67.2916 78.3105 66.8457 77.7316 66.8457C77.1527 66.8457 76.6829 67.2916 76.6829 67.841V73.0179H71.2284C70.6495 73.0179 70.1797 73.4638 70.1797 74.0132C70.1797 74.5626 70.6495 75.0085 71.2284 75.0085H76.6829V80.1853C76.6829 80.7347 77.1527 81.1806 77.7316 81.1806C78.3105 81.1806 78.7803 80.7347 78.7803 80.1853V75.0085H84.2349C84.8137 75.0085 85.2835 74.5626 85.2835 74.0132C85.2835 73.4638 84.8137 73.0179 84.2349 73.0179Z" fill="#2881DD"/>
<path d="M94.3861 54.459H84.5001C82.1237 54.459 80.1973 56.2812 80.1973 58.529V67.8802C80.1973 70.128 82.1237 71.9502 84.5001 71.9502H94.3861C96.7625 71.9502 98.6889 70.128 98.6889 67.8802V58.529C98.6889 56.2812 96.7625 54.459 94.3861 54.459Z" fill="#F6F9FF"/>
<path d="M71.2709 76.3223H61.3848C59.0085 76.3223 57.082 78.1445 57.082 80.3923V89.7435C57.082 91.9913 59.0085 93.8135 61.3848 93.8135H71.2709C73.6472 93.8135 75.5737 91.9913 75.5737 89.7435V80.3923C75.5737 78.1445 73.6472 76.3223 71.2709 76.3223Z" fill="#F6F9FF"/>
</g>
<defs>
<clipPath id="clip0_643_156">
<rect width="544" height="148" fill="white"/>
</clipPath>
</defs>
</svg>
