<svg width="341" height="351" viewBox="0 0 341 351" fill="none" xmlns="http://www.w3.org/2000/svg">
<rect width="341" height="351" fill="white"/>
<path d="M172.67 205.406C223.888 205.406 265.409 164.264 265.409 113.514C265.409 62.7627 223.888 21.6211 172.67 21.6211C121.453 21.6211 79.9324 62.7627 79.9324 113.514C79.9324 164.264 121.453 205.406 172.67 205.406Z" fill="#9CA9FF"/>
<path d="M268.975 108.176C268.975 108.176 268.905 108.176 268.865 108.176C263.672 108.176 259.438 112.313 259.378 117.469C258.849 164.305 219.96 202.414 172.672 202.414C125.384 202.414 85.9558 163.87 85.9558 116.489C85.9558 69.1078 124.855 30.5735 172.672 30.5735C177.915 30.5735 182.159 26.3678 182.159 21.1725C182.159 15.9772 177.915 11.7715 172.672 11.7715C114.398 11.7715 66.9807 58.7469 66.9807 116.499C66.9807 174.251 114.388 221.226 172.672 221.226C200.695 221.226 227.1 210.469 247.014 190.945C266.918 171.43 278.043 145.414 278.353 117.686C278.413 112.491 274.208 108.236 268.975 108.186V108.176Z" fill="#2237C6"/>
<path d="M37.6784 263.161C32.3675 270.685 35.1883 280.466 46.1041 285.571L157.054 337.479C161.133 339.386 165.81 340.344 170.487 340.344C175.164 340.344 179.905 339.378 183.994 337.446L295.054 285.06C305.914 279.938 308.689 270.182 303.397 262.682C302.524 263.185 301.623 263.672 300.677 264.11L189.617 316.497C183.874 319.208 177.259 320.636 170.478 320.636C163.697 320.636 157.173 319.224 151.449 316.545L40.5084 264.646" fill="#2237C6"/>
<path d="M42.0841 250.828C43.3866 251.855 44.8634 252.791 46.5511 253.608L47.7527 254.189L157.309 307.481C161.382 309.461 166.051 310.455 170.719 310.455C175.388 310.455 180.121 309.452 184.203 307.447L293.796 253.7L295.071 253.077C296.722 252.268 298.18 251.342 299.455 250.331C301.07 249.059 302.381 247.652 303.4 246.152C307.582 239.994 306.72 232.37 300.804 226.818C300.767 226.835 300.73 226.86 300.684 226.877L282.55 235.773L276.221 238.874L269.892 241.974L189.807 281.248C184.074 284.062 177.47 285.544 170.701 285.544C163.932 285.544 157.419 284.078 151.714 281.298L71.6563 242.361L65.3181 239.278L58.9799 236.195L40.9651 227.433" fill="#2237C6"/>
<path d="M268.975 108.176C268.975 108.176 268.905 108.176 268.865 108.176C263.672 108.176 259.438 112.313 259.378 117.469C259.238 130.284 256.202 142.446 250.929 153.351C236.927 182.306 207.017 202.414 172.672 202.414C138.327 202.414 107.258 181.633 93.6357 151.837C88.7022 141.05 85.9558 129.086 85.9558 116.499C85.9558 69.1177 124.855 30.5735 172.672 30.5735C177.915 30.5735 182.159 26.3678 182.159 21.1725C182.159 15.9772 177.915 11.7715 172.672 11.7715C114.398 11.7715 66.9807 58.7469 66.9807 116.499C66.9807 132.312 70.546 147.314 76.8977 160.763C93.7655 196.447 130.347 221.216 172.662 221.216C200.685 221.216 227.09 210.459 247.004 190.935C255.633 182.474 262.614 172.786 267.777 162.267C274.518 148.531 278.173 133.381 278.343 117.676C278.403 112.481 274.198 108.226 268.965 108.176H268.975Z" fill="#2237C6"/>
<path d="M40.2908 212.847C41.7333 214.225 43.4883 215.466 45.5372 216.536C45.7301 216.639 45.9139 216.741 46.116 216.844L51.8678 219.685L71.2269 229.236L77.5759 232.368L83.9248 235.501L157.052 271.573C161.132 273.584 165.809 274.594 170.485 274.594C175.162 274.594 179.903 273.575 183.992 271.539L257.156 235.15L263.496 232L269.835 228.851L289.222 219.206L295.047 216.305C295.213 216.219 295.378 216.125 295.544 216.04C297.593 214.97 299.347 213.72 300.79 212.351C309.298 204.255 307.387 191.82 295.047 185.675L272.169 174.293C266.767 184.503 259.526 193.917 250.587 202.158C229.665 221.44 201.936 232.06 172.497 232.06C128.321 232.06 90.0992 207.901 72.2376 173.035L45.9507 186.215C33.6754 192.368 31.8011 204.777 40.2816 212.847" fill="#2237C6"/>
<path d="M229.443 134.756H171.669C167.634 134.756 164.358 131.511 164.358 127.513V69.0582C164.358 65.0603 167.634 61.8145 171.669 61.8145C175.703 61.8145 178.979 65.0603 178.979 69.0582V120.269H229.453C233.488 120.269 236.763 123.515 236.763 127.513C236.763 131.511 233.488 134.756 229.453 134.756H229.443Z" fill="white"/>
<path d="M203.131 35.5985C208.404 35.5985 212.679 31.3629 212.679 26.1381C212.679 20.9133 208.404 16.6777 203.131 16.6777C197.858 16.6777 193.584 20.9133 193.584 26.1381C193.584 31.3629 197.858 35.5985 203.131 35.5985Z" fill="#2237C6"/>
<path d="M231.725 50.5855C236.97 50.5855 241.222 46.3721 241.222 41.1746C241.222 35.9771 236.97 31.7637 231.725 31.7637C226.479 31.7637 222.227 35.9771 222.227 41.1746C222.227 46.3721 226.479 50.5855 231.725 50.5855Z" fill="#2237C6"/>
<path d="M252.466 72.8732C257.849 72.8732 262.213 68.5491 262.213 63.2149C262.213 57.8808 257.849 53.5566 252.466 53.5566C247.082 53.5566 242.719 57.8808 242.719 63.2149C242.719 68.5491 247.082 72.8732 252.466 72.8732Z" fill="#2237C6"/>
<path d="M264.607 98.4208C269.88 98.4208 274.154 94.1852 274.154 88.9604C274.154 83.7356 269.88 79.5 264.607 79.5C259.334 79.5 255.06 83.7356 255.06 88.9604C255.06 94.1852 259.334 98.4208 264.607 98.4208Z" fill="#2237C6"/>
</svg>
