<svg width="341" height="351" viewBox="0 0 341 351" fill="none" xmlns="http://www.w3.org/2000/svg">
<rect width="341" height="351" fill="white"/>
<path d="M232.613 63.7656H63.364C62.9898 63.7656 62.6424 63.8185 62.2683 63.8185C61.9743 63.8185 61.707 63.8185 61.4131 63.8714C61.1191 63.9243 60.8251 63.8714 60.5579 63.9243C43.4807 65.2466 30.0381 78.2842 30.0381 94.1778V297.649C30.0381 314.415 45.004 328.035 63.364 328.035H232.613C248.808 328.035 262.331 317.456 265.324 303.467C265.377 303.202 265.404 302.938 265.457 302.673C265.511 302.409 265.538 302.145 265.591 301.88C265.805 300.478 265.965 299.077 265.965 297.622V94.1514C265.965 77.385 250.999 63.7656 232.639 63.7656H232.613ZM179.377 294.502C179.377 300.188 174.78 304.842 169.194 304.842H65.0744C59.4622 304.842 54.8922 300.188 54.8922 294.502V260.519C54.8922 239.919 67.7736 222.253 85.7594 215.351C94.3114 221.565 104.788 225.215 116.092 225.215C127.397 225.215 138.434 221.354 147.12 214.848C165.827 221.354 179.35 239.416 179.35 260.519V294.502H179.377ZM75.7911 174.096C75.7911 152.173 94.2847 134.428 117.108 134.428C139.931 134.428 158.424 152.199 158.424 174.096C158.424 195.993 139.931 213.764 117.108 213.764C94.2847 213.764 75.7911 195.993 75.7911 174.096ZM241.191 242.589H208.346C204.391 242.589 201.184 239.76 201.184 236.269C201.184 232.778 204.391 229.949 208.346 229.949H241.191C245.147 229.949 248.353 232.778 248.353 236.269C248.353 239.76 245.147 242.589 241.191 242.589ZM241.191 210.749H189.158C185.203 210.749 181.996 207.92 181.996 204.429C181.996 200.938 185.203 198.108 189.158 198.108H241.191C245.147 198.108 248.353 200.938 248.353 204.429C248.353 207.92 245.147 210.749 241.191 210.749ZM241.191 178.909H200.409C196.454 178.909 193.247 176.079 193.247 172.588C193.247 169.098 196.454 166.268 200.409 166.268H241.191C245.147 166.268 248.353 169.098 248.353 172.588C248.353 176.079 245.147 178.909 241.191 178.909ZM241.191 147.069H178.308C174.352 147.069 171.145 144.239 171.145 140.748C171.145 137.257 174.352 134.428 178.308 134.428H241.191C245.147 134.428 248.353 137.257 248.353 140.748C248.353 144.239 245.147 147.069 241.191 147.069ZM241.191 115.228H62.7493C58.794 115.228 55.5871 112.399 55.5871 108.908C55.5871 105.417 58.794 102.587 62.7493 102.587H241.191C245.147 102.587 248.353 105.417 248.353 108.908C248.353 112.399 245.147 115.228 241.191 115.228Z" fill="#2237C6"/>
<path d="M271.561 23.5215H97.2029C79.3256 23.5215 64.1407 33.8954 58.8098 48.2326H232.225C258.879 48.2326 280.553 67.544 280.553 91.2443V295.902C280.553 297.046 280.499 298.163 280.391 299.28C298.457 295.663 312 281.326 312 264.169V59.5375C312 39.6941 293.853 23.5215 271.534 23.5215H271.561Z" fill="#9CA9FF"/>
</svg>
