<svg width="341" height="351" viewBox="0 0 341 351" fill="none" xmlns="http://www.w3.org/2000/svg">
<rect width="341" height="351" fill="white"/>
<path d="M243.593 67H97.4067C79.509 67 65 81.9903 65 100.482V251.518C65 270.01 79.509 285 97.4067 285H243.593C261.491 285 276 270.01 276 251.518V100.482C276 81.9903 261.491 67 243.593 67Z" fill="#2237C6"/>
<path d="M283.379 29H217.621C201.814 29 189 42.439 189 59.017V127.983C189 144.561 201.814 158 217.621 158H283.379C299.186 158 312 144.561 312 127.983V59.017C312 42.439 299.186 29 283.379 29Z" fill="#9CA9FF"/>
<path d="M129.146 190H62.8535C46.9182 190 34 203.231 34 219.552V287.448C34 303.769 46.9182 317 62.8535 317H129.146C145.082 317 158 303.769 158 287.448V219.552C158 203.231 145.082 190 129.146 190Z" fill="#9CA9FF"/>
<path d="M215.987 165.21H179.513V127.29C179.513 123.266 176.371 120 172.5 120C168.629 120 165.487 123.266 165.487 127.29V165.21H129.013C125.142 165.21 122 168.476 122 172.5C122 176.524 125.142 179.79 129.013 179.79H165.487V217.71C165.487 221.734 168.629 225 172.5 225C176.371 225 179.513 221.734 179.513 217.71V179.79H215.987C219.858 179.79 223 176.524 223 172.5C223 168.476 219.858 165.21 215.987 165.21Z" fill="white"/>
<path d="M328 190C328 268.963 265.78 333 189 333" stroke="#2237C6" stroke-width="10.87" stroke-linecap="round" stroke-linejoin="round"/>
<path d="M14 162C14 83.0222 76.2313 19 153 19" stroke="#2237C6" stroke-width="10.87" stroke-linecap="round" stroke-linejoin="round"/>
</svg>
