<svg width="248" height="70" viewBox="0 0 248 70" fill="none" xmlns="http://www.w3.org/2000/svg">
<g clip-path="url(#clip0_1355_329)">
<path d="M35 1.48535H213C231.778 1.48535 247 16.7077 247 35.4854C247 54.263 231.778 69.4854 213 69.4854H35C16.2223 69.4854 1 54.263 1 35.4854C1 16.7077 16.2223 1.48535 35 1.48535Z" fill="#E6EADC" stroke="#2B6C36" stroke-width="2"/>
<path d="M72.5991 37.3809V39.2734H65.9937V44.8027H63.6558V39.2734H57.1431V37.3809H72.5991ZM70.7437 28.7529V35.5625H58.9614V28.7529H70.7437ZM61.2993 30.627V33.707H68.3872V30.627H61.2993ZM89.0386 40.999V42.9473H73.5825V40.999H77.5347V38.4199H75.3638V32.7422H84.9194V30.9238H75.3452V29.0312H87.2573V34.6348H77.7388V36.5088H87.647V38.4199H85.2534V40.999H89.0386ZM79.8354 40.999H82.9341V38.4199H79.8354V40.999ZM97.0913 29.458V33.373H99.4292V29.458H101.582V34.0967H103.27V28.2148H105.497V44.0791H103.27V36.0264H101.582V40.8135H94.8647V29.458H97.0913ZM97.0913 38.8838H99.4292V35.2471H97.0913V38.8838ZM109.022 27.9365V44.8213H106.758V27.9365H109.022ZM119.468 29.3281V31.2578H113.865V34.041H119.227V35.8965H113.865V39.0879C116.286 39.0693 118.253 38.9673 120.507 38.6055L120.73 40.5166C118.151 40.9062 115.85 40.9805 112.9 40.9805H111.471V29.3281H119.468ZM124.125 27.9365V34.3379H126.612V36.3232H124.125V44.8213H121.75V27.9365H124.125ZM137.986 31.7588C137.986 34.9316 139.266 38.0117 142.086 39.2363L140.639 41.1289C138.765 40.2104 137.513 38.5312 136.817 36.4531C136.075 38.6611 134.776 40.4702 132.846 41.4258L131.362 39.4961C134.256 38.1973 135.574 34.9316 135.592 31.7588V29.2354H137.986V31.7588ZM145.853 27.9365V44.8584H143.515V35.1543H140.194V33.2432H143.515V27.9365H145.853ZM162.163 27.9365V44.8584H159.769V27.9365H162.163ZM151.234 29.2725V33.3916H154.871V29.2725H157.208V40.9062H148.859V29.2725H151.234ZM151.234 38.9951H154.871V35.2285H151.234V38.9951ZM173.333 30.1631C173.333 32.6309 175.522 35.2842 179.344 35.9336L178.305 37.9004C175.364 37.3159 173.175 35.6646 172.089 33.4844C170.967 35.646 168.777 37.3066 165.855 37.9004L164.834 35.9336C168.583 35.2656 170.791 32.6123 170.809 30.1631V28.9385H173.333V30.1631ZM179.901 40.7949V42.7432H164.445V40.7949H179.901ZM199.383 27.9551V40.2754H197.008V27.9551H199.383ZM199.829 42.6318V44.5244H188.065V39.0879H190.458V42.6318H199.829ZM191.72 30.5156C191.702 32.7422 192.889 34.9316 195.672 35.8223L194.466 37.6777C192.564 37.0469 191.247 35.7852 190.496 34.1709C189.744 35.9058 188.39 37.2974 186.414 37.9746L185.189 36.1006C188.028 35.1543 189.252 32.7979 189.252 30.5156V28.8828H191.72V30.5156ZM211.295 29.6992V31.5547H207.881C207.9 33.2896 209.18 35.0522 211.889 35.748L210.794 37.5664C208.874 37.084 207.52 36.0171 206.75 34.6348C206.017 36.2119 204.662 37.4458 202.667 38.0117L201.554 36.1748C204.263 35.4048 205.506 33.4751 205.525 31.5547H202.129V29.6992H205.525V27.8623H207.918V29.6992H211.295ZM215.897 27.9365V38.1416H213.541V34.3564H210.794V32.4639H213.541V27.9365H215.897ZM210.126 38.4199C213.726 38.4385 215.934 39.5703 215.953 41.5928C215.934 43.6338 213.726 44.8213 210.126 44.8213C206.545 44.8213 204.319 43.6338 204.319 41.5928C204.319 39.5703 206.545 38.4385 210.126 38.4199ZM210.126 40.2383C207.881 40.2383 206.675 40.6836 206.675 41.5928C206.675 42.5205 207.881 43.0215 210.126 43.0215C212.409 43.0215 213.596 42.5205 213.596 41.5928C213.596 40.6836 212.409 40.2383 210.126 40.2383Z" fill="#2B6C36"/>
<path d="M27.877 29.1445C27.877 27.4877 29.2201 26.1445 30.877 26.1445H40.063C41.7199 26.1445 43.063 27.4877 43.063 29.1445V41.8853C43.063 43.5422 41.7199 44.8853 40.063 44.8853H30.877C29.2201 44.8853 27.877 43.5422 27.877 41.8853V29.1445Z" fill="#2B6C36"/>
<path d="M31.252 35.7324H39.685" stroke="#E6EADC" stroke-width="1.5" stroke-linecap="round"/>
<path d="M31.252 38.543H39.685" stroke="#E6EADC" stroke-width="1.5" stroke-linecap="round"/>
<path d="M31.252 41.3545H39.685" stroke="#E6EADC" stroke-width="1.5" stroke-linecap="round"/>
<path d="M36.399 27.0893L36.8065 30.5947C36.9203 31.5744 37.8208 32.2665 38.7968 32.1245L42.2891 31.6163C43.8199 31.3935 44.3301 29.4397 43.1035 28.497L39.2038 25.4997C37.9772 24.557 36.2204 25.5526 36.399 27.0893Z" fill="#2B6C36" stroke="#E6EADC" stroke-width="1.5"/>
</g>
<defs>
<clipPath id="clip0_1355_329">
<rect width="248" height="70" fill="white"/>
</clipPath>
</defs>
</svg>
