<svg width="248" height="70" viewBox="0 0 248 70" fill="none" xmlns="http://www.w3.org/2000/svg">
<g clip-path="url(#clip0_1355_348)">
<path d="M35 1.48535H213C231.778 1.48535 247 16.7077 247 35.4854C247 54.263 231.778 69.4854 213 69.4854H35C16.2223 69.4854 1 54.263 1 35.4854C1 16.7077 16.2223 1.48535 35 1.48535Z" fill="#2B6C36" stroke="#2B6C36" stroke-width="2"/>
<path d="M72.5991 37.3818V39.2744H65.9937V44.8037H63.6558V39.2744H57.1431V37.3818H72.5991ZM70.7437 28.7539V35.5635H58.9614V28.7539H70.7437ZM61.2993 30.6279V33.708H68.3872V30.6279H61.2993ZM89.0386 41V42.9482H73.5825V41H77.5347V38.4209H75.3638V32.7432H84.9194V30.9248H75.3452V29.0322H87.2573V34.6357H77.7388V36.5098H87.647V38.4209H85.2534V41H89.0386ZM79.8354 41H82.9341V38.4209H79.8354V41ZM97.0913 29.459V33.374H99.4292V29.459H101.582V34.0977H103.27V28.2158H105.497V44.0801H103.27V36.0273H101.582V40.8145H94.8647V29.459H97.0913ZM97.0913 38.8848H99.4292V35.248H97.0913V38.8848ZM109.022 27.9375V44.8223H106.758V27.9375H109.022ZM119.468 29.3291V31.2588H113.865V34.042H119.227V35.8975H113.865V39.0889C116.286 39.0703 118.253 38.9683 120.507 38.6064L120.73 40.5176C118.151 40.9072 115.85 40.9814 112.9 40.9814H111.471V29.3291H119.468ZM124.125 27.9375V34.3389H126.612V36.3242H124.125V44.8223H121.75V27.9375H124.125ZM137.986 31.7598C137.986 34.9326 139.266 38.0127 142.086 39.2373L140.639 41.1299C138.765 40.2114 137.513 38.5322 136.817 36.4541C136.075 38.6621 134.776 40.4712 132.846 41.4268L131.362 39.4971C134.256 38.1982 135.574 34.9326 135.592 31.7598V29.2363H137.986V31.7598ZM145.853 27.9375V44.8594H143.515V35.1553H140.194V33.2441H143.515V27.9375H145.853ZM162.163 27.9375V44.8594H159.769V27.9375H162.163ZM151.234 29.2734V33.3926H154.871V29.2734H157.208V40.9072H148.859V29.2734H151.234ZM151.234 38.9961H154.871V35.2295H151.234V38.9961ZM173.333 30.1641C173.333 32.6318 175.522 35.2852 179.344 35.9346L178.305 37.9014C175.364 37.3169 173.175 35.6655 172.089 33.4854C170.967 35.647 168.777 37.3076 165.855 37.9014L164.834 35.9346C168.583 35.2666 170.791 32.6133 170.809 30.1641V28.9395H173.333V30.1641ZM179.901 40.7959V42.7441H164.445V40.7959H179.901ZM199.383 27.9561V40.2764H197.008V27.9561H199.383ZM199.829 42.6328V44.5254H188.065V39.0889H190.458V42.6328H199.829ZM191.72 30.5166C191.702 32.7432 192.889 34.9326 195.672 35.8232L194.466 37.6787C192.564 37.0479 191.247 35.7861 190.496 34.1719C189.744 35.9067 188.39 37.2983 186.414 37.9756L185.189 36.1016C188.028 35.1553 189.252 32.7988 189.252 30.5166V28.8838H191.72V30.5166ZM211.295 29.7002V31.5557H207.881C207.9 33.2905 209.18 35.0532 211.889 35.749L210.794 37.5674C208.874 37.085 207.52 36.0181 206.75 34.6357C206.017 36.2129 204.662 37.4468 202.667 38.0127L201.554 36.1758C204.263 35.4058 205.506 33.4761 205.525 31.5557H202.129V29.7002H205.525V27.8633H207.918V29.7002H211.295ZM215.897 27.9375V38.1426H213.541V34.3574H210.794V32.4648H213.541V27.9375H215.897ZM210.126 38.4209C213.726 38.4395 215.934 39.5713 215.953 41.5938C215.934 43.6348 213.726 44.8223 210.126 44.8223C206.545 44.8223 204.319 43.6348 204.319 41.5938C204.319 39.5713 206.545 38.4395 210.126 38.4209ZM210.126 40.2393C207.881 40.2393 206.675 40.6846 206.675 41.5938C206.675 42.5215 207.881 43.0225 210.126 43.0225C212.409 43.0225 213.596 42.5215 213.596 41.5938C213.596 40.6846 212.409 40.2393 210.126 40.2393Z" fill="#E6EADC"/>
<path d="M27.877 29.1445C27.877 27.4877 29.2201 26.1445 30.877 26.1445H40.063C41.7199 26.1445 43.063 27.4877 43.063 29.1445V41.8853C43.063 43.5422 41.7199 44.8853 40.063 44.8853H30.877C29.2201 44.8853 27.877 43.5422 27.877 41.8853V29.1445Z" fill="#E6EADC"/>
<path d="M31.252 35.7324H39.685" stroke="#2B6C36" stroke-width="1.5" stroke-linecap="round"/>
<path d="M31.252 38.543H39.685" stroke="#2B6C36" stroke-width="1.5" stroke-linecap="round"/>
<path d="M31.252 41.3545H39.685" stroke="#2B6C36" stroke-width="1.5" stroke-linecap="round"/>
<path d="M36.399 27.0893L36.8065 30.5947C36.9203 31.5744 37.8208 32.2665 38.7968 32.1245L42.2891 31.6163C43.8199 31.3935 44.3301 29.4397 43.1035 28.497L39.2038 25.4997C37.9772 24.557 36.2204 25.5526 36.399 27.0893Z" fill="#E6EADC" stroke="#2B6C36" stroke-width="1.5"/>
</g>
<defs>
<clipPath id="clip0_1355_348">
<rect width="248" height="70" fill="white"/>
</clipPath>
</defs>
</svg>
