<svg width="240" height="70" viewBox="0 0 240 70" fill="none" xmlns="http://www.w3.org/2000/svg">
<g clip-path="url(#clip0_735_121)">
<path d="M0 35C0 15.67 15.67 0 35 0H205C224.33 0 240 15.67 240 35C240 54.33 224.33 70 205 70H35C15.67 70 0 54.33 0 35Z" fill="white"/>
<path d="M46.2314 47.0942H193.231L176.867 56.0942" stroke="#5A95F5" stroke-width="3" stroke-linecap="round"/>
<path d="M52.0371 17.1763V18.3452H58.8096V17.1763H61.166V22.8354H49.6992V17.1763H52.0371ZM52.0371 21.0728H58.8096V20.0522H52.0371V21.0728ZM63.1328 23.7075V25.6187H56.6016V26.6763H61.2588V30.9438H51.8516V31.9087H61.7041V33.6899H49.5322V29.311H58.9209V28.4019H49.5137V26.6763H54.2266V25.6187H47.7324V23.7075H63.1328ZM78.3848 16.9165V29.3481H76.0283V25.1919H73.876V23.2437H76.0283V21.7778H73.876V19.8853H76.0283V16.9165H78.3848ZM73.5791 18.1226V20.0151H72.1875V25.1362C72.7534 25.0991 73.3101 25.0435 73.8389 24.9878L73.9316 26.7134C70.7773 27.2329 67.0664 27.3071 64.3945 27.3071L64.1533 25.3774L65.9531 25.3589V20.0151H64.5801V18.1226H73.5791ZM78.793 31.6118V33.5044H67.1592V28.4204H69.5342V31.6118H78.793ZM68.2354 25.3218L69.9238 25.2661V20.0151H68.2354V25.3218ZM93.9707 16.9351V22.1118H96.2529V24.0415H93.9707V29.5337H91.5957V16.9351H93.9707ZM90.5938 18.6978V20.5718H80.5742V18.6978H84.415V16.8979H86.7715V18.6978H90.5938ZM85.584 21.1655C88.0332 21.1655 89.7402 22.4829 89.7402 24.4312C89.7402 26.3794 88.0332 27.6597 85.584 27.6597C83.1162 27.6597 81.3906 26.3794 81.3906 24.4312C81.3906 22.4829 83.1162 21.1655 85.584 21.1655ZM85.584 22.9653C84.4521 22.9839 83.6914 23.5034 83.71 24.4312C83.6914 25.3589 84.4521 25.8599 85.584 25.8599C86.7158 25.8599 87.4951 25.3589 87.4951 24.4312C87.4951 23.5034 86.7158 22.9839 85.584 22.9653ZM94.583 31.6118V33.5044H83.0234V28.5688H85.3799V31.6118H94.583ZM115.605 16.9165V26.6763H113.249V22.7427H110.577V20.813H113.249V16.9165H115.605ZM115.605 27.3813V33.6157H104.25V27.3813H115.605ZM106.625 29.2368V31.7231H113.286V29.2368H106.625ZM111.115 17.77V19.6812H107.757C107.794 21.6016 108.991 23.6519 111.635 24.5239L110.466 26.3979C108.592 25.7764 107.302 24.5518 106.569 23.021C105.818 24.7095 104.473 26.0547 102.487 26.6948L101.281 24.8394C104.009 23.9673 105.28 21.8149 105.345 19.6812H101.949V17.77H111.115ZM135.57 16.9165V20.1821H137.853V22.1304H135.57V25.3589H133.195V16.9165H135.57ZM135.57 26.0269V30.6284H126.72V31.7603H136.053V33.6157H124.4V28.9214H133.214V27.8452H124.363V26.0269H135.57ZM126.831 17.4175C129.429 17.436 131.358 18.9946 131.358 21.2397C131.358 23.4663 129.429 25.062 126.831 25.062C124.233 25.062 122.285 23.4663 122.285 21.2397C122.285 18.9946 124.233 17.436 126.831 17.4175ZM126.831 19.3472C125.532 19.3472 124.586 20.0522 124.604 21.2397C124.586 22.4458 125.532 23.188 126.831 23.188C128.13 23.188 129.058 22.4458 129.058 21.2397C129.058 20.0522 128.13 19.3472 126.831 19.3472ZM152.826 16.9165V33.8384H150.47V27.0288H147.575V25.0806H150.47V22.4272H147.631V20.4976H150.47V16.9165H152.826ZM146.74 18.3267V24.8208H141.545V28.105C143.632 28.0957 145.488 27.9937 147.612 27.6782L147.798 29.6079C145.274 30.0161 143.122 30.0532 140.524 30.0532H139.188V22.9839H144.421V20.2007H139.151V18.3267H146.74ZM170.416 26.231V28.1235H163.848V33.8013H161.51V28.1235H155.016V26.231H170.416ZM169.043 17.8071V19.6626H164.126C164.358 21.314 166.223 22.9746 169.692 23.3921L168.839 25.2476C165.87 24.8486 163.746 23.5776 162.734 21.8335C161.695 23.5776 159.589 24.8486 156.648 25.2476L155.776 23.3921C159.19 22.9746 161.074 21.314 161.343 19.6626H156.407V17.8071H169.043ZM185.631 16.9165V33.8013H183.237V16.9165H185.631ZM180.565 18.6792C180.565 23.8003 178.766 28.0493 172.735 30.9067L171.492 29.0142C175.853 26.9546 177.773 24.2827 178.153 20.5347H172.401V18.6792H180.565Z" fill="#2A2829"/>
</g>
<defs>
<clipPath id="clip0_735_121">
<rect width="240" height="70" fill="white"/>
</clipPath>
</defs>
</svg>
