<svg width="275" height="283" viewBox="0 0 275 283" fill="none" xmlns="http://www.w3.org/2000/svg">
<path d="M219.493 1.75H57.1913C26.71 1.75 2 27.2136 2 58.6245V225.875C2 257.286 26.71 282.75 57.1913 282.75H219.493C249.974 282.75 274.684 257.286 274.684 225.875V58.6245C274.684 27.2136 249.974 1.75 219.493 1.75Z" fill="white"/>
<path d="M51.3102 114.667C46.7233 114.452 44.7051 117.522 44.7051 120.403C44.7051 123.285 46.802 126.435 51.3102 126.381L85.5941 126.058C85.2795 128.105 84.8077 129.828 84.1787 131.148C83.0254 133.572 83.1302 136.588 85.4368 137.88C88.0841 139.362 91.1508 138.015 92.3041 136.13C95.0824 131.444 95.8687 124.2 95.8687 114.128V108.123C95.8687 103.006 93.8243 99.7749 88.3462 98.967L52.1228 93.6619C47.5621 92.9886 45.4914 95.9239 45.4914 98.8054C45.4914 101.687 47.6407 105.107 52.1228 105.511L84.965 108.473C85.8037 108.554 86.2493 109.227 86.2493 110.035V116.283L51.3102 114.667Z" fill="#2881DD"/>
<path d="M48.715 155.709L94.1123 149.057C96.9168 148.653 98.0439 146.203 98.0439 143.914C98.0439 141.625 96.9692 139.443 94.1123 139.713L48.715 143.833C43.9184 144.264 42.0312 147.576 42.0312 150.565C42.0312 153.554 44.0233 156.409 48.715 155.709Z" fill="#2881DD"/>
<path d="M114.478 129.881L133.953 127.268C137.177 126.838 138.304 123.633 138.33 120.913C138.357 118.193 137.256 115.231 134.189 115.5L115.999 116.766C114.688 116.874 114.793 116.146 114.845 115.069C114.845 115.015 114.845 114.962 114.845 114.908L114.924 114.046C114.976 113.453 115.448 112.996 115.999 112.942C117.676 112.753 134.058 111.407 134.058 111.407C135.29 111.299 136.26 110.276 136.286 108.983L136.522 95.8684C136.653 89.4591 134.084 85.8236 127.217 85.689L109.551 85.3927C105.907 85.3389 104.047 88.6243 103.915 91.5327C103.784 94.2795 105.252 97.7266 109.027 97.6188L122.578 97.2957C123.862 97.2687 124.072 97.7535 124.045 98.8307V99.3154C123.993 100.554 123.049 101.551 121.844 101.577L115.474 101.82C107.506 102.143 102.788 107.475 102.421 115.339L102.369 116.712C102.002 124.522 106.379 130.931 114.478 129.827V129.881Z" fill="#2881DD"/>
<path d="M142.233 127.458L150.123 127.565C151.381 127.565 152.403 126.542 152.43 125.249L152.639 111.892L155.994 111.946L155.758 125.788C155.758 126.865 156.44 127.835 157.462 128.104L165.351 130.204C166.793 130.581 168.182 129.504 168.208 127.969L168.811 91.0486C168.89 86.659 165.849 84.2084 162.652 84.1546C159.454 84.1007 156.414 86.3628 156.335 90.8331L156.178 99.6392L152.823 99.5853L152.98 90.7793C153.059 86.3898 150.097 83.9122 146.873 83.8584C143.649 83.8045 140.608 86.0666 140.53 90.5639L139.953 125.061C139.953 126.353 140.949 127.431 142.207 127.458H142.233Z" fill="#2881DD"/>
<path d="M230.252 96.7307C230.252 91.9372 226.714 90.1868 222.913 90.9947C219.296 91.7756 216.203 94.711 216.203 99.0736V155.599L230.252 158.588V96.7038V96.7307Z" fill="#2881DD"/>
<path d="M191.695 150.644C202.625 152.34 211.301 147.654 211.301 136.29V113.077C211.301 101.712 202.625 97.0534 191.643 98.75C181.945 100.258 175.785 106.156 175.785 115.285V134.082C175.785 143.292 181.997 149.109 191.721 150.617L191.695 150.644ZM186.505 114.423C186.505 110.761 188.681 108.579 191.643 108.229C194.709 107.879 197.199 109.764 197.199 113.723V135.671C197.199 139.71 194.736 141.487 191.643 141.164C188.681 140.868 186.505 138.768 186.505 134.997V114.423Z" fill="#2881DD"/>
<path d="M238.298 171.946C236.096 170.169 232.715 170.33 230.723 172.323C230.644 172.404 223.253 179.675 208.863 183.58C189.388 188.858 166.454 185.088 142.576 172.673V169.092C142.89 169.011 143.205 168.903 143.493 168.822C149.024 167.503 153.689 164.944 157.752 161.551C162.417 157.647 166.035 153.203 167.371 147.709C168.21 144.289 167.135 141.408 163.728 139.2C161.081 137.476 158.04 136.372 154.842 135.672C145.878 133.652 136.783 133.571 127.636 134.487C123.154 134.945 118.803 135.833 114.792 137.557C108.475 140.277 106.352 143.966 108.659 149.514C112.591 158.912 120.139 165.241 131.331 168.607V173.562C131.331 173.804 131.331 174.02 131.384 174.262C108.606 185.438 87.5591 188.643 68.7659 183.741C54.2451 179.944 46.4605 172.458 46.3294 172.323C44.3374 170.357 40.9824 170.196 38.7807 171.973C36.579 173.751 36.3955 176.82 38.3613 178.786C38.7283 179.163 47.8759 188.185 65.0964 192.844C71.7015 194.621 80.1153 195.914 90.1278 195.456L98.4891 226.237H172.666L182.023 195.133C185.09 195.429 188.025 195.564 190.804 195.564C199.113 195.564 206.19 194.406 211.904 192.844C229.15 188.185 238.272 179.163 238.639 178.786C240.605 176.794 240.421 173.751 238.219 171.973L238.298 171.946ZM165.012 217.134H106.457L100.298 194.459C109.707 193.059 120.244 190.124 131.829 184.926V205.07C131.829 207.736 134.241 209.89 137.203 209.89C140.164 209.89 142.576 207.736 142.576 205.07V183.688C153.296 188.75 163.151 191.874 172.089 193.652L165.039 217.134H165.012Z" fill="#2881DD"/>
<path d="M52.096 67.1622C54.088 67.6469 56.3422 68.2125 58.7536 68.0778C60.9815 67.9701 62.6852 66.0312 62.5804 63.7421C62.4755 61.4531 60.5883 59.7027 58.3604 59.8104C57.1023 59.8643 55.5559 59.4872 53.9308 59.1102C49.9992 58.1677 44.0755 56.7135 39.541 62.638C37.6276 65.1425 36.8151 68.3471 37.0772 72.225C37.1296 73.0598 37.2607 73.8408 37.3917 74.5679C37.5228 75.4296 37.7062 76.426 37.6014 76.9108C37.2082 79.1729 38.6499 81.3272 40.8254 81.7312C41.0613 81.785 41.3234 81.812 41.5593 81.812C43.4726 81.812 45.1501 80.4116 45.5171 78.4188C45.8578 76.5068 45.5695 74.6756 45.3074 73.1944C45.2026 72.602 45.1239 72.0634 45.0977 71.6325C44.9667 69.8552 45.2288 68.5895 45.8578 67.7547C47.0373 66.2197 47.9023 66.1389 52.0698 67.1622H52.096Z" fill="#2881DD"/>
<path d="M221.811 67.1622C219.819 67.6469 217.565 68.2125 215.154 68.0778C212.926 67.9701 211.222 66.0312 211.327 63.7421C211.432 61.4531 213.319 59.7027 215.547 59.8104C216.805 59.8643 218.351 59.4872 219.976 59.1102C223.908 58.1677 229.832 56.7135 234.366 62.638C236.28 65.1425 237.092 68.3471 236.83 72.225C236.778 73.0598 236.647 73.8408 236.516 74.5679C236.384 75.4296 236.201 76.426 236.306 76.9108C236.699 79.1729 235.257 81.3272 233.082 81.7312C232.846 81.785 232.584 81.812 232.348 81.812C230.435 81.812 228.757 80.4116 228.39 78.4188C228.049 76.5068 228.338 74.6756 228.6 73.1944C228.705 72.602 228.783 72.0634 228.81 71.6325C228.941 69.8552 228.678 68.5895 228.049 67.7547C226.87 66.2197 226.005 66.1389 221.837 67.1622H221.811Z" fill="#2881DD"/>
</svg>
