<svg width="240" height="70" viewBox="0 0 240 70" fill="none" xmlns="http://www.w3.org/2000/svg">
<g clip-path="url(#clip0_1355_332)">
<path d="M35 1.07031H205C223.778 1.07031 239 16.2926 239 35.0703C239 53.848 223.778 69.0703 205 69.0703H35C16.2223 69.0703 1 53.848 1 35.0703C1 16.2926 16.2223 1.07031 35 1.07031Z" fill="#D9D9D9"/>
<path d="M35 1.07031H205C223.778 1.07031 239 16.2926 239 35.0703C239 53.848 223.778 69.0703 205 69.0703H35C16.2223 69.0703 1 53.848 1 35.0703C1 16.2926 16.2223 1.07031 35 1.07031Z" fill="#2B6C36"/>
<path d="M35 1.07031H205C223.778 1.07031 239 16.2926 239 35.0703C239 53.848 223.778 69.0703 205 69.0703H35C16.2223 69.0703 1 53.848 1 35.0703C1 16.2926 16.2223 1.07031 35 1.07031Z" stroke="#2B6C36" stroke-width="2"/>
<path d="M79.9102 28.377V30.3438C79.9102 32.793 79.9102 35.1494 79.1309 38.8047L76.7744 38.582C77.1084 37.1719 77.2939 35.938 77.4238 34.7969L67.627 35.2793L67.3301 33.3867L77.5352 33.0156C77.5815 32.0972 77.5815 31.2158 77.5908 30.3438V30.2695H67.8496V28.377H79.9102ZM81.4873 39.8252V41.7549H66.0869V39.8252H81.4873ZM97.0176 26.9111V37.209H94.7725V32.9229H93.3066V36.6523H91.0986V27.208H93.3066V31.0303H94.7725V26.9111H97.0176ZM89.6143 28.043V33.0342H85.4766V34.4814C87.3228 34.4722 88.6958 34.3887 90.3008 34.1104L90.5049 35.9844C88.5381 36.3369 86.8682 36.3926 84.3633 36.3926H83.1943V31.29H87.332V29.8984H83.1758V28.043H89.6143ZM91.2471 37.3945C94.8096 37.3945 97.0918 38.6006 97.1104 40.5674C97.0918 42.5713 94.8096 43.7773 91.2471 43.7773C87.666 43.7773 85.4023 42.5713 85.4023 40.5674C85.4023 38.6006 87.666 37.3945 91.2471 37.3945ZM91.2471 39.2129C89.0391 39.2129 87.7588 39.6768 87.7773 40.5674C87.7588 41.5137 89.0391 41.9775 91.2471 41.9775C93.4365 41.9775 94.7168 41.5137 94.7168 40.5674C94.7168 39.6768 93.4365 39.2129 91.2471 39.2129ZM113.067 26.8926V43.8145H110.674V26.8926H113.067ZM103.901 28.0801C106.443 28.0801 108.336 30.418 108.336 34.0918C108.336 37.8027 106.443 40.1221 103.901 40.1221C101.304 40.1221 99.4111 37.8027 99.4297 34.0918C99.4111 30.418 101.304 28.0801 103.901 28.0801ZM103.901 30.2139C102.584 30.2139 101.712 31.5869 101.712 34.0918C101.712 36.6152 102.584 37.9697 103.901 37.9697C105.182 37.9697 106.054 36.6152 106.054 34.0918C106.054 31.5869 105.182 30.2139 103.901 30.2139ZM128.338 28.2842V36.3926H120.229V28.2842H128.338ZM122.567 30.1768V34.5371H126V30.1768H122.567ZM133.125 26.8926V31.7539H135.407V33.7021H133.125V39.2129H130.75V26.8926H133.125ZM133.737 41.5879V43.4805H122.178V38.0068H124.534V41.5879H133.737ZM151.865 33.2939V35.2236H149.472V43.7402H147.097V26.8926H149.472V33.2939H151.865ZM139.044 28.5068V37.6543C141.206 37.6265 143.525 37.4224 145.965 36.9307L146.206 38.8975C143.386 39.4727 140.64 39.6211 138.153 39.6211H136.688V28.5068H139.044ZM166.802 26.8926V43.8145H164.445V34.9082H161.718V32.9785H164.445V26.8926H166.802ZM160.771 28.3027V34.6299H155.521V37.9326C157.849 37.9141 159.825 37.8306 161.996 37.4502L162.182 39.3799C159.677 39.7881 157.376 39.8809 154.556 39.8809H153.164V32.7559H158.471V30.2139H153.127V28.3027H160.771ZM186.692 26.8926V33.3682H189.086V35.3164H186.692V43.7402H184.317V26.8926H186.692ZM182.184 28.6182C182.165 33.665 180.198 38.0439 174.521 40.8271L173.185 39.0088C177.183 37.0049 179.326 34.3145 179.771 30.5479H174.149V28.6182H182.184ZM203.985 26.8926V43.7773H201.592V26.8926H203.985ZM198.92 28.6553C198.92 33.7764 197.12 38.0254 191.09 40.8828L189.847 38.9902C194.207 36.9307 196.127 34.2588 196.508 30.5107H190.756V28.6553H198.92Z" fill="#E6EADC"/>
<path d="M50.7493 24.6787H38.7114C36.2183 24.6787 34.1973 26.6727 34.1973 29.1324V41.0089C34.1973 43.4686 36.2183 45.4626 38.7114 45.4626H50.7493C53.2424 45.4626 55.2634 43.4686 55.2634 41.0089V29.1324C55.2634 26.6727 53.2424 24.6787 50.7493 24.6787Z" fill="#E6EADC"/>
<path d="M50.7493 24.6787H38.7114C36.2183 24.6787 34.1973 26.6727 34.1973 29.1324V41.0089C34.1973 43.4686 36.2183 45.4626 38.7114 45.4626H50.7493C53.2424 45.4626 55.2634 43.4686 55.2634 41.0089V29.1324C55.2634 26.6727 53.2424 24.6787 50.7493 24.6787Z" fill="#E6EADC"/>
<path d="M50.7493 24.6787H38.7114C36.2183 24.6787 34.1973 26.6727 34.1973 29.1324V41.0089C34.1973 43.4686 36.2183 45.4626 38.7114 45.4626H50.7493C53.2424 45.4626 55.2634 43.4686 55.2634 41.0089V29.1324C55.2634 26.6727 53.2424 24.6787 50.7493 24.6787Z" fill="#E6EADC"/>
<path d="M49.362 31.1044C49.362 31.579 48.9719 31.9637 48.4906 31.9637C48.0093 31.9637 47.6191 31.579 47.6191 31.1044C47.6191 30.6298 48.0093 30.2451 48.4906 30.2451C48.9719 30.2451 49.362 30.6298 49.362 31.1044Z" fill="#2B6C36"/>
<path fill-rule="evenodd" clip-rule="evenodd" d="M44.7325 38.7832C46.8101 38.7832 48.4943 37.1215 48.4943 35.0718C48.4943 33.022 46.8101 31.3604 44.7325 31.3604C42.6549 31.3604 40.9707 33.022 40.9707 35.0718C40.9707 37.1215 42.6549 38.7832 44.7325 38.7832ZM44.7325 37.2986C45.9791 37.2986 46.9896 36.3016 46.9896 35.0718C46.9896 33.8419 45.9791 32.8449 44.7325 32.8449C43.4859 32.8449 42.4754 33.8419 42.4754 35.0718C42.4754 36.3016 43.4859 37.2986 44.7325 37.2986Z" fill="#2B6C36"/>
<path fill-rule="evenodd" clip-rule="evenodd" d="M37.2051 34.7734C37.2051 32.2791 37.2051 31.0319 37.6971 30.0792C38.1299 29.2412 38.8205 28.5599 39.6699 28.1329C40.6355 27.6475 41.8996 27.6475 44.4278 27.6475H45.0297C47.5578 27.6475 48.8219 27.6475 49.7875 28.1329C50.6369 28.5599 51.3275 29.2412 51.7603 30.0792C52.2523 31.0319 52.2523 32.2791 52.2523 34.7734V35.3672C52.2523 37.8615 52.2523 39.1086 51.7603 40.0613C51.3275 40.8993 50.6369 41.5807 49.7875 42.0076C48.8219 42.4931 47.5578 42.4931 45.0297 42.4931H44.4278C41.8996 42.4931 40.6355 42.4931 39.6699 42.0076C38.8205 41.5807 38.1299 40.8993 37.6971 40.0613C37.2051 39.1086 37.2051 37.8615 37.2051 35.3672V34.7734ZM44.4278 29.132H45.0297C46.3186 29.132 47.1947 29.1332 47.872 29.1878C48.5318 29.2409 48.8691 29.3373 49.1045 29.4556C49.6707 29.7403 50.1311 30.1945 50.4196 30.7532C50.5395 30.9853 50.6372 31.3182 50.6911 31.9691C50.7464 32.6373 50.7476 33.5017 50.7476 34.7734V35.3672C50.7476 36.6389 50.7464 37.5032 50.6911 38.1714C50.6372 38.8223 50.5395 39.1552 50.4196 39.3874C50.1311 39.946 49.6707 40.4002 49.1045 40.6849C48.8691 40.8032 48.5318 40.8996 47.872 40.9528C47.1947 41.0073 46.3186 41.0085 45.0297 41.0085H44.4278C43.1388 41.0085 42.2627 41.0073 41.5854 40.9528C40.9257 40.8996 40.5883 40.8032 40.353 40.6849C39.7867 40.4002 39.3263 39.946 39.0378 39.3874C38.9179 39.1552 38.8202 38.8223 38.7663 38.1714C38.711 37.5032 38.7098 36.6389 38.7098 35.3672V34.7734C38.7098 33.5017 38.711 32.6373 38.7663 31.9691C38.8202 31.3182 38.9179 30.9853 39.0378 30.7532C39.3263 30.1945 39.7867 29.7403 40.353 29.4556C40.5883 29.3373 40.9257 29.2409 41.5854 29.1878C42.2627 29.1332 43.1388 29.132 44.4278 29.132Z" fill="#2B6C36"/>
</g>
<defs>
<clipPath id="clip0_1355_332">
<rect width="240" height="70" fill="white"/>
</clipPath>
</defs>
</svg>
