<svg width="544" height="149" viewBox="0 0 544 149" fill="none" xmlns="http://www.w3.org/2000/svg">
<rect y="1" width="544" height="148" rx="20" fill="#F7F9FC"/>
<path d="M204.848 64.0352V90.6953H201.303V64.0352H204.848ZM199.398 64.4746V89.4648H195.883V76.1934H192.367V73.1758H195.883V64.4746H199.398ZM190.229 71.1836C190.229 75.6074 191.605 80.0898 195.502 82.3164L193.305 85.0703C190.932 83.6641 189.364 81.2764 188.471 78.4199C187.548 81.5254 185.937 84.1621 183.49 85.6562L181.234 82.9023C185.16 80.5 186.625 75.6953 186.625 71.1836V69.748H182.26V66.7598H194.271V69.748H190.229V71.1836ZM222.865 65.5879V68.5762H217.562C217.592 71.6963 219.438 74.8896 223.773 76.2812L221.869 79.1816C218.91 78.2295 216.874 76.3252 215.717 73.9375C214.53 76.5449 212.406 78.6104 209.301 79.6211L207.309 76.75C211.718 75.3291 213.725 71.916 213.783 68.5762H208.334V65.5879H222.865ZM228.871 64.0352V70.5098H232.475V73.6152H228.871V80.1191H225.121V64.0352H228.871ZM228.871 81.2617V90.6953H225.121V84.2207H210.912V81.2617H228.871ZM248.031 65.5586V68.5469H238.861V70.627H247.24V73.498H238.861V75.6953C243.549 75.6807 246.522 75.6074 249.906 75.0508L250.287 77.9512C246.479 78.5957 243.109 78.6543 237.396 78.6543H235.111V65.5586H248.031ZM255.971 64.0645V79.8848H252.221V64.0645H255.971ZM255.971 80.9688V90.4023H238.1V80.9688H255.971ZM241.791 83.8691V87.4141H252.309V83.8691H241.791ZM290.893 84.5137V87.502H266.488V84.5137H276.684V78.4785H280.404V84.5137H290.893ZM280.521 67.4629C280.521 71.2715 283.949 75.2852 290.043 76.2227L288.461 79.3281C283.773 78.4785 280.287 75.9736 278.529 72.6484C276.771 75.959 273.314 78.4932 268.656 79.3281L267.074 76.2227C273.109 75.2852 276.508 71.2422 276.537 67.4629V65.5586H280.521V67.4629ZM315.414 64.0352V90.6953H311.811V77.1309H309.379V89.5234H305.893V64.7383H309.379V74.1426H311.811V64.0352H315.414ZM304.018 67.3164C303.988 74.7578 301.762 80.8516 294.262 85.2168L292.094 82.6387C297.528 79.4453 299.857 75.5342 300.385 70.3047H293.441V67.3164H304.018ZM348.578 64.0352V90.6953H344.975V64.0352H348.578ZM343.188 64.5625V89.4355H339.643V77.0723H337.064V73.7324H339.643V64.5625H343.188ZM337.68 67.0527V70.0703H335.98V81.1445C336.728 81.0859 337.445 81.0127 338.119 80.9102L338.383 83.6055C334.164 84.5137 328.715 84.6016 325.375 84.6016L324.965 81.5254H327.191V70.0703H325.463V67.0527H337.68ZM330.502 81.4668L332.582 81.3789V70.0703H330.502V81.4668ZM373.51 64.0352V90.7539H369.73V64.0352H373.51ZM359.037 65.9102C363.051 65.9102 366.039 69.6016 366.039 75.4023C366.039 81.2617 363.051 84.9238 359.037 84.9238C354.936 84.9238 351.947 81.2617 351.977 75.4023C351.947 69.6016 354.936 65.9102 359.037 65.9102ZM359.037 69.2793C356.957 69.2793 355.58 71.4473 355.58 75.4023C355.58 79.3867 356.957 81.5254 359.037 81.5254C361.059 81.5254 362.436 79.3867 362.436 75.4023C362.436 71.4473 361.059 69.2793 359.037 69.2793ZM387.455 71.3008C387.455 75.6074 389.652 80.207 394.135 82.082L392.113 85.0117C388.964 83.6787 386.796 81.0273 385.609 77.7754C384.394 81.3057 382.182 84.2354 379.047 85.6855L376.908 82.7266C381.332 80.7637 383.617 75.8125 383.617 71.3008V69.6602H377.963V66.6133H393.021V69.6602H387.455V71.3008ZM399.438 64.0352V90.6953H395.658V64.0352H399.438Z" fill="#C4DCFF"/>
<path d="M85.0482 56.6099H57.4368C57.3758 56.6099 57.3191 56.6185 57.2581 56.6185C57.2101 56.6185 57.1665 56.6185 57.1186 56.6272C57.0706 56.6359 57.0226 56.6272 56.979 56.6359C54.193 56.853 52 58.9936 52 61.6032V95.011C52 97.7638 54.4416 100 57.4368 100H85.0482C87.6903 100 89.8965 98.2632 90.3848 95.9662C90.3935 95.9228 90.3979 95.8794 90.4066 95.836C90.4153 95.7925 90.4197 95.7491 90.4284 95.7057C90.4632 95.4756 90.4894 95.2454 90.4894 95.0066V61.5989C90.4894 58.846 88.0479 56.6099 85.0526 56.6099H85.0482ZM76.3633 94.4943C76.3633 95.4278 75.6133 96.192 74.7021 96.192H57.7159C56.8003 96.192 56.0547 95.4278 56.0547 94.4943V88.9147C56.0547 85.5323 58.1562 82.6318 61.0904 81.4985C62.4856 82.5189 64.1947 83.1181 66.039 83.1181C67.8832 83.1181 69.6839 82.4841 71.1008 81.416C74.1528 82.4841 76.3589 85.4498 76.3589 88.9147V94.4943H76.3633ZM59.4642 74.7249C59.4642 71.1253 62.4813 68.2118 66.2046 68.2118C69.928 68.2118 72.9451 71.1297 72.9451 74.7249C72.9451 78.3201 69.928 81.238 66.2046 81.238C62.4813 81.238 59.4642 78.3201 59.4642 74.7249ZM86.4478 85.9708H81.0894C80.4441 85.9708 79.921 85.5062 79.921 84.9331C79.921 84.3599 80.4441 83.8953 81.0894 83.8953H86.4478C87.093 83.8953 87.6162 84.3599 87.6162 84.9331C87.6162 85.5062 87.093 85.9708 86.4478 85.9708ZM86.4478 80.743H77.959C77.3137 80.743 76.7905 80.2784 76.7905 79.7052C76.7905 79.1321 77.3137 78.6675 77.959 78.6675H86.4478C87.093 78.6675 87.6162 79.1321 87.6162 79.7052C87.6162 80.2784 87.093 80.743 86.4478 80.743ZM86.4478 75.5152H79.7945C79.1492 75.5152 78.6261 75.0506 78.6261 74.4774C78.6261 73.9043 79.1492 73.4397 79.7945 73.4397H86.4478C87.093 73.4397 87.6162 73.9043 87.6162 74.4774C87.6162 75.0506 87.093 75.5152 86.4478 75.5152ZM86.4478 70.2873H76.1889C75.5436 70.2873 75.0204 69.8227 75.0204 69.2496C75.0204 68.6764 75.5436 68.2118 76.1889 68.2118H86.4478C87.093 68.2118 87.6162 68.6764 87.6162 69.2496C87.6162 69.8227 87.093 70.2873 86.4478 70.2873ZM86.4478 65.0595H57.3365C56.6913 65.0595 56.1681 64.5949 56.1681 64.0217C56.1681 63.4486 56.6913 62.984 57.3365 62.984H86.4478C87.093 62.984 87.6162 63.4486 87.6162 64.0217C87.6162 64.5949 87.093 65.0595 86.4478 65.0595Z" fill="#C4DCFF"/>
<path d="M91.4027 50H62.9578C60.0413 50 57.564 51.7033 56.6943 54.0573H84.9855C89.3339 54.0573 92.8698 57.228 92.8698 61.1194V94.722C92.8698 94.9098 92.861 95.0932 92.8434 95.2766C95.7907 94.6827 98 92.3287 98 89.5117V55.9134C98 52.6554 95.0396 50 91.3983 50H91.4027Z" fill="#D5E6FF"/>
</svg>
