<svg width="544" height="149" viewBox="0 0 544 149" fill="none" xmlns="http://www.w3.org/2000/svg">
<rect y="1" width="544" height="148" rx="20" fill="#2881DD"/>
<path d="M204.836 90.7037H201.304V64.0186H204.836V90.7037ZM181.238 82.9137C182.495 82.1402 183.524 81.1319 184.325 79.8888C185.126 78.6457 185.71 77.2818 186.076 75.797C186.442 74.3052 186.625 72.7617 186.625 71.1664V69.7472H182.253V66.7535H194.27V69.7472H190.23V71.1664C190.223 72.7272 190.396 74.2155 190.748 75.6312C191.1 77.047 191.67 78.3384 192.457 79.5055C193.244 80.6657 194.26 81.6015 195.503 82.3128L193.317 85.058C192.157 84.3812 191.176 83.4765 190.375 82.3439C189.574 81.2113 188.939 79.8992 188.469 78.4075C187.985 80.0304 187.329 81.4634 186.501 82.7065C185.672 83.9496 184.671 84.9372 183.497 85.6692L181.238 82.9137ZM192.374 73.1761H195.886V64.4641H199.387V89.4606H195.886V76.1802H192.374V73.1761ZM222.881 68.5767H217.556C217.563 69.6609 217.788 70.7037 218.23 71.7051C218.678 72.7065 219.366 73.6112 220.291 74.4192C221.223 75.2203 222.38 75.8453 223.761 76.2942L221.866 79.174C220.429 78.7113 219.196 78.0311 218.167 77.1333C217.138 76.2286 216.32 75.1651 215.712 73.9427C215.098 75.2825 214.252 76.4427 213.174 77.4233C212.097 78.3971 210.805 79.1326 209.3 79.6298L207.321 76.75C208.737 76.2942 209.925 75.6416 210.885 74.7921C211.845 73.9427 212.563 72.9827 213.04 71.9123C213.516 70.8419 213.765 69.73 213.785 68.5767H208.337V65.5932H222.881V68.5767ZM210.926 81.2562H228.879V90.7037H225.129V84.2396H210.926V81.2562ZM225.129 64.0186H228.879V70.5035H232.463V73.6112H228.879V80.1167H225.129V64.0186ZM248.032 68.5456H238.874V70.6278H247.255V73.5076H238.874V75.6934C241.492 75.6865 243.591 75.6416 245.172 75.5587C246.761 75.4758 248.339 75.3032 249.907 75.0407L250.28 77.9517C248.663 78.2279 247.023 78.4144 245.359 78.511C243.701 78.6008 241.581 78.6457 238.998 78.6457H237.413H235.103V65.5518H248.032V68.5456ZM238.097 80.9765H255.967V90.4033H238.097V80.9765ZM252.3 87.4095V83.8771H241.785V87.4095H252.3ZM252.217 64.0601H255.967V79.8888H252.217V64.0601ZM290.88 87.5131H266.495V84.5193H276.699V78.4903H280.407V84.5193H290.88V87.5131ZM267.065 76.2217C269.005 75.9247 270.69 75.3273 272.12 74.4296C273.549 73.5318 274.641 72.4682 275.393 71.2389C276.146 70.0028 276.526 68.7424 276.533 67.4579V65.5622H280.521V67.4579C280.514 68.7562 280.887 70.02 281.64 71.2493C282.4 72.4786 283.501 73.5421 284.945 74.4399C286.388 75.3308 288.09 75.9247 290.052 76.2217L288.456 79.3398C286.916 79.0566 285.5 78.6043 284.209 77.9827C282.924 77.3543 281.802 76.5877 280.842 75.683C279.889 74.7783 279.119 73.7666 278.532 72.6478C277.938 73.7666 277.165 74.7783 276.212 75.683C275.259 76.5877 274.143 77.3543 272.866 77.9827C271.588 78.6112 270.186 79.0635 268.66 79.3398L267.065 76.2217ZM315.41 90.7037H311.815V77.1333H309.37V89.5124H305.9V64.7231H309.37V74.1291H311.815V64.0186H315.41V90.7037ZM292.091 82.6236C293.88 81.5808 295.354 80.4448 296.515 79.2155C297.675 77.9793 298.562 76.6326 299.177 75.1754C299.791 73.7182 300.185 72.0988 300.358 70.317H293.438V67.3232H304.004C303.997 69.9475 303.693 72.3301 303.093 74.471C302.492 76.605 301.473 78.5767 300.037 80.386C298.607 82.1954 296.677 83.8046 294.246 85.2134L292.091 82.6236ZM348.562 90.7037H344.988V64.0186H348.562V90.7037ZM324.974 81.5359C325.914 81.5359 326.649 81.5325 327.181 81.5256V70.058H325.472V67.0642H337.675V70.058H335.986V81.163C336.746 81.087 337.457 81.0041 338.12 80.9144L338.369 83.5974C336.511 83.9979 334.46 84.2638 332.215 84.395C329.971 84.5262 327.692 84.5919 325.378 84.5919L324.974 81.5359ZM330.517 81.4634C331.456 81.4358 332.139 81.4116 332.568 81.3909V70.058H330.517V81.4634ZM337.063 73.7355H339.653V64.547H343.175V89.4296H339.653V77.0815H337.063V73.7355ZM373.506 90.7659H369.725V64.0186H373.506V90.7659ZM351.969 75.393C351.969 73.4938 352.27 71.8294 352.87 70.3999C353.471 68.9634 354.307 67.855 355.377 67.0746C356.448 66.2942 357.663 65.904 359.024 65.904C360.363 65.904 361.565 66.2942 362.629 67.0746C363.692 67.855 364.528 68.9634 365.136 70.3999C365.743 71.8294 366.047 73.4938 366.047 75.393C366.047 77.3059 365.743 78.9841 365.136 80.4275C364.528 81.8709 363.692 82.9827 362.629 83.7631C361.565 84.5366 360.363 84.9233 359.024 84.9233C357.663 84.9233 356.448 84.5366 355.377 83.7631C354.307 82.9827 353.471 81.8743 352.87 80.4378C352.27 78.9945 351.969 77.3128 351.969 75.393ZM355.584 75.393C355.578 76.6982 355.716 77.8135 355.999 78.739C356.282 79.6575 356.683 80.355 357.2 80.8315C357.718 81.3011 358.326 81.5359 359.024 81.5359C359.707 81.5359 360.305 81.3011 360.816 80.8315C361.327 80.355 361.724 79.6575 362.007 78.739C362.29 77.8135 362.432 76.6982 362.432 75.393C362.432 74.1015 362.29 72.9965 362.007 72.078C361.724 71.1595 361.327 70.4655 360.816 69.9959C360.305 69.5193 359.707 69.2811 359.024 69.2811C358.326 69.2811 357.718 69.5193 357.2 69.9959C356.683 70.4655 356.282 71.1595 355.999 72.078C355.716 72.9965 355.578 74.1015 355.584 75.393ZM387.438 71.2907C387.438 72.7686 387.69 74.2189 388.194 75.6416C388.705 77.0642 389.461 78.3453 390.462 79.4848C391.471 80.6174 392.693 81.4807 394.13 82.0746L392.12 85.0062C390.587 84.364 389.271 83.4213 388.173 82.1782C387.082 80.9282 386.226 79.4675 385.604 77.7963C384.982 79.6126 384.116 81.2044 383.004 82.5718C381.899 83.9392 380.58 84.9717 379.047 85.6692L376.923 82.7376C378.339 82.1022 379.551 81.1802 380.559 79.9717C381.574 78.7562 382.337 77.3923 382.849 75.8798C383.366 74.3674 383.629 72.8377 383.636 71.2907V69.654H377.969V66.5981H393.021V69.654H387.438V71.2907ZM395.652 64.0186H399.433V90.7037H395.652V64.0186Z" fill="#F7F9FC"/>
<path d="M85.0482 56.6099H57.4368C57.3758 56.6099 57.3191 56.6185 57.2581 56.6185C57.2101 56.6185 57.1665 56.6185 57.1186 56.6272C57.0706 56.6359 57.0226 56.6272 56.979 56.6359C54.193 56.853 52 58.9936 52 61.6032V95.011C52 97.7638 54.4416 100 57.4368 100H85.0482C87.6903 100 89.8965 98.2632 90.3848 95.9662C90.3935 95.9228 90.3979 95.8794 90.4066 95.836C90.4153 95.7925 90.4197 95.7491 90.4284 95.7057C90.4633 95.4756 90.4894 95.2454 90.4894 95.0066V61.5989C90.4894 58.846 88.0479 56.6099 85.0526 56.6099H85.0482ZM76.3633 94.4943C76.3633 95.4278 75.6133 96.192 74.7021 96.192H57.7159C56.8003 96.192 56.0547 95.4278 56.0547 94.4943V88.9147C56.0547 85.5323 58.1562 82.6318 61.0904 81.4985C62.4856 82.5189 64.1947 83.1181 66.039 83.1181C67.8832 83.1181 69.6839 82.4841 71.1008 81.416C74.1528 82.4841 76.3589 85.4498 76.3589 88.9147V94.4943H76.3633ZM59.4642 74.7249C59.4642 71.1253 62.4813 68.2118 66.2046 68.2118C69.928 68.2118 72.9451 71.1297 72.9451 74.7249C72.9451 78.3201 69.928 81.238 66.2046 81.238C62.4813 81.238 59.4642 78.3201 59.4642 74.7249ZM86.4478 85.9708H81.0894C80.4441 85.9708 79.921 85.5062 79.921 84.9331C79.921 84.3599 80.4441 83.8953 81.0894 83.8953H86.4478C87.093 83.8953 87.6162 84.3599 87.6162 84.9331C87.6162 85.5062 87.093 85.9708 86.4478 85.9708ZM86.4478 80.743H77.959C77.3137 80.743 76.7905 80.2784 76.7905 79.7052C76.7905 79.1321 77.3137 78.6675 77.959 78.6675H86.4478C87.093 78.6675 87.6162 79.1321 87.6162 79.7052C87.6162 80.2784 87.093 80.743 86.4478 80.743ZM86.4478 75.5152H79.7945C79.1492 75.5152 78.6261 75.0506 78.6261 74.4774C78.6261 73.9043 79.1492 73.4397 79.7945 73.4397H86.4478C87.093 73.4397 87.6162 73.9043 87.6162 74.4774C87.6162 75.0506 87.093 75.5152 86.4478 75.5152ZM86.4478 70.2873H76.1889C75.5436 70.2873 75.0204 69.8227 75.0204 69.2496C75.0204 68.6764 75.5436 68.2118 76.1889 68.2118H86.4478C87.093 68.2118 87.6162 68.6764 87.6162 69.2496C87.6162 69.8227 87.093 70.2873 86.4478 70.2873ZM86.4478 65.0595H57.3365C56.6913 65.0595 56.1681 64.5949 56.1681 64.0217C56.1681 63.4486 56.6913 62.984 57.3365 62.984H86.4478C87.093 62.984 87.6162 63.4486 87.6162 64.0217C87.6162 64.5949 87.093 65.0595 86.4478 65.0595Z" fill="#C4DCFF"/>
<path d="M91.4027 50H62.9578C60.0413 50 57.564 51.7033 56.6943 54.0573H84.9855C89.3339 54.0573 92.8698 57.228 92.8698 61.1194V94.722C92.8698 94.9098 92.861 95.0932 92.8434 95.2766C95.7907 94.6827 98 92.3287 98 89.5117V55.9134C98 52.6554 95.0396 50 91.3983 50H91.4027Z" fill="#D5E6FF"/>
</svg>
