<svg width="521" height="639" viewBox="0 0 521 639" fill="none" xmlns="http://www.w3.org/2000/svg">
<g clip-path="url(#clip0_643_136)">
<rect x="-6" width="520" height="638" rx="40" fill="white"/>
<path d="M279.52 139.692L288.54 108.862C288.95 107.472 290.46 106.732 291.81 107.262L298.68 109.972C299.99 110.492 300.6 112.002 300.01 113.292L286.74 142.252" fill="#2881DD"/>
<path d="M142.46 197.962C143 196.572 142.33 195.012 140.95 194.442L111.81 182.362C110.32 181.742 108.62 182.542 108.14 184.082L106.12 190.552C105.65 192.052 106.54 193.642 108.07 194.022L138.42 201.702" fill="#2881DD"/>
<path d="M174.02 101.383L168.11 104.993C166.8 105.793 166.43 107.523 167.3 108.793L185.09 134.723C185.86 135.843 187.33 136.203 188.53 135.583L190.62 134.493C191.91 133.823 192.42 132.243 191.78 130.943L177.82 102.493C177.13 101.083 175.37 100.573 174.02 101.393V101.383Z" fill="#2881DD"/>
<path d="M175.83 172.542L159.44 158.362C158.76 157.772 157.73 157.892 157.2 158.612L154.92 161.692C154.4 162.392 154.57 163.392 155.3 163.882L173.17 175.902" fill="#2881DD"/>
<path d="M232.45 143.243L237.8 121.913C238 121.133 238.82 120.683 239.58 120.933L243.52 122.253C244.27 122.503 244.66 123.333 244.37 124.063L236.53 144.433" fill="#2881DD"/>
<path d="M484.38 204.281H272.725C256.505 204.281 243.355 217.388 243.355 233.556V390.274C243.355 406.442 256.505 419.549 272.725 419.549H484.38C500.601 419.549 513.75 406.442 513.75 390.274V233.556C513.75 217.388 500.601 204.281 484.38 204.281Z" fill="#BCCAE1"/>
<path d="M444.109 389.646H329.443C320.458 389.646 313.174 396.907 313.174 405.863V494.704C313.174 503.66 320.458 510.92 329.443 510.92H444.109C453.094 510.92 460.378 503.66 460.378 494.704V405.863C460.378 396.907 453.094 389.646 444.109 389.646Z" fill="#BCCAE1"/>
<path d="M264.804 262.589H109.783C98.2942 262.589 88.9805 271.872 88.9805 283.324V390.324C88.9805 401.776 98.2942 411.059 109.783 411.059H264.804C276.293 411.059 285.607 401.776 285.607 390.324V283.324C285.607 271.872 276.293 262.589 264.804 262.589Z" fill="#BCCAE1"/>
<path d="M255.602 324H55.398C39.7142 324 27 336.928 27 352.876V511.124C27 527.072 39.7142 540 55.398 540H255.602C271.286 540 284 527.072 284 511.124V352.876C284 336.928 271.286 324 255.602 324Z" fill="#BCCAE1"/>
<path d="M471.488 189.07H259.833C243.612 189.07 230.463 202.177 230.463 218.345V375.063C230.463 391.231 243.612 404.338 259.833 404.338H471.488C487.708 404.338 500.858 391.231 500.858 375.063V218.345C500.858 202.177 487.708 189.07 471.488 189.07Z" fill="white" stroke="#2881DD" stroke-width="3" stroke-miterlimit="10"/>
<path d="M432.259 377.204H317.593C308.608 377.204 301.324 384.464 301.324 393.42V482.261C301.324 491.217 308.608 498.478 317.593 498.478H432.259C441.244 498.478 448.528 491.217 448.528 482.261V393.42C448.528 384.464 441.244 377.204 432.259 377.204Z" fill="white" stroke="#2881DD" stroke-width="3" stroke-miterlimit="10"/>
<path d="M278.812 239.028H126.261C115.17 239.028 106.178 247.991 106.178 259.047V360.26C106.178 371.316 115.17 380.279 126.261 380.279H278.812C289.904 380.279 298.895 371.316 298.895 360.26V259.047C298.895 247.991 289.904 239.028 278.812 239.028Z" fill="white" stroke="#2881DD" stroke-width="3" stroke-miterlimit="10"/>
<path d="M241.573 306.49H37.0155C20.9907 306.49 8 319.439 8 335.411V493.906C8 509.879 20.9907 522.828 37.0155 522.828H241.573C257.598 522.828 270.589 509.879 270.589 493.906V335.411C270.589 319.439 257.598 306.49 241.573 306.49Z" fill="white" stroke="#2881DD" stroke-width="3" stroke-miterlimit="10"/>
<path d="M125.99 239.633H279.749C289.939 239.633 298.218 247.877 298.218 258.04V265.052C298.218 265.164 298.125 265.258 298.009 265.258H107.521V258.04C107.521 247.887 115.79 239.633 125.99 239.633Z" fill="#2881DD" stroke="#2881DD"/>
<path d="M126.012 253.209C126.012 254.898 124.651 256.262 122.978 256.262C121.306 256.262 119.945 254.898 119.945 253.209C119.945 251.52 121.306 250.156 122.978 250.156C124.651 250.156 126.012 251.52 126.012 253.209Z" fill="white" stroke="#2881DD"/>
<path d="M136.694 253.209C136.694 254.898 135.334 256.262 133.661 256.262C131.989 256.262 130.628 254.898 130.628 253.209C130.628 251.52 131.989 250.156 133.661 250.156C135.334 250.156 136.694 251.52 136.694 253.209Z" fill="white" stroke="#2881DD"/>
<path d="M147.367 253.209C147.367 254.898 146.006 256.262 144.334 256.262C142.661 256.262 141.301 254.898 141.301 253.209C141.301 251.52 142.661 250.156 144.334 250.156C146.006 250.156 147.367 251.52 147.367 253.209Z" fill="white" stroke="#2881DD"/>
<path d="M316.384 377.59H433.645C441.646 377.59 448.143 384.068 448.143 392.039V398.189C448.143 398.223 448.118 398.25 448.08 398.25H301.887V392.039C301.887 384.068 308.384 377.59 316.384 377.59Z" fill="#2881DD" stroke="#2881DD"/>
<path d="M315.852 388.537C315.852 389.887 314.833 390.925 313.642 390.925C312.451 390.925 311.433 389.887 311.433 388.537C311.433 387.188 312.451 386.149 313.642 386.149C314.833 386.149 315.852 387.188 315.852 388.537Z" fill="white" stroke="#2881DD"/>
<path d="M324.054 388.537C324.054 389.887 323.035 390.925 321.845 390.925C320.654 390.925 319.635 389.887 319.635 388.537C319.635 387.188 320.654 386.149 321.845 386.149C323.035 386.149 324.054 387.188 324.054 388.537Z" fill="white" stroke="#2881DD"/>
<path d="M332.256 388.537C332.256 389.887 331.238 390.925 330.047 390.925C328.856 390.925 327.837 389.887 327.837 388.537C327.837 387.188 328.856 386.149 330.047 386.149C331.238 386.149 332.256 387.188 332.256 388.537Z" fill="white" stroke="#2881DD"/>
<path d="M257.03 189.789H474.406C488.588 189.789 500.098 201.264 500.098 215.395V224.391C500.098 224.654 499.885 224.868 499.618 224.868H231.328V215.395C231.328 201.264 242.838 189.789 257.019 189.789H257.03Z" fill="#2881DD" stroke="#2881DD"/>
<path d="M257.759 208.372C257.759 210.743 255.772 212.692 253.288 212.692C250.804 212.692 248.816 210.743 248.816 208.372C248.816 206 250.804 204.052 253.288 204.052C255.772 204.052 257.759 206 257.759 208.372Z" fill="#2881DD" stroke="#2881DD"/>
<path d="M272.789 208.372C272.789 210.743 270.801 212.692 268.317 212.692C265.833 212.692 263.846 210.743 263.846 208.372C263.846 206 265.833 204.052 268.317 204.052C270.801 204.052 272.789 206 272.789 208.372Z" fill="#2881DD" stroke="#2881DD"/>
<path d="M287.817 208.372C287.817 210.743 285.83 212.692 283.345 212.692C280.861 212.692 278.874 210.743 278.874 208.372C278.874 206 280.861 204.052 283.345 204.052C285.83 204.052 287.817 206 287.817 208.372Z" fill="#2881DD" stroke="#2881DD"/>
<path d="M396.416 478.688H430.549" stroke="#2881DD" stroke-width="2" stroke-linecap="round" stroke-linejoin="round"/>
<path d="M370.11 467.261H430.549" stroke="#2881DD" stroke-width="2" stroke-linecap="round" stroke-linejoin="round"/>
<path d="M165.042 496.888H236.268" stroke="#2881DD" stroke-width="3" stroke-linecap="round" stroke-linejoin="round"/>
<path d="M150.629 481.057H204.262" stroke="#2881DD" stroke-width="3" stroke-linecap="round" stroke-linejoin="round"/>
<path d="M9.00977 391.141L44.9956 374.557L50.8452 372.992L56.899 382.994L75.7239 456.354L75.9996 465.351C75.9996 465.351 73.233 470.409 72.1202 471.248C71.0075 472.088 63.5347 476.026 63.5347 476.026L9.55083 486.992L9.55127 390.891L9.00977 391.141Z" fill="#D5E6FF"/>
<path d="M305.722 315.913C309.38 311.882 311.381 306.542 312.997 301.39C316.186 291.199 318.301 280.644 319.292 270.007C319.854 263.961 319.959 257.676 316.957 252.648C315.738 250.612 313.799 248.939 311.61 247.911C311.558 247.89 311.517 247.879 311.464 247.859C311.433 247.848 311.412 247.817 311.371 247.807C310.641 247.485 309.88 247.235 309.109 247.069C307.525 246.737 305.232 246.654 303.127 247.994C303.325 249.666 303.502 251.297 303.627 252.866C303.679 253.531 303.179 254.112 302.512 254.164C302.48 254.164 302.449 254.164 302.418 254.164C301.793 254.164 301.261 253.687 301.209 253.053C299.948 237.221 294.653 215.312 288.619 200.976C286.92 196.935 284.075 192.156 280.125 192.156C280.083 192.156 280.052 192.156 280.01 192.156C277.446 192.219 275.372 194.442 274.455 196.623C273.319 199.314 273.319 202.451 273.465 205.173C273.83 211.988 275.258 218.678 277.696 225.046C277.936 225.669 277.623 226.365 276.998 226.604C276.373 226.843 275.674 226.531 275.435 225.908C272.902 219.301 271.422 212.362 271.047 205.298C270.901 202.597 270.911 199.501 271.881 196.613C271.881 196.571 271.86 196.54 271.85 196.509C271.651 192.78 271.443 188.926 269.973 185.518C268.712 182.599 265.951 179.576 262.626 179.431C260.145 179.316 257.561 180.885 256.049 183.43C253.267 188.084 254.288 194.39 255.58 200.436L260.875 225.233C261.01 225.887 260.593 226.531 259.937 226.666C259.853 226.687 259.77 226.698 259.687 226.698C259.124 226.698 258.624 226.303 258.499 225.742L253.204 200.945C252.485 197.558 251.849 194.099 251.849 190.785C250.223 187.232 247.357 183.098 242.938 183.555C239.051 183.95 236.341 188.032 235.674 191.866C234.913 196.218 236.028 200.914 237.008 205.059L243.855 233.949C244.012 234.603 243.605 235.247 242.949 235.403C242.855 235.424 242.761 235.434 242.667 235.434C242.115 235.434 241.615 235.06 241.489 234.499L234.642 205.609C234.382 204.519 234.111 203.386 233.871 202.223C229.4 203.449 227.993 208.902 227.597 211.292C226.784 216.091 227.972 221.275 229.014 225.835L236.622 259.12C238.477 267.243 240.395 275.637 244.804 282.743C250.682 292.217 261.073 299.219 274.059 302.47C285.784 305.4 298.009 305.109 309.839 304.828C310.526 304.787 311.068 305.337 311.079 306.013C311.1 306.678 310.568 307.238 309.891 307.249C306.337 307.332 302.751 307.415 299.145 307.415C296.144 307.415 293.121 307.353 290.109 307.176C290.172 307.29 290.224 307.405 290.245 307.54L292.496 321.221C296.936 321.99 302.043 319.954 305.722 315.902V315.913ZM276.998 242.436C271.87 245.334 267.733 250.155 265.638 255.65C263.543 261.145 263.428 267.482 265.336 273.05C265.544 273.663 265.211 274.339 264.596 274.546C264.471 274.588 264.345 274.609 264.21 274.609C263.72 274.609 263.262 274.297 263.095 273.809C260.99 267.648 261.115 260.896 263.428 254.819C265.752 248.731 270.151 243.61 275.831 240.389C276.394 240.067 277.123 240.265 277.446 240.836C277.769 241.408 277.571 242.124 276.998 242.446V242.436Z" fill="white"/>
<path d="M161.239 236.421C159.519 240.826 160.551 245.729 164.501 251.838C167.888 257.084 173.151 264.335 179.967 267.472C180.582 263.036 181.593 258.621 184.908 255.827C186.221 254.726 187.794 254.019 189.441 253.728C187.753 251.225 186.2 248.867 184.668 246.529C182.896 243.839 181.124 241.138 179.123 238.198C176.799 234.77 174.235 231.362 170.639 230.635C167.002 229.897 162.791 232.494 161.249 236.432L161.239 236.421Z" fill="white"/>
<path d="M318.292 250.414C318.542 250.746 318.781 251.089 318.99 251.453C322.346 257.063 322.252 263.794 321.658 270.235C320.657 281.029 318.5 291.749 315.259 302.096C313.56 307.508 311.444 313.129 307.484 317.502C304.764 320.494 301.324 322.52 297.822 323.34C340.012 338.248 384.89 349.56 423.535 358.702C423.702 358.744 423.848 358.816 423.984 358.92C427.892 359.055 432.155 356.998 435.187 353.425C438.491 349.529 440.19 344.418 441.42 339.941C447.298 318.489 448.549 297.785 444.953 281.527C398.605 274.702 356.041 264.241 318.292 250.435V250.414Z" fill="#D5E6FF"/>
<path d="M320.552 369.89C317.863 365.88 315.404 361.372 313.413 356.925C313.288 356.957 313.163 356.977 313.038 356.977H313.017C312.204 356.977 311.547 356.302 311.558 355.492C311.61 351.513 311.089 347.545 310.026 343.67C309.724 342.558 309.327 341.281 308.535 340.304C307.941 339.577 306.857 338.787 305.586 338.777C304.846 338.777 302.824 340.668 302.699 341.478C302.688 341.738 302.595 341.966 302.47 342.174C304.481 346.101 305.68 350.267 306.013 354.557C306.076 355.367 305.471 356.074 304.658 356.136C304.617 356.136 304.575 356.136 304.544 356.136C303.783 356.136 303.137 355.554 303.074 354.785C302.741 350.526 301.479 346.402 299.333 342.538C298.645 341.301 297.759 339.899 296.435 338.954C295.153 338.039 293.506 337.676 292.225 338.019C291.683 338.164 290.807 338.933 290.276 339.961C289.911 340.668 289.942 341.073 289.963 341.146C289.994 341.229 290.015 341.312 290.025 341.395C292.558 342.517 293.861 345.052 294.601 346.485L298.77 354.671C299.134 355.398 298.853 356.281 298.124 356.645C297.394 357.009 296.508 356.728 296.143 356.001L291.974 347.815C291.099 346.09 290.088 344.366 288.347 343.888C286.836 343.483 285.179 344.148 284.199 344.979C283.209 345.831 282.49 347.015 281.886 348.823C279.645 355.492 281.114 362.878 285.825 368.571C286.107 368.914 286.19 369.35 286.128 369.755C286.253 369.516 286.357 369.288 286.482 369.049C286.878 368.342 287.774 368.083 288.483 368.477C289.192 368.872 289.452 369.765 289.056 370.472C284.835 378.024 285.679 387.374 291.203 394.303C291.995 395.3 293.59 396.931 295.31 396.651C295.726 396.588 296.143 396.692 296.466 396.952C303.908 402.894 308.681 409.875 311.975 419.588C312.339 420.658 312.694 421.738 313.048 422.808C315.508 430.257 318.061 437.965 323.147 444.302C325.065 446.691 326.785 447.959 328.723 448.426C332.163 449.247 335.998 447.533 340.438 443.18C350.245 433.571 358.458 422.912 364.93 411.475C364.847 411.444 364.763 411.423 364.69 411.371C345.097 399.892 333.132 388.641 320.563 369.838L320.552 369.89Z" fill="white"/>
<path d="M34.8899 325.397C34.8899 327.77 32.9595 329.696 30.5748 329.696C28.1902 329.696 26.2598 327.77 26.2598 325.397C26.2598 323.024 28.1902 321.098 30.5748 321.098C32.9595 321.098 34.8899 323.024 34.8899 325.397Z" fill="white" stroke="#2881DD"/>
<path d="M46.7789 321.429C48.9815 322.339 50.0258 324.855 49.1145 327.047C48.2032 329.24 45.68 330.283 43.4774 329.374C41.2747 328.465 40.2304 325.949 41.1417 323.756C42.053 321.563 44.5763 320.52 46.7789 321.429Z" fill="white" stroke="#2881DD"/>
<path d="M61.3453 321.422C63.5479 322.332 64.5922 324.848 63.6809 327.041C62.7696 329.233 60.2464 330.277 58.0438 329.367C55.8411 328.458 54.7968 325.942 55.7081 323.749C56.6194 321.556 59.1427 320.513 61.3453 321.422Z" fill="white" stroke="#2881DD"/>
<path d="M254.319 308.34L255.372 298.065C255.403 297.723 255.601 297.432 255.862 297.245C250.411 293.661 245.94 289.194 242.73 284.02C238.113 276.572 236.06 267.586 234.246 259.66L231.964 249.677C231.88 249.708 231.807 249.749 231.724 249.77C227.138 250.497 222.907 253.042 220.114 256.73C219.884 257.031 219.53 257.198 219.165 257.198C218.915 257.198 218.665 257.125 218.456 256.959C217.935 256.564 217.831 255.826 218.227 255.307C221.385 251.131 226.169 248.264 231.359 247.443C231.39 247.443 231.432 247.443 231.463 247.443L227.409 229.7C227.284 229.575 227.169 229.419 227.107 229.232C225.544 224.298 220.822 215.54 217.102 211.645C213.85 208.248 208.076 206.087 203.751 208.726C208.962 217.94 213.308 227.664 216.653 237.699C216.862 238.312 216.528 238.987 215.903 239.184C215.778 239.226 215.653 239.247 215.528 239.247C215.028 239.247 214.569 238.935 214.402 238.436C210.734 227.435 205.866 216.808 199.936 206.845C198.487 204.415 196.882 201.942 194.527 200.675C192.151 199.397 189.055 199.542 186.804 201.018C184.553 202.493 183.208 205.287 183.448 207.957C183.469 208.217 183.396 208.456 183.271 208.663C184.668 210.014 185.877 211.624 186.95 213.213C194.986 225.056 200.363 234.219 203.376 241.231C203.636 241.833 203.355 242.519 202.75 242.779C202.594 242.841 202.437 242.872 202.281 242.872C201.823 242.872 201.385 242.602 201.197 242.155C198.248 235.289 192.943 226.251 184.98 214.522C182.792 211.302 180.301 208.258 176.903 207.801C175.256 207.583 173.505 208.102 171.994 209.276C170.108 210.751 168.763 213.099 168.503 215.416C168.044 219.519 170.045 225.139 173.276 228.786C173.359 228.879 173.412 228.993 173.464 229.108C176.642 230.655 178.946 233.751 181.051 236.847C183.052 239.808 184.834 242.509 186.617 245.21C188.388 247.911 190.171 250.601 192.172 253.551C192.182 253.572 192.182 253.583 192.192 253.603C193.057 253.707 193.902 253.925 194.715 254.258C196.726 255.099 198.175 256.689 199.05 258.891C199.248 258.538 199.457 258.195 199.686 257.863C201.791 254.798 205.773 252.17 209.921 253.198C214.621 254.372 216.935 259.442 217.581 264.002C218.248 263.909 218.936 263.888 219.634 263.95C223.501 264.293 227.169 267.191 229.223 271.513C230.994 275.253 231.463 279.533 231.87 283.304C232.693 290.877 233.537 298.585 233.881 306.345H244.418C247.92 306.345 251.245 307.041 254.288 308.308L254.319 308.34Z" fill="white"/>
<path d="M269.212 341.84H9.3125V332.035C9.3125 318.143 20.6141 306.876 34.5555 306.876H244.449C247.606 306.876 250.633 307.465 253.426 308.524L253.425 308.524L254.117 308.812C263.245 312.602 269.671 321.577 269.671 332.046V341.385C269.671 341.637 269.469 341.84 269.212 341.84ZM25.2591 325.397C25.2591 328.324 27.6419 330.696 30.5742 330.696C33.5064 330.696 35.8892 328.324 35.8892 325.397C35.8892 322.47 33.5064 320.098 30.5742 320.098C27.6419 320.098 25.2591 322.47 25.2591 325.397ZM39.819 325.397C39.819 328.324 42.2018 330.696 45.134 330.696C48.0663 330.696 50.4491 328.324 50.4491 325.397C50.4491 322.47 48.0663 320.098 45.134 320.098C42.2018 320.098 39.819 322.47 39.819 325.397ZM54.3788 325.397C54.3788 328.324 56.7616 330.696 59.6939 330.696C62.6262 330.696 65.009 328.324 65.009 325.397C65.009 322.47 62.6262 320.098 59.6939 320.098C56.7616 320.098 54.3788 322.47 54.3788 325.397Z" fill="#2881DD" stroke="#2881DD"/>
<path d="M275.831 240.389C270.151 243.609 265.742 248.731 263.429 254.818C261.105 260.906 260.99 267.648 263.095 273.808C263.262 274.296 263.721 274.608 264.21 274.608C264.335 274.608 264.461 274.587 264.596 274.546C265.211 274.338 265.544 273.663 265.336 273.05C263.439 267.481 263.554 261.145 265.638 255.649C267.733 250.154 271.871 245.344 276.999 242.435C277.561 242.113 277.759 241.396 277.447 240.825C277.134 240.254 276.404 240.067 275.831 240.378V240.389Z" fill="#1C1D1D"/>
<path d="M452.238 259.265C447.548 256.2 440.201 256.21 436.751 261.114C436.376 261.644 436.501 262.381 437.043 262.755C437.574 263.129 438.314 263.004 438.689 262.464C441.316 258.735 447.256 258.828 450.956 261.238C455.198 264.002 457.522 269.061 459.065 273.164C464.005 286.264 465.641 300.527 463.786 314.406C463.703 315.05 464.151 315.642 464.797 315.725C464.849 315.725 464.901 315.725 464.953 315.725C465.537 315.725 466.048 315.299 466.121 314.707C468.028 300.444 466.35 285.786 461.264 272.323C459.586 267.887 457.053 262.391 452.238 259.254V259.265Z" fill="#1C1D1D"/>
<path d="M478.533 307.02C477.887 307.072 477.397 307.644 477.45 308.288C478.596 322.322 476.366 336.627 470.977 349.644C470.727 350.246 471.019 350.932 471.624 351.181C471.769 351.244 471.926 351.275 472.072 351.275C472.541 351.275 472.978 351.005 473.166 350.548C478.69 337.188 480.983 322.509 479.805 308.101C479.753 307.457 479.18 306.968 478.533 307.02Z" fill="#1C1D1D"/>
<path d="M368.11 407.175L366.505 407.289C365.89 407.33 365.39 407.746 365.212 408.297C346.63 397.275 335.103 386.325 323.023 368.26C319.792 363.429 316.874 357.861 314.8 352.584C314.717 352.376 314.581 352.189 314.425 352.044C314.227 348.958 313.716 345.894 312.882 342.892C312.465 341.385 311.934 339.806 310.84 338.456C309.526 336.835 307.577 335.859 305.628 335.838C305.628 335.838 305.608 335.838 305.597 335.838C303.857 335.838 301.814 337.417 300.657 339.1C300 338.196 299.198 337.303 298.177 336.565C296.175 335.131 293.601 334.602 291.465 335.183C289.682 335.672 288.286 337.386 287.629 338.705C287.264 339.453 287.077 340.18 287.056 340.855C285.368 340.949 283.648 341.603 282.303 342.756C280.459 344.336 279.604 346.444 279.114 347.899C276.55 355.534 278.218 363.969 283.575 370.452C283.867 370.805 284.284 370.982 284.711 370.982C285.044 370.982 285.378 370.867 285.649 370.649C285.701 370.608 285.732 370.545 285.774 370.493C281.824 378.814 282.991 388.725 288.922 396.153C290.787 398.49 292.955 399.705 295.102 399.643C301.814 405.139 306.17 411.61 309.203 420.555C309.568 421.614 309.922 422.684 310.266 423.765C312.809 431.463 315.446 439.42 320.855 446.172C322.314 447.99 324.649 450.504 328.047 451.315C328.839 451.502 329.641 451.595 330.454 451.595C334.238 451.595 338.208 449.518 342.513 445.3C353.55 434.486 362.638 422.373 369.517 409.304C369.767 408.837 369.736 408.265 369.444 407.819C369.152 407.372 368.631 407.112 368.11 407.154V407.175ZM340.439 443.233C335.999 447.585 332.163 449.299 328.724 448.479C326.786 448.011 325.066 446.744 323.148 444.354C318.062 438.018 315.519 430.309 313.049 422.861C312.695 421.781 312.34 420.711 311.976 419.641C308.682 409.928 303.909 402.947 296.467 397.004C296.144 396.745 295.727 396.641 295.31 396.703C293.591 396.984 291.996 395.353 291.204 394.355C285.67 387.426 284.836 378.066 289.057 370.525C289.453 369.818 289.203 368.925 288.484 368.53C287.775 368.135 286.879 368.385 286.483 369.101C286.358 369.33 286.243 369.569 286.128 369.808C286.201 369.403 286.118 368.966 285.826 368.623C281.115 362.931 279.646 355.545 281.887 348.875C282.491 347.068 283.21 345.883 284.2 345.032C285.18 344.19 286.837 343.525 288.348 343.941C290.089 344.408 291.1 346.143 291.975 347.868L296.144 356.054C296.509 356.781 297.405 357.061 298.124 356.698C298.854 356.334 299.135 355.441 298.771 354.724L294.602 346.538C293.872 345.104 292.569 342.58 290.026 341.448C290.005 341.364 289.995 341.281 289.964 341.198C289.933 341.126 289.912 340.72 290.276 340.014C290.798 338.986 291.673 338.217 292.225 338.071C293.507 337.718 295.154 338.092 296.436 339.006C297.76 339.952 298.646 341.354 299.333 342.59C301.48 346.455 302.731 350.579 303.075 354.838C303.137 355.607 303.784 356.189 304.545 356.189C304.586 356.189 304.617 356.189 304.659 356.189C305.472 356.126 306.077 355.42 306.014 354.61C305.681 350.319 304.482 346.153 302.47 342.227C302.596 342.019 302.689 341.79 302.7 341.531C302.825 340.72 304.836 338.83 305.587 338.83C306.858 338.84 307.953 339.63 308.536 340.357C309.328 341.333 309.724 342.601 310.027 343.723C311.09 347.597 311.611 351.566 311.559 355.545C311.559 356.355 312.205 357.02 313.018 357.03H313.039C313.174 357.03 313.299 357.009 313.414 356.978C315.394 361.424 317.864 365.922 320.553 369.943C333.122 388.746 345.087 399.996 364.681 411.475C364.764 411.517 364.848 411.548 364.921 411.579C358.448 423.017 350.236 433.675 340.428 443.284L340.439 443.233Z" fill="#1C1D1D"/>
<path d="M365.056 434.278C364.316 433.935 363.441 434.247 363.097 434.984C360.064 441.394 356.937 448.022 352.07 453.6C346.703 459.75 339.824 463.698 332.695 464.726C324.587 465.879 316.072 462.648 312.893 457.194C312.486 456.488 311.58 456.259 310.881 456.665C310.173 457.07 309.943 457.974 310.35 458.67C313.654 464.321 321.251 467.894 329.308 467.894C330.569 467.894 331.851 467.811 333.122 467.624C340.96 466.502 348.474 462.202 354.3 455.522C359.439 449.632 362.659 442.817 365.775 436.231C366.119 435.493 365.807 434.621 365.067 434.278H365.056Z" fill="#1C1D1D"/>
<path d="M182.197 268.926C180.79 280.187 179.508 291.646 178.372 302.969C178.309 303.582 177.788 304.049 177.184 304.049C177.142 304.049 177.1 304.049 177.059 304.049C176.402 303.987 175.923 303.395 175.985 302.741C176.882 293.744 177.882 284.665 178.966 275.658C171.608 276.614 166.991 284.686 166.376 291.926C166.167 294.378 166.147 296.933 166.115 299.406C166.053 305.213 166.001 311.207 163.624 316.64C160.3 324.255 153.254 329.044 146.323 333.303C116.62 351.566 86.8333 365.715 55.2852 376.57C57.2862 379.084 58.4431 382.575 59.3186 385.941L73.8993 442.204C118.955 427.754 154.64 406.842 197.445 377.848C204.897 372.8 212.651 367.263 218.414 359.908C225.616 350.724 230.066 338.102 231.296 323.393C232.401 310.127 230.931 296.632 229.514 283.595C229.107 279.834 228.68 275.949 227.075 272.562C225.751 269.768 223.052 266.672 219.446 266.361C214.964 265.955 211.181 270.121 209.899 274.235C208.503 278.681 209.034 283.491 209.816 288.862L209.837 288.997C210.577 294.118 211.348 299.406 209.983 304.517C209.816 305.151 209.159 305.535 208.513 305.369C207.877 305.203 207.492 304.548 207.658 303.904C208.899 299.271 208.169 294.222 207.46 289.34L207.44 289.205C206.616 283.543 206.064 278.453 207.606 273.528C208.753 269.882 211.598 266.215 215.267 264.698C214.808 261.011 212.995 256.471 209.347 255.557C206.335 254.809 203.26 256.938 201.676 259.245C199.821 261.945 199.07 265.342 198.403 268.875C196.277 280.167 194.922 291.729 194.36 303.218C194.328 303.862 193.797 304.351 193.161 304.351C193.14 304.351 193.119 304.351 193.099 304.351C192.442 304.32 191.931 303.759 191.962 303.094C192.536 291.49 193.901 279.834 196.048 268.428C196.434 266.381 196.851 264.376 197.486 262.486C197.122 259.38 195.881 257.364 193.797 256.492C191.41 255.494 188.45 255.951 186.449 257.645C183.51 260.128 182.728 264.584 182.186 268.937L182.197 268.926Z" fill="white"/>
<path d="M446.089 279.294C396.864 272.094 351.924 260.802 312.496 245.739C311.558 245.313 310.589 244.981 309.599 244.773C307.17 244.264 304.815 244.524 302.814 245.49C300.761 230.489 296.092 212.476 290.86 200.051C287.941 193.112 284.273 189.642 279.958 189.746C277.748 189.798 275.633 190.941 274.038 192.779C273.798 190.027 273.34 187.18 272.204 184.552C270.297 180.137 266.576 177.176 262.74 177C259.374 176.854 255.935 178.88 253.965 182.173C253.152 183.534 252.61 184.988 252.276 186.515C249.692 182.609 246.43 180.76 242.698 181.134C237.373 181.674 234.079 186.858 233.277 191.439C232.787 194.244 232.985 197.08 233.433 199.823C229.202 200.882 226.221 204.861 225.199 210.886C224.72 213.733 224.866 216.631 225.272 219.436C223.271 215.79 220.926 212.226 218.811 210.014C214.934 205.962 207.951 203.438 202.573 206.679C202.375 206.336 202.177 205.983 201.968 205.64C200.353 202.929 198.539 200.155 195.652 198.597C192.536 196.924 188.461 197.111 185.501 199.054C182.896 200.768 181.218 203.812 181.072 206.918C179.915 206.18 178.643 205.661 177.226 205.474C174.943 205.162 172.567 205.858 170.556 207.427C168.148 209.307 166.512 212.195 166.178 215.166C165.73 219.166 167.2 224.183 169.847 228.152C165.407 227.902 160.842 230.946 159.039 235.548C156.381 242.342 159.748 248.814 162.52 253.094C166.157 258.714 171.869 266.568 179.498 269.83C179.55 269.851 179.613 269.851 179.665 269.861C179.529 270.983 179.394 272.105 179.258 273.237C179.175 273.237 179.091 273.206 179.008 273.216C170.201 274.12 164.698 283.418 163.99 291.708C163.771 294.242 163.75 296.85 163.719 299.364C163.656 305.181 163.604 310.687 161.426 315.674C158.382 322.655 151.671 327.205 145.073 331.256C115.359 349.529 85.5622 363.668 53.9932 374.482C53.8056 374.544 53.6493 374.669 53.5242 374.804C52.7217 374.181 51.815 373.692 50.7832 373.37C47.2813 372.3 43.8524 373.672 40.3505 375.303L15.0036 387.062C14.3991 387.343 14.1386 388.049 14.42 388.652C14.7014 389.254 15.4101 389.504 16.0146 389.233L41.3615 377.474C44.4256 376.051 47.396 374.846 50.0849 375.666C54.0141 376.861 55.7963 381.837 57.0157 386.532L72.6491 446.858C73.8372 451.46 75.0774 456.217 74.9003 460.986C74.7127 466.086 72.7116 470.574 69.5536 472.974C66.7605 475.104 63.0085 475.768 59.7046 476.35L15.358 484.183C14.7014 484.297 14.2741 484.92 14.3887 485.565C14.4929 486.146 14.9932 486.551 15.5664 486.551C15.6394 486.551 15.7019 486.551 15.7749 486.531L60.1215 478.698C63.6963 478.064 67.7506 477.347 71.0023 474.865C74.7856 471.987 77.0785 466.959 77.287 461.058C77.4746 455.937 76.1926 451.013 74.9628 446.245L74.5146 444.499C119.904 429.956 155.777 408.94 198.8 379.801C206.408 374.648 214.329 368.987 220.311 361.351C227.805 351.804 232.433 338.736 233.694 323.569C234.819 310.074 233.339 296.465 231.901 283.314C231.484 279.543 231.026 275.263 229.254 271.523C227.201 267.202 223.532 264.303 219.665 263.96C218.967 263.898 218.279 263.919 217.612 264.012C216.966 259.452 214.642 254.382 209.952 253.208C205.804 252.17 201.822 254.798 199.717 257.873C199.488 258.205 199.279 258.558 199.081 258.901C198.206 256.699 196.757 255.109 194.746 254.268C193.933 253.925 193.078 253.707 192.223 253.614C192.223 253.593 192.223 253.582 192.203 253.562C190.202 250.611 188.43 247.91 186.648 245.22C184.865 242.519 183.094 239.818 181.082 236.857C178.977 233.751 176.673 230.655 173.495 229.118C173.443 229.004 173.39 228.889 173.307 228.796C170.087 225.16 168.075 219.529 168.534 215.426C168.794 213.109 170.128 210.751 172.025 209.287C173.536 208.113 175.277 207.593 176.934 207.811C180.332 208.268 182.823 211.312 185.011 214.533C192.963 226.251 198.268 235.289 201.228 242.166C201.416 242.612 201.854 242.882 202.312 242.882C202.469 242.882 202.625 242.851 202.781 242.789C203.386 242.529 203.657 241.844 203.407 241.241C200.395 234.229 195.017 225.066 186.981 213.224C185.908 211.634 184.699 210.024 183.302 208.674C183.427 208.466 183.51 208.227 183.479 207.967C183.24 205.297 184.584 202.503 186.835 201.028C189.086 199.553 192.182 199.407 194.558 200.685C196.914 201.952 198.519 204.425 199.967 206.856C205.897 216.818 210.765 227.456 214.433 238.447C214.6 238.945 215.059 239.257 215.559 239.257C215.684 239.257 215.809 239.236 215.934 239.195C216.549 238.987 216.893 238.322 216.684 237.709C213.339 227.674 209.003 217.95 203.782 208.736C208.117 206.097 213.891 208.268 217.133 211.655C220.853 215.551 225.575 224.308 227.138 229.243C227.201 229.43 227.305 229.575 227.44 229.71L231.495 247.453C231.495 247.453 231.432 247.453 231.39 247.453C226.21 248.284 221.427 251.152 218.258 255.317C217.862 255.837 217.966 256.574 218.488 256.969C218.696 257.125 218.946 257.208 219.196 257.208C219.551 257.208 219.905 257.042 220.145 256.74C222.938 253.053 227.18 250.507 231.755 249.78C231.838 249.77 231.911 249.718 231.995 249.687L234.277 259.67C236.091 267.596 238.144 276.582 242.761 284.031C245.971 289.204 250.453 293.671 255.893 297.255C255.632 297.442 255.434 297.733 255.403 298.076L254.184 309.918C254.121 310.562 254.59 311.144 255.236 311.207C255.278 311.207 255.32 311.207 255.361 311.207C255.956 311.207 256.477 310.76 256.539 310.147L257.748 298.408C262.407 301.192 267.701 303.363 273.486 304.818C278.332 306.033 283.241 306.698 288.15 307.051C287.973 307.301 287.889 307.612 287.941 307.934L290.328 322.405C290.401 322.873 290.745 323.247 291.204 323.361C291.235 323.361 291.266 323.361 291.297 323.382C291.412 323.506 291.558 323.6 291.725 323.662C334.998 339.359 381.492 351.15 421.482 360.624C421.659 360.873 421.919 361.05 422.242 361.102C422.951 361.226 423.681 361.289 424.41 361.289C428.923 361.289 433.592 358.972 437.011 354.931C440.606 350.682 442.42 345.28 443.712 340.543C448.017 324.857 452.092 301.66 447.089 280.197C446.974 279.73 446.589 279.366 446.109 279.294H446.089ZM193.808 256.491C195.892 257.364 197.132 259.379 197.497 262.485C196.861 264.386 196.444 266.391 196.059 268.427C193.922 279.834 192.547 291.489 191.973 303.093C191.942 303.748 192.453 304.309 193.109 304.35C193.13 304.35 193.151 304.35 193.172 304.35C193.808 304.35 194.339 303.852 194.37 303.218C194.933 291.728 196.299 280.177 198.414 268.874C199.081 265.342 199.832 261.945 201.687 259.244C203.271 256.938 206.346 254.798 209.358 255.556C213.005 256.47 214.819 261.01 215.277 264.698C211.609 266.225 208.764 269.882 207.617 273.528C206.075 278.452 206.627 283.542 207.45 289.204L207.471 289.339C208.18 294.222 208.909 299.27 207.669 303.904C207.502 304.537 207.878 305.192 208.524 305.368C209.17 305.545 209.816 305.161 209.993 304.516C211.359 299.405 210.587 294.118 209.848 288.996L209.827 288.861C209.045 283.49 208.513 278.681 209.91 274.234C211.202 270.121 214.975 265.955 219.457 266.36C223.063 266.682 225.762 269.767 227.086 272.562C228.691 275.949 229.108 279.834 229.525 283.594C230.942 296.632 232.422 310.126 231.307 323.392C230.077 338.092 225.627 350.724 218.425 359.907C212.651 367.262 204.897 372.809 197.455 377.848C154.651 406.842 118.966 427.753 73.9101 442.204L59.3294 385.94C58.454 382.574 57.2971 379.084 55.296 376.57C86.8442 365.725 116.631 351.565 146.334 333.303C153.265 329.043 160.3 324.244 163.635 316.64C166.012 311.207 166.064 305.202 166.126 299.405C166.147 296.933 166.178 294.377 166.387 291.926C167.002 284.685 171.619 276.613 178.977 275.658C177.903 284.664 176.903 293.744 175.996 302.74C175.934 303.395 176.413 303.987 177.07 304.049C177.111 304.049 177.153 304.049 177.195 304.049C177.799 304.049 178.32 303.592 178.383 302.969C179.519 291.645 180.801 280.197 182.208 268.926C182.75 264.573 183.531 260.117 186.47 257.634C188.471 255.941 191.431 255.483 193.818 256.481L193.808 256.491ZM179.112 238.187C181.113 241.137 182.885 243.828 184.657 246.518C186.199 248.856 187.752 251.214 189.43 253.717C187.784 254.008 186.21 254.704 184.897 255.816C181.582 258.6 180.571 263.025 179.957 267.461C173.14 264.324 167.877 257.073 164.49 251.827C160.54 245.718 159.508 240.826 161.228 236.41C162.76 232.473 166.981 229.876 170.618 230.614C174.214 231.341 176.778 234.748 179.102 238.176L179.112 238.187ZM292.496 321.231L290.245 307.55C290.224 307.415 290.172 307.301 290.109 307.186C293.121 307.352 296.144 307.425 299.145 307.425C302.751 307.425 306.337 307.342 309.891 307.259C310.558 307.238 311.089 306.688 311.079 306.023C311.058 305.358 310.516 304.807 309.839 304.839C298.009 305.119 285.784 305.41 274.059 302.48C261.073 299.229 250.682 292.227 244.804 282.753C240.395 275.647 238.477 267.253 236.622 259.13L229.014 225.846C227.972 221.275 226.794 216.101 227.597 211.302C228.003 208.913 229.4 203.459 233.871 202.233C234.111 203.386 234.381 204.518 234.642 205.619L241.489 234.509C241.625 235.07 242.115 235.444 242.667 235.444C242.761 235.444 242.855 235.444 242.949 235.413C243.605 235.257 244.001 234.603 243.855 233.959L237.008 205.069C236.028 200.924 234.913 196.228 235.674 191.876C236.341 188.042 239.051 183.96 242.938 183.565C247.357 183.108 250.223 187.242 251.849 190.795C251.849 194.099 252.485 197.568 253.204 200.955L258.499 225.752C258.624 226.323 259.124 226.708 259.687 226.708C259.77 226.708 259.853 226.708 259.937 226.677C260.593 226.542 261.01 225.897 260.875 225.243L255.58 200.446C254.288 194.4 253.267 188.105 256.049 183.44C257.571 180.895 260.145 179.327 262.626 179.441C265.95 179.597 268.712 182.609 269.973 185.528C271.453 188.936 271.651 192.79 271.849 196.519C271.849 196.561 271.87 196.592 271.881 196.623C270.901 199.511 270.901 202.607 271.047 205.308C271.433 212.372 272.902 219.301 275.435 225.918C275.674 226.542 276.373 226.853 276.998 226.614C277.623 226.375 277.936 225.679 277.696 225.056C275.258 218.678 273.83 211.998 273.465 205.183C273.319 202.461 273.319 199.324 274.455 196.634C275.372 194.452 277.457 192.229 280.01 192.167C280.052 192.167 280.083 192.167 280.125 192.167C284.075 192.167 286.92 196.956 288.619 200.986C294.653 215.322 299.948 237.231 301.209 253.063C301.261 253.697 301.793 254.175 302.418 254.175C302.449 254.175 302.48 254.175 302.512 254.175C303.179 254.123 303.679 253.541 303.627 252.876C303.502 251.307 303.325 249.676 303.127 248.004C305.232 246.674 307.525 246.747 309.109 247.079C309.88 247.246 310.641 247.495 311.371 247.817C311.402 247.838 311.423 247.858 311.464 247.869C311.517 247.89 311.558 247.9 311.61 247.921C313.809 248.939 315.738 250.622 316.957 252.658C319.969 257.686 319.865 263.971 319.292 270.017C318.301 280.644 316.186 291.199 312.996 301.4C311.381 306.563 309.38 311.892 305.722 315.923C302.043 319.974 296.936 322 292.496 321.242V321.231ZM441.419 339.92C440.19 344.408 438.491 349.508 435.187 353.404C432.154 356.978 427.891 359.035 423.983 358.899C423.858 358.796 423.702 358.723 423.535 358.681C384.889 349.54 340.011 338.237 297.822 323.319C301.324 322.499 304.763 320.473 307.483 317.481C311.454 313.108 313.57 307.498 315.258 302.075C318.499 291.728 320.646 281.008 321.657 270.214C322.262 263.773 322.356 257.042 318.989 251.432C318.781 251.079 318.541 250.736 318.291 250.393C356.04 264.199 398.605 274.65 444.953 281.486C448.548 297.743 447.308 318.447 441.419 339.899V339.92Z" fill="#1C1D1D"/>
</g>
<defs>
<clipPath id="clip0_643_136">
<rect width="521" height="639" fill="white"/>
</clipPath>
</defs>
</svg>
