<svg width="544" height="148" viewBox="0 0 544 148" fill="none" xmlns="http://www.w3.org/2000/svg">
<g clip-path="url(#clip0_696_204)">
<rect width="544" height="148" rx="20" fill="#2881DD"/>
<path d="M206.183 85.596H181.798V82.4986H206.183V85.596ZM183.704 64.3702H204.153V67.3743H200.392V75.4441H204.028V78.3964H183.818V75.4441H187.392V67.3743H183.704V64.3702ZM196.704 75.4441V67.3743H191.121V75.4441H196.704ZM230.06 88.7659H226.341V62.0186H230.06V88.7659ZM209.134 64.2666H221.803V74.5428H213.009V79.4427C215.149 79.4289 217.121 79.3529 218.924 79.2148C220.726 79.0767 222.563 78.8522 224.435 78.5414L224.756 81.5767C222.705 81.9427 220.657 82.1913 218.613 82.3225C216.576 82.4537 214.221 82.5193 211.548 82.5193H209.155V71.6008H217.991V67.2811H209.134V64.2666ZM258.038 85.596H233.653V82.4986H258.038V85.596ZM235.559 64.3702H256.008V67.3743H252.248V75.4441H255.884V78.3964H235.673V75.4441H239.247V67.3743H235.559V64.3702ZM248.56 75.4441V67.3743H242.976V75.4441H248.56ZM283.966 85.7203H259.581V82.6644H269.867V78.6347H262.388V69.6637H277.461V66.7631H262.347V63.759H281.159V72.5953H266.117V75.5994H281.78V78.6347H273.566V82.6644H283.966V85.7203ZM299.069 66.8253H290.657V74.2631C292.867 74.2493 294.676 74.1872 296.085 74.0767C297.494 73.9593 298.875 73.7624 300.229 73.4862L300.571 76.4489C299.583 76.6837 298.592 76.8598 297.598 76.9772C296.603 77.0946 295.515 77.174 294.335 77.2155C293.161 77.25 291.658 77.2673 289.828 77.2673H289.041H286.938V63.8004H299.069V66.8253ZM289.652 79.2666H307.978V88.7037H304.248V82.2396H289.652V79.2666ZM297.784 68.6796H304.248V62.0186H307.978V78.1271H304.248V71.6941H297.784V68.6796ZM321.412 66.6388C321.412 67.9095 321.63 69.1285 322.065 70.2956C322.5 71.4558 323.166 72.4952 324.064 73.4137C324.969 74.3253 326.098 75.0297 327.452 75.5269L325.38 78.4275C324.012 77.8888 322.842 77.1222 321.868 76.1278C320.894 75.1333 320.124 73.9627 319.558 72.616C318.971 74.0525 318.156 75.299 317.113 76.3557C316.07 77.4054 314.806 78.2099 313.322 78.7693L311.302 75.8377C312.717 75.3405 313.898 74.6222 314.844 73.683C315.791 72.7438 316.492 71.6733 316.947 70.4717C317.403 69.2631 317.635 67.9855 317.641 66.6388V63.5518H321.412V66.6388ZM316.15 79.9399H319.931V85.2231H334.475V88.2376H316.15V79.9399ZM325.618 70.6892H330.176V68.5345H325.618V65.52H330.176V62.0601H333.905V81.8253H330.176V73.6934H325.618V70.6892ZM359.143 67.2811H344.33V64.3391H350.069V61.8115H353.788V64.3391H359.143V67.2811ZM345.646 72.8957C345.639 71.9496 345.898 71.1105 346.422 70.3785C346.954 69.6395 347.693 69.0663 348.639 68.6588C349.592 68.2514 350.677 68.0477 351.892 68.0477C353.101 68.0477 354.181 68.2548 355.134 68.6692C356.094 69.0767 356.844 69.6464 357.382 70.3785C357.928 71.1105 358.204 71.9496 358.211 72.8957C358.204 73.8419 357.928 74.6844 357.382 75.4233C356.844 76.1554 356.094 76.7251 355.134 77.1326C354.181 77.5331 353.101 77.7334 351.892 77.7334C350.677 77.7334 349.592 77.5331 348.639 77.1326C347.693 76.7251 346.954 76.1554 346.422 75.4233C345.898 74.6913 345.639 73.8488 345.646 72.8957ZM348.764 78.9144H352.503V80.8826H363.038V78.9144H366.747V88.4033H348.764V78.9144ZM349.126 72.8957C349.119 73.5656 349.364 74.0905 349.862 74.4703C350.366 74.8432 351.043 75.0297 351.892 75.0297C352.451 75.0297 352.945 74.9468 353.373 74.7811C353.802 74.6084 354.137 74.3633 354.378 74.0456C354.62 73.721 354.741 73.3377 354.741 72.8957C354.734 72.2465 354.468 71.7424 353.943 71.3833C353.425 71.0173 352.742 70.8343 351.892 70.8343C351.036 70.8343 350.359 71.0138 349.862 71.3729C349.364 71.732 349.119 72.2396 349.126 72.8957ZM363.038 85.5131V83.6588H352.503V85.5131H363.038ZM359.382 72.9786H363.018V70.7203H359.444V67.7265H363.018V62.0186H366.747V77.9095H363.018V75.9724H359.382V72.9786ZM377.633 63.1685C378.752 63.1616 379.788 63.3584 380.741 63.759C381.701 64.1595 382.506 64.7258 383.155 65.4579C383.811 66.183 384.26 67.0186 384.501 67.9648H388.945V62.0186H392.675V76.366H388.945V70.9378H384.512C384.284 71.9047 383.842 72.761 383.186 73.5069C382.537 74.2528 381.732 74.8329 380.772 75.2472C379.812 75.6547 378.766 75.8584 377.633 75.8584C376.28 75.8584 375.061 75.5856 373.977 75.0401C372.899 74.4945 372.053 73.7383 371.439 72.7714C370.831 71.7977 370.53 70.6996 370.537 69.4772C370.53 68.2756 370.831 67.1948 371.439 66.2348C372.053 65.268 372.903 64.5152 373.987 63.9765C375.071 63.4309 376.287 63.1616 377.633 63.1685ZM374.08 69.4772C374.08 70.1264 374.229 70.6996 374.526 71.1968C374.829 71.6872 375.251 72.067 375.789 72.3363C376.328 72.5988 376.943 72.73 377.633 72.73C378.31 72.73 378.911 72.5988 379.436 72.3363C379.961 72.067 380.372 71.6872 380.669 71.1968C380.972 70.6996 381.128 70.1264 381.135 69.4772C381.128 68.828 380.976 68.2617 380.679 67.7783C380.382 67.288 379.968 66.9151 379.436 66.6595C378.911 66.404 378.31 66.2762 377.633 66.2762C376.943 66.2762 376.328 66.404 375.789 66.6595C375.251 66.9151 374.829 67.288 374.526 67.7783C374.229 68.2617 374.08 68.828 374.08 69.4772ZM374.888 77.5366H378.566V80.1057H388.945V77.5366H392.675V88.4033H374.888V77.5366ZM388.945 85.3785V82.9751H378.566V85.3785H388.945ZM424.75 72.5539H406.041V62.4434H424.522V65.0124H409.771V66.2659H423.901V68.721H409.771V69.9952H424.75V72.5539ZM403.099 73.8177H427.309V76.5318H417.032V78.0338H424.398V84.4461H409.543V85.8446H425.092V88.5173H405.876V81.9392H420.71V80.6443H405.855V78.0338H413.282V76.5318H403.099V73.8177Z" fill="#F7F9FC"/>
<path d="M98.0004 76.3223C98.0004 87.188 88.6884 95.9999 77.1973 95.9999" stroke="#D5E6FF" stroke-width="1.87" stroke-linecap="round" stroke-linejoin="round"/>
<path d="M51 72.6777C51 61.8098 60.3137 53 71.8031 53" stroke="#D5E6FF" stroke-width="1.87" stroke-linecap="round" stroke-linejoin="round"/>
<path d="M85.3505 59.5586H63.5392C60.8689 59.5586 58.7041 61.6131 58.7041 64.1476V84.8484C58.7041 87.3828 60.8689 89.4374 63.5392 89.4374H85.3505C88.0208 89.4374 90.1856 87.3828 90.1856 84.8484V64.1476C90.1856 61.6131 88.0208 59.5586 85.3505 59.5586Z" fill="#C4DCFF"/>
<path d="M81.2349 73.0179H75.7803V67.841C75.7803 67.2916 75.3105 66.8457 74.7316 66.8457C74.1527 66.8457 73.6829 67.2916 73.6829 67.841V73.0179H68.2284C67.6495 73.0179 67.1797 73.4638 67.1797 74.0132C67.1797 74.5626 67.6495 75.0085 68.2284 75.0085H73.6829V80.1853C73.6829 80.7347 74.1527 81.1806 74.7316 81.1806C75.3105 81.1806 75.7803 80.7347 75.7803 80.1853V75.0085H81.2349C81.8137 75.0085 82.2835 74.5626 82.2835 74.0132C82.2835 73.4638 81.8137 73.0179 81.2349 73.0179Z" fill="#2881DD"/>
<path d="M91.3861 54.459H81.5001C79.1237 54.459 77.1973 56.2812 77.1973 58.529V67.8802C77.1973 70.128 79.1237 71.9502 81.5001 71.9502H91.3861C93.7625 71.9502 95.6889 70.128 95.6889 67.8802V58.529C95.6889 56.2812 93.7625 54.459 91.3861 54.459Z" fill="#F6F9FF"/>
<path d="M68.2709 76.3223H58.3848C56.0085 76.3223 54.082 78.1445 54.082 80.3923V89.7435C54.082 91.9913 56.0085 93.8135 58.3848 93.8135H68.2709C70.6472 93.8135 72.5737 91.9913 72.5737 89.7435V80.3923C72.5737 78.1445 70.6472 76.3223 68.2709 76.3223Z" fill="#F6F9FF"/>
</g>
<defs>
<clipPath id="clip0_696_204">
<rect width="544" height="148" fill="white"/>
</clipPath>
</defs>
</svg>
