<svg width="257" height="257" viewBox="0 0 257 257" fill="none" xmlns="http://www.w3.org/2000/svg">
<path d="M204.983 0H52.0169C23.2888 0 0 23.2888 0 52.0169V204.983C0 233.711 23.2888 257 52.0169 257H204.983C233.711 257 257 233.711 257 204.983V52.0169C257 23.2888 233.711 0 204.983 0Z" fill="white"/>
<path d="M110.679 49.0966C112.25 49.4688 114.05 49.9031 115.973 49.7997C117.73 49.717 119.095 48.2281 119.013 46.4497C118.93 44.6919 117.441 43.3271 115.662 43.4098C114.649 43.4512 113.429 43.1617 112.147 42.8721C109.024 42.1277 104.33 41.011 100.732 45.6018C99.2225 47.525 98.5607 50.0065 98.7882 53.005C98.8296 53.646 98.933 54.2457 99.0364 54.8248C99.1604 55.5072 99.2845 56.2516 99.2018 56.6445C98.8916 58.3816 100.029 60.0359 101.766 60.3668C101.952 60.4082 102.159 60.4288 102.345 60.4288C103.855 60.4288 105.199 59.3535 105.488 57.8026C105.757 56.3137 105.53 54.9075 105.323 53.7701C105.24 53.3152 105.178 52.9016 105.157 52.55C105.054 51.1852 105.261 50.2133 105.757 49.5515C106.688 48.3728 107.37 48.3108 110.679 49.0966Z" fill="#2237C6"/>
<path d="M194.306 69.3418C190.273 54.6802 183.201 47.4218 178.465 42.6242C178.465 42.2313 178.569 41.6937 178.651 41.2387C178.755 40.6804 178.858 40.06 178.9 39.3983C179.127 36.3377 178.445 33.7942 176.894 31.809C173.192 27.0941 168.374 28.2315 165.21 28.9759C163.949 29.2861 162.749 29.5549 161.777 29.5136C158.179 29.3482 154.601 28.6244 150.817 27.8799C149.142 27.5491 147.384 27.1975 145.647 26.908C139.402 25.8534 133.819 25.233 128.587 25.0469C120.191 24.716 111.713 26.1429 104.02 29.1414C85.5328 36.3584 71.1401 53.3981 66.4666 73.6018C64.6054 79.3092 63.5508 85.2649 63.1372 92.089C61.9792 110.928 68.1829 128.485 80.5905 141.492C93.1841 154.685 110.72 161.923 130.097 161.923C130.448 161.923 130.8 161.923 131.131 161.923H131.73C132.02 161.923 132.289 161.923 132.578 161.923C140.995 161.757 149.039 160.599 156.483 158.449C166.347 155.616 174.392 151.252 180.368 145.483C187.027 139.072 193.561 127.802 190.087 117.111C188.515 112.272 185.062 108.426 180.12 105.985C175.446 103.69 170.587 103.773 164.796 105.241L165.83 100.774C166.844 100.547 167.878 100.299 168.891 99.9678C175.425 97.9412 179.809 94.5705 179.996 94.4258C180.926 93.702 181.092 92.3785 180.368 91.448C179.644 90.5174 178.321 90.352 177.39 91.0551C176.749 91.5514 161.839 102.78 146.929 93.702C146.929 93.702 146.929 93.702 146.929 93.6813V89.7316C147.24 89.6489 147.529 89.5455 147.798 89.4421C150.404 88.284 152.72 86.3402 154.891 84.4377C155.677 83.7553 156.277 82.0596 155.966 81.1497C155.677 80.2398 154.188 79.2886 153.133 79.1852C150.362 78.9163 147.55 79.1024 144.758 79.1024C142.091 79.1024 139.382 78.875 136.735 79.1852C135.577 79.3299 134.088 80.3018 133.633 81.3151C133.281 82.0596 134.026 83.838 134.811 84.5204C137.003 86.4022 139.32 88.3461 141.925 89.5041C142.153 89.6075 142.401 89.6902 142.67 89.7523V93.702C142.67 93.8261 142.67 93.9502 142.711 94.0742C128.008 102.511 113.47 91.572 112.85 91.0964C111.92 90.3726 110.575 90.5381 109.872 91.4686C109.149 92.3992 109.314 93.7434 110.245 94.4465C110.431 94.5912 114.815 97.9619 121.349 99.9885C122.094 100.216 122.817 100.423 123.562 100.588L127.408 117.959C113.036 120.316 93.2875 118 82.3689 105.22C72.4635 93.6193 72.691 79.9503 74.1179 71.5338C79.0809 55.1145 91.1989 41.5282 106.502 35.5519C113.305 32.8843 120.832 31.6435 128.277 31.9331C133.219 32.1192 138.513 32.6982 144.469 33.7115C146.102 33.9803 147.798 34.3319 149.432 34.642C153.299 35.4072 157.29 36.2137 161.405 36.3998C163.349 36.4825 165.169 36.0689 166.761 35.676C169.945 34.9109 170.566 34.9729 171.414 36.0482C171.869 36.6479 172.055 37.5578 171.972 38.8606C171.951 39.1915 171.869 39.6051 171.807 40.0393C171.62 41.1974 171.372 42.6242 171.641 44.1752C171.724 44.5888 171.951 45.8709 173.027 46.9462L173.399 47.3184C178.134 52.116 184.049 58.0716 187.626 71.1202C188.04 72.6505 189.446 73.6638 190.956 73.6638C191.266 73.6638 191.576 73.6224 191.865 73.5397C193.706 73.0434 194.802 71.1202 194.285 69.2798L194.306 69.3418ZM131.482 116.491L128.132 101.353C129.083 101.436 130.014 101.498 130.944 101.498C135.163 101.498 139.237 100.568 143.021 98.7271V107.929C143.021 109.108 143.972 110.059 145.151 110.059C146.33 110.059 147.281 109.108 147.281 107.929V98.7271C151.086 100.547 155.139 101.498 159.358 101.498C159.999 101.498 160.66 101.477 161.322 101.436L160.102 106.668L157.827 116.511H131.482V116.491ZM121.701 121.619L125.423 121.474C126.168 121.454 126.809 122.033 126.829 122.777L126.974 126.499C126.995 127.244 126.416 127.885 125.671 127.905L121.949 128.05C121.205 128.071 120.563 127.492 120.543 126.747L120.398 123.025C120.377 122.281 120.956 121.64 121.701 121.619ZM69.3616 116.325L69.0515 115.395C68.9274 115.043 69.1135 114.671 69.465 114.547L70.3956 114.237C70.7472 114.112 71.1194 114.299 71.2435 114.65L71.5536 115.581C71.6777 115.932 71.4916 116.304 71.1401 116.428L70.2095 116.739C69.8579 116.863 69.4857 116.677 69.3616 116.325ZM113.057 149.495L112.064 153.093C111.857 153.817 111.113 154.23 110.389 154.044L106.791 153.051C106.067 152.845 105.654 152.1 105.84 151.376L106.832 147.778C107.039 147.054 107.784 146.641 108.507 146.827L112.106 147.82C112.829 148.026 113.243 148.771 113.057 149.495ZM105.075 126.809L105.55 123.149C105.633 122.57 106.15 122.157 106.729 122.239L110.389 122.715C110.968 122.798 111.382 123.315 111.299 123.894L110.824 127.554C110.741 128.133 110.224 128.547 109.645 128.464L105.985 127.988C105.406 127.905 104.992 127.389 105.075 126.809ZM92.8119 121.846L93.6184 120.047C93.8872 119.448 94.5903 119.179 95.1693 119.448L96.9684 120.254C97.5681 120.523 97.837 121.226 97.5681 121.805L96.7616 123.604C96.4928 124.204 95.7897 124.473 95.2107 124.204L93.4116 123.397C92.8119 123.129 92.5431 122.425 92.8119 121.846ZM90.3924 143.766L92.1708 140.541C92.4604 140.024 93.1014 139.837 93.5977 140.127L96.8237 141.905C97.3407 142.195 97.5268 142.836 97.2373 143.332L95.4588 146.558C95.1693 147.075 94.5283 147.261 94.032 146.972L90.806 145.193C90.289 144.904 90.1029 144.263 90.3924 143.766ZM84.7263 115.912L85.3881 115.043C85.7396 114.567 86.422 114.485 86.8976 114.836L87.7662 115.498C88.2418 115.849 88.3245 116.532 87.973 117.008L87.3112 117.876C86.9597 118.352 86.2773 118.434 85.8016 118.083L84.9331 117.421C84.4575 117.07 84.3748 116.387 84.7263 115.912ZM83.9612 133.944L85.4501 135.247C85.9464 135.681 85.9878 136.425 85.5535 136.922L84.2507 138.411C83.8164 138.907 83.072 138.948 82.5757 138.514L81.0868 137.211C80.5905 136.777 80.5491 136.032 80.9834 135.536L82.2862 134.047C82.7204 133.551 83.4649 133.51 83.9612 133.944ZM79.0188 110.183L79.9081 109.211C80.1769 108.922 80.6112 108.901 80.9007 109.17L81.8726 110.059C82.1621 110.328 82.1828 110.762 81.9139 111.052L81.0247 112.024C80.7559 112.313 80.3216 112.334 80.0321 112.065L79.0602 111.176C78.7707 110.907 78.75 110.473 79.0188 110.183ZM75.2552 103.235L76.041 102.656C76.3305 102.429 76.7441 102.491 76.9716 102.801L77.5506 103.587C77.7781 103.876 77.7161 104.29 77.4059 104.517L76.6201 105.096C76.3305 105.324 75.917 105.262 75.6895 104.952L75.1105 104.166C74.883 103.876 74.945 103.463 75.2552 103.235ZM75.3173 128.174L76.2065 127.533C76.6821 127.182 77.3645 127.306 77.6954 127.781L78.3364 128.671C78.688 129.146 78.5639 129.829 78.0883 130.16L77.1991 130.801C76.7235 131.152 76.041 131.028 75.7102 130.552L75.0691 129.663C74.7176 129.188 74.8416 128.505 75.3173 128.174ZM73.5595 120.585L74.2213 121.722C74.4074 122.053 74.304 122.488 73.9524 122.694L72.8151 123.356C72.4842 123.542 72.0499 123.439 71.8432 123.087L71.1814 121.95C70.9953 121.619 71.0987 121.185 71.4502 120.978L72.5876 120.316C72.9185 120.13 73.3527 120.233 73.5595 120.585Z" fill="#2237C6"/>
<path d="M165.768 72.3581C164.466 72.5856 163.246 72.9578 162.336 73.3921C160.04 74.4674 159.937 75.9356 160.061 76.7007C160.33 78.2724 161.798 79.0995 164.217 79.0995C165.003 79.0995 165.892 79.0168 166.885 78.8307C170.918 78.1276 172.944 76.5767 172.593 74.4881C172.22 72.3995 169.801 71.6343 165.748 72.3581H165.768Z" fill="#2237C6"/>
<path d="M119.033 77.8017C119.943 78.236 121.163 78.6082 122.466 78.8357C123.459 79.0011 124.348 79.1045 125.134 79.1045C127.574 79.1045 129.021 78.2774 129.311 76.7057C129.683 74.6171 127.656 73.0869 123.603 72.3631C119.55 71.66 117.131 72.4045 116.758 74.4931C116.614 75.2582 116.738 76.7264 119.033 77.8017Z" fill="#2237C6"/>
<path d="M68.951 181.493H72.5352V184.528H68.951V189.946H65.201V175.941H68.951V181.493ZM47.6837 187.449C49.8039 187.097 51.5753 186.586 52.9979 185.916C54.4206 185.246 55.4945 184.47 56.2196 183.586C56.9517 182.702 57.3833 181.742 57.5145 180.706H48.9993V177.764H61.6996C61.6927 184.656 57.5387 188.876 49.2376 190.423L47.6837 187.449ZM51.3612 190.972H69.0235V193.696H55.1112V195.281H68.7645V197.954H55.1112V199.559H69.614V202.325H51.3612V190.972ZM96.0389 202.688H92.2578V175.941H96.0389V202.688ZM74.5023 187.315C74.5023 185.416 74.8027 183.751 75.4036 182.322C76.0044 180.885 76.84 179.777 77.9105 178.996C78.9809 178.216 80.1964 177.826 81.5569 177.826C82.8967 177.826 84.0983 178.216 85.1619 178.996C86.2254 179.777 87.061 180.885 87.6688 182.322C88.2765 183.751 88.5804 185.416 88.5804 187.315C88.5804 189.228 88.2765 190.906 87.6688 192.349C87.061 193.793 86.2254 194.905 85.1619 195.685C84.0983 196.458 82.8967 196.845 81.5569 196.845C80.1964 196.845 78.9809 196.458 77.9105 195.685C76.84 194.905 76.0044 193.796 75.4036 192.36C74.8027 190.916 74.5023 189.235 74.5023 187.315ZM78.1177 187.315C78.1107 188.62 78.2489 189.735 78.532 190.661C78.8152 191.579 79.2157 192.277 79.7337 192.753C80.2516 193.223 80.8594 193.458 81.5569 193.458C82.2406 193.458 82.838 193.223 83.349 192.753C83.8601 192.277 84.2572 191.579 84.5403 190.661C84.8235 189.735 84.965 188.62 84.965 187.315C84.965 186.023 84.8235 184.918 84.5403 184C84.2572 183.081 83.8601 182.387 83.349 181.918C82.838 181.441 82.2406 181.203 81.5569 181.203C80.8594 181.203 80.2516 181.441 79.7337 181.918C79.2157 182.387 78.8152 183.081 78.532 184C78.2489 184.918 78.1107 186.023 78.1177 187.315ZM116.636 179.577C116.629 180.806 116.843 181.963 117.279 183.047C117.714 184.124 118.387 185.074 119.299 185.896C120.217 186.717 121.367 187.342 122.748 187.771L120.759 190.692C119.357 190.208 118.162 189.525 117.175 188.641C116.187 187.757 115.407 186.7 114.834 185.471C114.219 186.9 113.366 188.133 112.275 189.169C111.184 190.205 109.858 190.985 108.297 191.51L106.308 188.527C107.779 188.05 109.002 187.367 109.975 186.476C110.956 185.585 111.681 184.566 112.151 183.42C112.62 182.266 112.859 181.044 112.866 179.753V177.339H116.636V179.577ZM110.763 197.456C110.763 196.372 111.129 195.443 111.861 194.67C112.593 193.889 113.646 193.295 115.02 192.888C116.401 192.474 118.035 192.266 119.92 192.266C121.812 192.266 123.446 192.474 124.82 192.888C126.201 193.295 127.261 193.889 128 194.67C128.739 195.443 129.109 196.372 129.109 197.456C129.109 198.541 128.739 199.47 128 200.243C127.261 201.023 126.201 201.614 124.82 202.014C123.446 202.415 121.812 202.615 119.92 202.615C118.028 202.615 116.395 202.415 115.02 202.014C113.646 201.614 112.593 201.023 111.861 200.243C111.129 199.47 110.763 198.541 110.763 197.456ZM114.482 197.456C114.475 198.188 114.93 198.748 115.849 199.135C116.767 199.514 118.1 199.704 119.848 199.704C121.65 199.704 123.024 199.514 123.97 199.135C124.917 198.755 125.393 198.195 125.4 197.456C125.393 196.697 124.924 196.127 123.991 195.747C123.059 195.36 121.702 195.167 119.92 195.167C118.145 195.167 116.792 195.36 115.859 195.747C114.934 196.127 114.475 196.697 114.482 197.456ZM120.303 180.84H125.307V175.941H129.036V191.583H125.307V183.896H120.303V180.84ZM147.65 180.726H142.326C142.333 181.797 142.557 182.816 142.999 183.782C143.448 184.749 144.132 185.609 145.05 186.362C145.969 187.115 147.112 187.695 148.479 188.102L146.708 191.023C145.264 190.588 144.025 189.946 142.989 189.097C141.953 188.247 141.131 187.235 140.523 186.061C139.915 187.436 139.063 188.627 137.965 189.635C136.866 190.644 135.54 191.403 133.987 191.914L132.091 188.962C133.507 188.513 134.695 187.864 135.654 187.014C136.621 186.158 137.343 185.188 137.82 184.104C138.296 183.019 138.541 181.894 138.555 180.726H133.106V177.743H147.65V180.726ZM135.768 197.436C135.768 196.365 136.134 195.443 136.866 194.67C137.605 193.896 138.659 193.309 140.026 192.909C141.4 192.501 143.023 192.298 144.895 192.298C146.746 192.298 148.344 192.501 149.691 192.909C151.045 193.309 152.084 193.896 152.809 194.67C153.534 195.443 153.897 196.365 153.897 197.436C153.897 198.513 153.534 199.438 152.809 200.212C152.084 200.992 151.045 201.586 149.691 201.994C148.337 202.408 146.739 202.615 144.895 202.615C143.023 202.615 141.4 202.408 140.026 201.994C138.659 201.586 137.605 200.992 136.866 200.212C136.134 199.438 135.768 198.513 135.768 197.436ZM139.508 197.436C139.501 198.188 139.95 198.755 140.855 199.135C141.766 199.514 143.089 199.704 144.822 199.704C146.597 199.704 147.937 199.518 148.842 199.145C149.753 198.765 150.209 198.195 150.209 197.436C150.209 196.697 149.764 196.141 148.873 195.768C147.989 195.395 146.687 195.208 144.967 195.208C143.179 195.208 141.818 195.395 140.886 195.768C139.96 196.134 139.501 196.69 139.508 197.436ZM149.898 175.941H153.648V182.146H157.232V185.191H153.648V191.78H149.898V175.941ZM179.452 186.393H183.388V189.47H179.452V202.626H175.753V175.941H179.452V186.393ZM158.278 179.929H164.317V176.365H168.046V179.929H173.951V182.923H158.278V179.929ZM159.355 190.775C159.355 189.552 159.648 188.458 160.235 187.491C160.823 186.524 161.634 185.771 162.67 185.233C163.713 184.687 164.883 184.414 166.182 184.414C167.466 184.414 168.623 184.687 169.652 185.233C170.688 185.771 171.503 186.524 172.097 187.491C172.691 188.458 172.988 189.552 172.988 190.775C172.988 191.997 172.691 193.092 172.097 194.059C171.503 195.025 170.688 195.782 169.652 196.327C168.623 196.866 167.466 197.135 166.182 197.135C164.883 197.135 163.713 196.866 162.67 196.327C161.634 195.782 160.823 195.025 160.235 194.059C159.648 193.092 159.355 191.997 159.355 190.775ZM162.939 190.775C162.939 191.452 163.074 192.039 163.343 192.536C163.619 193.033 164.003 193.416 164.493 193.686C164.99 193.948 165.553 194.076 166.182 194.069C166.803 194.076 167.356 193.948 167.839 193.686C168.329 193.416 168.713 193.033 168.989 192.536C169.265 192.039 169.407 191.452 169.414 190.775C169.407 190.105 169.265 189.521 168.989 189.024C168.713 188.527 168.329 188.144 167.839 187.874C167.356 187.598 166.803 187.456 166.182 187.449C165.553 187.456 164.99 187.598 164.493 187.874C164.003 188.144 163.619 188.527 163.343 189.024C163.074 189.521 162.939 190.105 162.939 190.775ZM206.747 202.626H202.966V175.941H206.747V202.626ZM184.433 195.074C186.712 193.99 188.591 192.791 190.069 191.479C191.547 190.167 192.679 188.71 193.466 187.108C194.254 185.499 194.747 183.689 194.948 181.679H185.863V178.748H198.76C198.753 181.6 198.366 184.193 197.6 186.528C196.833 188.862 195.538 191.003 193.715 192.95C191.899 194.898 189.454 196.597 186.381 198.047L184.433 195.074Z" fill="#2237C6"/>
<path d="M54 218.922H204L190.5 232.422" stroke="#2237C6" stroke-width="4" stroke-linecap="round"/>
</svg>
